Inter-SemiBold.ufo
<glyph name="exclam" format="2">
  <advance width="870"/>
  <unicode hex="0021"/>
  <outline>
    <contour>
      <point x="629" y="2048" type="line"/>
      <point x="242" y="2048" type="line"/>
      <point x="274" y="602" type="line"/>
      <point x="596" y="602" type="line"/>
    </contour>
    <component base="period" xOffset="26"/>
  </outline>
</glyph>
<glyph name="numbersign" format="2">
  <advance width="1811"/>
  <unicode hex="0023"/>
  <note>
1. outline
2. slant 9.4 deg
3. remove extra shapes created by outlining
</note>
  <outline>
    <contour>
      <point x="958" y="0" type="line"/>
      <point x="1238" y="0" type="line"/>
      <point x="1574" y="2048" type="line"/>
      <point x="1294" y="2048" type="line"/>
    </contour>
    <contour>
      <point x="35" y="528" type="line"/>
      <point x="1611" y="528" type="line"/>
      <point x="1658" y="808" type="line"/>
      <point x="82" y="808" type="line"/>
    </contour>
    <contour>
      <point x="238" y="0" type="line"/>
      <point x="518" y="0" type="line"/>
      <point x="854" y="2048" type="line"/>
      <point x="574" y="2048" type="line"/>
    </contour>
    <contour>
      <point x="154" y="1240" type="line"/>
      <point x="1730" y="1240" type="line"/>
      <point x="1776" y="1520" type="line"/>
      <point x="200" y="1520" type="line"/>
    </contour>
  </outline>
</glyph>
<glyph name="dollar" format="2">
  <advance width="1828"/>
  <unicode hex="0024"/>
  <outline>
    <contour>
      <point x="811" y="-256" type="line"/>
      <point x="1023" y="-256" type="line"/>
      <point x="1039" y="2304" type="line"/>
      <point x="827" y="2304" type="line"/>
    </contour>
    <component base="S"/>
  </outline>
</glyph>
<glyph name="percent" format="2">
  <advance width="2376"/>
  <unicode hex="0025"/>
  <outline>
    <contour>
      <point x="1277" y="384" type="line" smooth="yes"/>
      <point x="1278" y="146"/>
      <point x="1429" y="-57"/>
      <point x="1710" y="-57" type="curve" smooth="yes"/>
      <point x="1990" y="-57"/>
      <point x="2144" y="146"/>
      <point x="2143" y="384" type="curve" smooth="yes"/>
      <point x="2143" y="492" type="line" smooth="yes"/>
      <point x="2144" y="732"/>
      <point x="1994" y="933"/>
      <point x="1710" y="933" type="curve" smooth="yes"/>
      <point x="1433" y="933"/>
      <point x="1278" y="730"/>
      <point x="1277" y="492" type="curve" smooth="yes"/>
    </contour>
    <contour>
      <point x="1538" y="492" type="line" smooth="yes"/>
      <point x="1539" y="598"/>
      <point x="1584" y="705"/>
      <point x="1710" y="705" type="curve" smooth="yes"/>
      <point x="1842" y="705"/>
      <point x="1881" y="598"/>
      <point x="1880" y="492" type="curve" smooth="yes"/>
      <point x="1880" y="384" type="line" smooth="yes"/>
      <point x="1881" y="278"/>
      <point x="1838" y="173"/>
      <point x="1710" y="173" type="curve" smooth="yes"/>
      <point x="1582" y="173"/>
      <point x="1539" y="279"/>
      <point x="1538" y="384" type="curve" smooth="yes"/>
    </contour>
    <contour>
      <point x="236" y="1556" type="line" smooth="yes"/>
      <point x="237" y="1318"/>
      <point x="388" y="1117"/>
      <point x="670" y="1117" type="curve" smooth="yes"/>
      <point x="949" y="1117"/>
      <point x="1103" y="1316"/>
      <point x="1102" y="1556" type="curve" smooth="yes"/>
      <point x="1102" y="1664" type="line" smooth="yes"/>
      <point x="1103" y="1904"/>
      <point x="953" y="2105"/>
      <point x="670" y="2105" type="curve" smooth="yes"/>
      <point x="394" y="2105"/>
      <point x="237" y="1904"/>
      <point x="236" y="1664" type="curve" smooth="yes"/>
    </contour>
    <contour>
      <point x="499" y="1664" type="line" smooth="yes"/>
      <point x="500" y="1769"/>
      <point x="543" y="1877"/>
      <point x="670" y="1877" type="curve" smooth="yes"/>
      <point x="802" y="1877"/>
      <point x="840" y="1770"/>
      <point x="839" y="1664" type="curve" smooth="yes"/>
      <point x="839" y="1556" type="line" smooth="yes"/>
      <point x="840" y="1450"/>
      <point x="798" y="1345"/>
      <point x="670" y="1345" type="curve" smooth="yes"/>
      <point x="542" y="1345"/>
      <point x="500" y="1450"/>
      <point x="499" y="1556" type="curve" smooth="yes"/>
    </contour>
    <component base="fraction" xOffset="771"/>
  </outline>
</glyph>
<glyph name="ampersand" format="2">
  <advance width="1866"/>
  <unicode hex="0026"/>
  <outline>
    <contour>
      <point x="798" y="-30" type="curve" smooth="yes"/>
      <point x="984" y="-30"/>
      <point x="1190" y="29"/>
      <point x="1334" y="160" type="curve" smooth="yes"/>
      <point x="1366" y="183"/>
      <point x="1394" y="205"/>
      <point x="1426" y="228" type="curve" smooth="yes"/>
      <point x="1577" y="346"/>
      <point x="1724" y="578"/>
      <point x="1724" y="965" type="curve"/>
      <point x="1413" y="965" type="line"/>
      <point x="1413" y="546"/>
      <point x="1102" y="268"/>
      <point x="809" y="268" type="curve" smooth="yes"/>
      <point x="608" y="268"/>
      <point x="478" y="398"/>
      <point x="478" y="560" type="curve" smooth="yes"/>
      <point x="478" y="631"/>
      <point x="532" y="738"/>
      <point x="668" y="838" type="curve" smooth="yes"/>
      <point x="1082" y="1141" type="line" smooth="yes"/>
      <point x="1253" y="1265"/>
      <point x="1354" y="1414"/>
      <point x="1354" y="1608" type="curve" smooth="yes"/>
      <point x="1354" y="1858"/>
      <point x="1157" y="2073"/>
      <point x="834" y="2073" type="curve" smooth="yes"/>
      <point x="510" y="2073"/>
      <point x="297" y="1858"/>
      <point x="297" y="1567" type="curve" smooth="yes"/>
      <point x="297" y="1311"/>
      <point x="477" y="1122"/>
      <point x="656" y="914" type="curve" smooth="yes"/>
      <point x="1454" y="0" type="line"/>
      <point x="1846" y="0" type="line"/>
      <point x="885" y="1126" type="line" smooth="yes"/>
      <point x="746" y="1292"/>
      <point x="620" y="1428"/>
      <point x="620" y="1562" type="curve" smooth="yes"/>
      <point x="620" y="1673"/>
      <point x="708" y="1776"/>
      <point x="839" y="1776" type="curve" smooth="yes"/>
      <point x="968" y="1776"/>
      <point x="1047" y="1680"/>
      <point x="1047" y="1592" type="curve" smooth="yes"/>
      <point x="1047" y="1488"/>
      <point x="991" y="1415"/>
      <point x="884" y="1346" type="curve" smooth="yes"/>
      <point x="521" y="1099" type="line" smooth="yes"/>
      <point x="285" y="938"/>
      <point x="123" y="790"/>
      <point x="123" y="544" type="curve" smooth="yes"/>
      <point x="123" y="218"/>
      <point x="379" y="-30"/>
    </contour>
  </outline>
</glyph>
<glyph name="parenleft" format="2">
  <advance width="1108"/>
  <unicode hex="0028"/>
  <guideline x="910" y="1174" angle="270.0"/>
  <outline>
    <contour>
      <point x="276" y="835" type="curve" smooth="yes"/>
      <point x="276" y="336"/>
      <point x="409" y="-79"/>
      <point x="672" y="-435" type="curve"/>
      <point x="1013" y="-435" type="line"/>
      <point x="810" y="-171"/>
      <point x="653" y="361"/>
      <point x="653" y="835" type="curve" smooth="yes"/>
      <point x="653" y="1310"/>
      <point x="810" y="1842"/>
      <point x="1013" y="2106" type="curve"/>
      <point x="672" y="2106" type="line"/>
      <point x="409" y="1750"/>
      <point x="276" y="1334"/>
    </contour>
  </outline>
</glyph>
<glyph name="asterisk" format="2">
  <advance width="1530"/>
  <unicode hex="002A"/>
  <note>
hexagonal angle: 30 deg
</note>
  <guideline x="432" y="1379" angle="0.0"/>
  <guideline x="480" y="1189" angle="0.0"/>
  <guideline x="782" y="1584" angle="90.0"/>
  <outline>
    <contour>
      <point x="643" y="896" type="line"/>
      <point x="886" y="896" type="line"/>
      <point x="864" y="1301" type="line"/>
      <point x="1204" y="1078" type="line"/>
      <point x="1326" y="1290" type="line"/>
      <point x="962" y="1472" type="line"/>
      <point x="1326" y="1654" type="line"/>
      <point x="1204" y="1866" type="line"/>
      <point x="864" y="1643" type="line"/>
      <point x="886" y="2048" type="line"/>
      <point x="643" y="2048" type="line"/>
      <point x="666" y="1643" type="line"/>
      <point x="326" y="1866" type="line"/>
      <point x="204" y="1654" type="line"/>
      <point x="567" y="1472" type="line"/>
      <point x="204" y="1290" type="line"/>
      <point x="326" y="1078" type="line"/>
      <point x="666" y="1301" type="line"/>
    </contour>
  </outline>
</glyph>
<glyph name="plus" format="2">
  <advance width="1894"/>
  <unicode hex="002B"/>
  <guideline x="324" y="813" angle="0.0"/>
  <outline>
    <contour>
      <point x="790" y="121" type="line"/>
      <point x="1104" y="121" type="line"/>
      <point x="1104" y="1505" type="line"/>
      <point x="790" y="1505" type="line"/>
    </contour>
    <contour>
      <point x="255" y="656" type="line"/>
      <point x="1639" y="656" type="line"/>
      <point x="1639" y="970" type="line"/>
      <point x="255" y="970" type="line"/>
    </contour>
  </outline>
</glyph>
<glyph name="comma" format="2">
  <advance width="831"/>
  <unicode hex="002C"/>
  <outline>
    <contour>
      <point x="611" y="280" type="line"/>
      <point x="291" y="280" type="line"/>
      <point x="284" y="168" type="line" smooth="yes"/>
      <point x="267" y="-103"/>
      <point x="196" y="-379"/>
      <point x="167" y="-500" type="curve"/>
      <point x="411" y="-500" type="line"/>
      <point x="459" y="-374"/>
      <point x="570" y="-82"/>
      <point x="598" y="170" type="curve" smooth="yes"/>
    </contour>
  </outline>
</glyph>
<glyph name="hyphen" format="2">
  <advance width="1312"/>
  <unicode hex="002D"/>
  <guideline x="1103" y="853" angle="0.0"/>
  <outline>
    <contour>
      <point x="1117" y="1002" type="line"/>
      <point x="195" y="1002" type="line"/>
      <point x="195" y="704" type="line"/>
      <point x="1117" y="704" type="line"/>
    </contour>
  </outline>
</glyph>
<glyph name="period" format="2">
  <advance width="818"/>
  <unicode hex="002E"/>
  <outline>
    <contour>
      <point x="409" y="-22" type="curve" smooth="yes"/>
      <point x="527" y="-22"/>
      <point x="628" y="76"/>
      <point x="629" y="198" type="curve" smooth="yes"/>
      <point x="628" y="318"/>
      <point x="527" y="416"/>
      <point x="409" y="416" type="curve" smooth="yes"/>
      <point x="287" y="416"/>
      <point x="188" y="318"/>
      <point x="189" y="198" type="curve" smooth="yes"/>
      <point x="188" y="76"/>
      <point x="287" y="-22"/>
    </contour>
  </outline>
</glyph>
<glyph name="slash" format="2">
  <advance width="1066"/>
  <unicode hex="002F"/>
  <outline>
    <contour>
      <point x="1022" y="2144" type="line"/>
      <point x="705" y="2144" type="line"/>
      <point x="45" y="-308" type="line"/>
      <point x="362" y="-308" type="line"/>
    </contour>
  </outline>
</glyph>
<glyph name="zero" format="2">
  <advance width="1878"/>
  <unicode hex="0030"/>
  <guideline x="509" y="971" angle="90.0"/>
  <outline>
    <contour>
      <point x="939" y="-39" type="curve" smooth="yes"/>
      <point x="1433" y="-40"/>
      <point x="1728" y="350"/>
      <point x="1728" y="1022" type="curve" smooth="yes"/>
      <point x="1728" y="1690"/>
      <point x="1431" y="2076"/>
      <point x="939" y="2076" type="curve" smooth="yes"/>
      <point x="447" y="2076"/>
      <point x="151" y="1691"/>
      <point x="150" y="1022" type="curve" smooth="yes"/>
      <point x="150" y="351"/>
      <point x="445" y="-39"/>
    </contour>
    <contour>
      <point x="939" y="274" type="curve" smooth="yes"/>
      <point x="684" y="274"/>
      <point x="524" y="530"/>
      <point x="525" y="1022" type="curve" smooth="yes"/>
      <point x="526" y="1510"/>
      <point x="685" y="1767"/>
      <point x="939" y="1767" type="curve" smooth="yes"/>
      <point x="1194" y="1767"/>
      <point x="1353" y="1510"/>
      <point x="1354" y="1022" type="curve" smooth="yes"/>
      <point x="1354" y="530"/>
      <point x="1195" y="274"/>
    </contour>
  </outline>
</glyph>
<glyph name="one" format="2">
  <advance width="1354"/>
  <unicode hex="0031"/>
  <outline>
    <contour>
      <point x="1015" y="2048" type="line"/>
      <point x="662" y="2048" type="line"/>
      <point x="153" y="1721" type="line"/>
      <point x="153" y="1381" type="line"/>
      <point x="632" y="1687" type="line"/>
      <point x="644" y="1687" type="line"/>
      <point x="644" y="0" type="line"/>
      <point x="1015" y="0" type="line"/>
    </contour>
  </outline>
</glyph>
<glyph name="two" format="2">
  <advance width="1750"/>
  <unicode hex="0032"/>
  <outline>
    <contour>
      <point x="182" y="0" type="line"/>
      <point x="1586" y="0" type="line"/>
      <point x="1586" y="310" type="line"/>
      <point x="694" y="310" type="line"/>
      <point x="694" y="324" type="line"/>
      <point x="1047" y="683" type="line" smooth="yes"/>
      <point x="1445" y="1065"/>
      <point x="1555" y="1251"/>
      <point x="1555" y="1482" type="curve" smooth="yes"/>
      <point x="1555" y="1825"/>
      <point x="1276" y="2076"/>
      <point x="864" y="2076" type="curve" smooth="yes"/>
      <point x="458" y="2076"/>
      <point x="170" y="1824"/>
      <point x="170" y="1435" type="curve"/>
      <point x="523" y="1435" type="line"/>
      <point x="523" y="1644"/>
      <point x="655" y="1775"/>
      <point x="859" y="1775" type="curve" smooth="yes"/>
      <point x="1054" y="1775"/>
      <point x="1199" y="1656"/>
      <point x="1199" y="1463" type="curve" smooth="yes"/>
      <point x="1199" y="1292"/>
      <point x="1095" y="1170"/>
      <point x="893" y="965" type="curve" smooth="yes"/>
      <point x="182" y="268" type="line"/>
    </contour>
  </outline>
</glyph>
<glyph name="three" format="2">
  <advance width="1835"/>
  <unicode hex="0033"/>
  <outline>
    <contour>
      <point x="917" y="-28" type="curve" smooth="yes"/>
      <point x="1355" y="-28"/>
      <point x="1674" y="223"/>
      <point x="1673" y="569" type="curve" smooth="yes"/>
      <point x="1674" y="825"/>
      <point x="1514" y="1009"/>
      <point x="1227" y="1050" type="curve"/>
      <point x="1227" y="1066" type="line"/>
      <point x="1449" y="1114"/>
      <point x="1598" y="1279"/>
      <point x="1597" y="1509" type="curve" smooth="yes"/>
      <point x="1598" y="1821"/>
      <point x="1332" y="2076"/>
      <point x="923" y="2076" type="curve" smooth="yes"/>
      <point x="525" y="2076"/>
      <point x="217" y="1839"/>
      <point x="209" y="1496" type="curve"/>
      <point x="566" y="1496" type="line"/>
      <point x="572" y="1668"/>
      <point x="732" y="1775"/>
      <point x="921" y="1775" type="curve" smooth="yes"/>
      <point x="1112" y="1775"/>
      <point x="1239" y="1659"/>
      <point x="1238" y="1487" type="curve" smooth="yes"/>
      <point x="1239" y="1308"/>
      <point x="1091" y="1189"/>
      <point x="879" y="1189" type="curve" smooth="yes"/>
      <point x="698" y="1189" type="line"/>
      <point x="698" y="903" type="line"/>
      <point x="879" y="903" type="line" smooth="yes"/>
      <point x="1138" y="903"/>
      <point x="1292" y="773"/>
      <point x="1291" y="588" type="curve" smooth="yes"/>
      <point x="1292" y="407"/>
      <point x="1135" y="283"/>
      <point x="916" y="283" type="curve" smooth="yes"/>
      <point x="710" y="283"/>
      <point x="551" y="390"/>
      <point x="542" y="557" type="curve"/>
      <point x="166" y="557" type="line"/>
      <point x="176" y="211"/>
      <point x="485" y="-28"/>
    </contour>
  </outline>
</glyph>
<glyph name="four" format="2">
  <advance width="1875"/>
  <unicode hex="0034"/>
  <outline>
    <contour>
      <point x="145" y="380" type="line"/>
      <point x="1738" y="380" type="line"/>
      <point x="1738" y="685" type="line"/>
      <point x="525" y="685" type="line"/>
      <point x="525" y="701" type="line"/>
      <point x="1110" y="1628" type="line"/>
      <point x="1260" y="1628" type="line"/>
      <point x="1260" y="2048" type="line"/>
      <point x="1014" y="2048" type="line"/>
      <point x="145" y="675" type="line"/>
    </contour>
    <contour>
      <point x="1122" y="0" type="line"/>
      <point x="1476" y="0" type="line"/>
      <point x="1476" y="2048" type="line"/>
      <point x="1126" y="2048" type="line"/>
      <point x="1126" y="602" type="line"/>
      <point x="1122" y="470" type="line"/>
    </contour>
  </outline>
</glyph>
<glyph name="five" format="2">
  <advance width="1781"/>
  <unicode hex="0035"/>
  <guideline x="841" y="1906" angle="0.0"/>
  <outline>
    <contour>
      <point x="894" y="-28" type="curve" smooth="yes"/>
      <point x="1327" y="-28"/>
      <point x="1629" y="266"/>
      <point x="1629" y="673" type="curve" smooth="yes"/>
      <point x="1629" y="1067"/>
      <point x="1355" y="1351"/>
      <point x="983" y="1351" type="curve" smooth="yes"/>
      <point x="817" y="1351"/>
      <point x="670" y="1285"/>
      <point x="594" y="1195" type="curve"/>
      <point x="582" y="1195" type="line"/>
      <point x="641" y="1738" type="line"/>
      <point x="1522" y="1738" type="line"/>
      <point x="1522" y="2048" type="line"/>
      <point x="334" y="2048" type="line"/>
      <point x="227" y="992" type="line"/>
      <point x="562" y="937" type="line"/>
      <point x="631" y="1013"/>
      <point x="761" y="1064"/>
      <point x="884" y="1063" type="curve" smooth="yes"/>
      <point x="1109" y="1062"/>
      <point x="1271" y="896"/>
      <point x="1270" y="664" type="curve" smooth="yes"/>
      <point x="1271" y="435"/>
      <point x="1113" y="272"/>
      <point x="894" y="272" type="curve" smooth="yes"/>
      <point x="709" y="272"/>
      <point x="560" y="389"/>
      <point x="547" y="557" type="curve"/>
      <point x="187" y="557" type="line"/>
      <point x="197" y="217"/>
      <point x="494" y="-28"/>
    </contour>
  </outline>
</glyph>
<glyph name="six" format="2">
  <advance width="1825"/>
  <unicode hex="0036"/>
  <outline>
    <contour>
      <point x="932" y="-28" type="curve" smooth="yes"/>
      <point x="1374" y="-31"/>
      <point x="1671" y="273"/>
      <point x="1670" y="678" type="curve" smooth="yes"/>
      <point x="1671" y="1065"/>
      <point x="1395" y="1345"/>
      <point x="1036" y="1345" type="curve" smooth="yes"/>
      <point x="816" y="1345"/>
      <point x="622" y="1238"/>
      <point x="524" y="1062" type="curve"/>
      <point x="510" y="1062" type="line"/>
      <point x="511" y="1499"/>
      <point x="669" y="1761"/>
      <point x="953" y="1761" type="curve" smooth="yes"/>
      <point x="1129" y="1761"/>
      <point x="1248" y="1658"/>
      <point x="1286" y="1496" type="curve"/>
      <point x="1651" y="1496" type="line"/>
      <point x="1607" y="1832"/>
      <point x="1340" y="2082"/>
      <point x="953" y="2082" type="curve" smooth="yes"/>
      <point x="461" y="2082"/>
      <point x="150" y="1672"/>
      <point x="150" y="966" type="curve" smooth="yes"/>
      <point x="150" y="215"/>
      <point x="539" y="-26"/>
    </contour>
    <contour>
      <point x="930" y="272" type="curve" smooth="yes"/>
      <point x="711" y="272"/>
      <point x="551" y="453"/>
      <point x="550" y="667" type="curve" smooth="yes"/>
      <point x="552" y="882"/>
      <point x="718" y="1062"/>
      <point x="935" y="1062" type="curve" smooth="yes"/>
      <point x="1152" y="1062"/>
      <point x="1311" y="890"/>
      <point x="1310" y="670" type="curve" smooth="yes"/>
      <point x="1311" y="446"/>
      <point x="1147" y="272"/>
    </contour>
  </outline>
</glyph>
<glyph name="seven" format="2">
  <advance width="1653"/>
  <unicode hex="0037"/>
  <outline>
    <contour>
      <point x="257" y="0" type="line"/>
      <point x="642" y="0" type="line"/>
      <point x="1512" y="1731" type="line"/>
      <point x="1512" y="2048" type="line"/>
      <point x="117" y="2048" type="line"/>
      <point x="117" y="1738" type="line"/>
      <point x="1128" y="1738" type="line"/>
      <point x="1128" y="1724" type="line"/>
    </contour>
  </outline>
</glyph>
<glyph name="eight" format="2">
  <advance width="1819"/>
  <unicode hex="0038"/>
  <note>
essentially two conjoined "three" glyphs
</note>
  <outline>
    <contour>
      <point x="910" y="-28" type="curve" smooth="yes"/>
      <point x="1353" y="-28"/>
      <point x="1670" y="216"/>
      <point x="1671" y="549" type="curve" smooth="yes"/>
      <point x="1670" y="805"/>
      <point x="1481" y="1019"/>
      <point x="1243" y="1059" type="curve"/>
      <point x="1243" y="1073" type="line"/>
      <point x="1450" y="1119"/>
      <point x="1594" y="1305"/>
      <point x="1595" y="1527" type="curve" smooth="yes"/>
      <point x="1594" y="1842"/>
      <point x="1304" y="2076"/>
      <point x="910" y="2076" type="curve" smooth="yes"/>
      <point x="513" y="2076"/>
      <point x="223" y="1843"/>
      <point x="224" y="1527" type="curve" smooth="yes"/>
      <point x="223" y="1305"/>
      <point x="365" y="1119"/>
      <point x="576" y="1073" type="curve"/>
      <point x="576" y="1059" type="line"/>
      <point x="334" y="1019"/>
      <point x="147" y="805"/>
      <point x="148" y="549" type="curve" smooth="yes"/>
      <point x="147" y="216"/>
      <point x="463" y="-28"/>
    </contour>
    <contour>
      <point x="910" y="258" type="curve" smooth="yes"/>
      <point x="678" y="258"/>
      <point x="528" y="386"/>
      <point x="530" y="575" type="curve" smooth="yes"/>
      <point x="528" y="771"/>
      <point x="689" y="910"/>
      <point x="910" y="910" type="curve" smooth="yes"/>
      <point x="1128" y="910"/>
      <point x="1288" y="770"/>
      <point x="1290" y="575" type="curve" smooth="yes"/>
      <point x="1288" y="386"/>
      <point x="1139" y="258"/>
    </contour>
    <contour>
      <point x="910" y="1191" type="curve" smooth="yes"/>
      <point x="720" y="1191"/>
      <point x="584" y="1314"/>
      <point x="586" y="1492" type="curve" smooth="yes"/>
      <point x="584" y="1668"/>
      <point x="716" y="1786"/>
      <point x="910" y="1786" type="curve" smooth="yes"/>
      <point x="1101" y="1786"/>
      <point x="1232" y="1668"/>
      <point x="1234" y="1492" type="curve" smooth="yes"/>
      <point x="1232" y="1313"/>
      <point x="1097" y="1191"/>
    </contour>
  </outline>
</glyph>
<glyph name="nine" format="2">
  <advance width="1825"/>
  <unicode hex="0039"/>
  <note>
six mirrored
</note>
  <outline>
    <contour>
      <point x="893" y="2082" type="curve" smooth="yes"/>
      <point x="449" y="2084"/>
      <point x="154" y="1780"/>
      <point x="154" y="1376" type="curve" smooth="yes"/>
      <point x="154" y="988"/>
      <point x="430" y="709"/>
      <point x="789" y="709" type="curve" smooth="yes"/>
      <point x="1010" y="709"/>
      <point x="1202" y="816"/>
      <point x="1301" y="992" type="curve"/>
      <point x="1315" y="992" type="line"/>
      <point x="1314" y="554"/>
      <point x="1155" y="293"/>
      <point x="872" y="293" type="curve" smooth="yes"/>
      <point x="695" y="293"/>
      <point x="576" y="395"/>
      <point x="539" y="558" type="curve"/>
      <point x="174" y="558" type="line"/>
      <point x="216" y="219"/>
      <point x="484" y="-28"/>
      <point x="872" y="-28" type="curve" smooth="yes"/>
      <point x="1363" y="-28"/>
      <point x="1674" y="382"/>
      <point x="1675" y="1087" type="curve" smooth="yes"/>
      <point x="1674" y="1838"/>
      <point x="1286" y="2079"/>
    </contour>
    <contour>
      <point x="894" y="1782" type="curve" smooth="yes"/>
      <point x="1113" y="1782"/>
      <point x="1274" y="1600"/>
      <point x="1274" y="1386" type="curve" smooth="yes"/>
      <point x="1274" y="1173"/>
      <point x="1106" y="991"/>
      <point x="890" y="991" type="curve" smooth="yes"/>
      <point x="672" y="991"/>
      <point x="514" y="1163"/>
      <point x="514" y="1384" type="curve" smooth="yes"/>
      <point x="514" y="1607"/>
      <point x="677" y="1782"/>
    </contour>
  </outline>
</glyph>
<glyph name="equal" format="2">
  <advance width="1894"/>
  <unicode hex="003D"/>
  <guideline x="324" y="813" angle="0.0"/>
  <outline>
    <contour>
      <point x="282" y="978" type="line"/>
      <point x="1613" y="978" type="line"/>
      <point x="1613" y="1287" type="line"/>
      <point x="282" y="1287" type="line"/>
    </contour>
    <contour>
      <point x="282" y="338" type="line"/>
      <point x="1613" y="338" type="line"/>
      <point x="1613" y="647" type="line"/>
      <point x="282" y="647" type="line"/>
    </contour>
  </outline>
</glyph>
<glyph name="greater" format="2">
  <advance width="1894"/>
  <unicode hex="003E"/>
  <guideline x="324" y="813" angle="0.0"/>
  <outline>
    <contour>
      <point x="1631" y="669" type="line"/>
      <point x="1631" y="957" type="line"/>
      <point x="263" y="1589" type="line"/>
      <point x="263" y="1234" type="line"/>
      <point x="1235" y="817" type="line"/>
      <point x="1224" y="836" type="line"/>
      <point x="1224" y="790" type="line"/>
      <point x="1235" y="809" type="line"/>
      <point x="263" y="392" type="line"/>
      <point x="263" y="37" type="line"/>
    </contour>
  </outline>
</glyph>
<glyph name="question" format="2">
  <advance width="1532"/>
  <unicode hex="003F"/>
  <outline>
    <contour>
      <point x="532" y="602" type="line"/>
      <point x="865" y="602" type="line"/>
      <point x="865" y="628" type="line" smooth="yes"/>
      <point x="867" y="840"/>
      <point x="936" y="937"/>
      <point x="1099" y="1037" type="curve" smooth="yes"/>
      <point x="1283" y="1147"/>
      <point x="1398" y="1297"/>
      <point x="1398" y="1526" type="curve" smooth="yes"/>
      <point x="1398" y="1864"/>
      <point x="1135" y="2076"/>
      <point x="753" y="2076" type="curve" smooth="yes"/>
      <point x="403" y="2076"/>
      <point x="119" y="1882"/>
      <point x="109" y="1502" type="curve"/>
      <point x="465" y="1502" type="line"/>
      <point x="474" y="1690"/>
      <point x="610" y="1780"/>
      <point x="751" y="1780" type="curve" smooth="yes"/>
      <point x="904" y="1780"/>
      <point x="1027" y="1678"/>
      <point x="1027" y="1521" type="curve" smooth="yes"/>
      <point x="1027" y="1381"/>
      <point x="934" y="1285"/>
      <point x="813" y="1209" type="curve" smooth="yes"/>
      <point x="636" y="1099"/>
      <point x="534" y="988"/>
      <point x="532" y="628" type="curve" smooth="yes"/>
    </contour>
    <component base="period" xOffset="298"/>
  </outline>
</glyph>
<glyph name="at" format="2">
  <advance width="2814"/>
  <unicode hex="0040"/>
  <outline>
    <contour>
      <point x="1473" y="-574" type="curve" smooth="yes"/>
      <point x="1730" y="-574"/>
      <point x="2003" y="-509"/>
      <point x="2128" y="-444" type="curve"/>
      <point x="2043" y="-190" type="line"/>
      <point x="1948" y="-226"/>
      <point x="1718" y="-292"/>
      <point x="1490" y="-292" type="curve" smooth="yes"/>
      <point x="828" y="-292"/>
      <point x="470" y="66"/>
      <point x="470" y="714" type="curve" smooth="yes"/>
      <point x="470" y="1318"/>
      <point x="812" y="1739"/>
      <point x="1465" y="1739" type="curve" smooth="yes"/>
      <point x="1998" y="1739"/>
      <point x="2395" y="1437"/>
      <point x="2394" y="869" type="curve" smooth="yes"/>
      <point x="2395" y="456"/>
      <point x="2331" y="270"/>
      <point x="2171" y="270" type="curve" smooth="yes"/>
      <point x="2086" y="270"/>
      <point x="2036" y="338"/>
      <point x="2035" y="437" type="curve" smooth="yes"/>
      <point x="2035" y="1389" type="line"/>
      <point x="1756" y="1389" type="line"/>
      <point x="1756" y="1277" type="line"/>
      <point x="1742" y="1277" type="line"/>
      <point x="1710" y="1365"/>
      <point x="1518" y="1446"/>
      <point x="1301" y="1416" type="curve" smooth="yes"/>
      <point x="1022" y="1379"/>
      <point x="754" y="1150"/>
      <point x="754" y="722" type="curve" smooth="yes"/>
      <point x="754" y="281"/>
      <point x="994" y="22"/>
      <point x="1320" y="7" type="curve" smooth="yes"/>
      <point x="1547" y="-4"/>
      <point x="1723" y="97"/>
      <point x="1770" y="216" type="curve"/>
      <point x="1782" y="216" type="line"/>
      <point x="1806" y="66"/>
      <point x="1938" y="-16"/>
      <point x="2140" y="-5" type="curve" smooth="yes"/>
      <point x="2570" y="11"/>
      <point x="2693" y="395"/>
      <point x="2692" y="852" type="curve" smooth="yes"/>
      <point x="2693" y="1509"/>
      <point x="2251" y="2017"/>
      <point x="1472" y="2017" type="curve" smooth="yes"/>
      <point x="642" y="2017"/>
      <point x="159" y="1506"/>
      <point x="158" y="710" type="curve" smooth="yes"/>
      <point x="159" y="-105"/>
      <point x="634" y="-574"/>
    </contour>
    <contour>
      <point x="1403" y="294" type="curve" smooth="yes"/>
      <point x="1142" y="294"/>
      <point x="1054" y="506"/>
      <point x="1053" y="734" type="curve" smooth="yes"/>
      <point x="1054" y="962"/>
      <point x="1181" y="1129"/>
      <point x="1405" y="1129" type="curve" smooth="yes"/>
      <point x="1654" y="1129"/>
      <point x="1746" y="1007"/>
      <point x="1747" y="735" type="curve" smooth="yes"/>
      <point x="1750" y="443"/>
      <point x="1656" y="294"/>
    </contour>
  </outline>
</glyph>
<glyph name="A" format="2">
  <advance width="2038"/>
  <unicode hex="0041"/>
  <outline>
    <contour>
      <point x="465" y="0" type="line"/>
      <point x="1011" y="1628" type="line"/>
      <point x="1027" y="1628" type="line"/>
      <point x="1574" y="0" type="line"/>
      <point x="1970" y="0" type="line"/>
      <point x="1248" y="2048" type="line"/>
      <point x="790" y="2048" type="line"/>
      <point x="69" y="0" type="line"/>
    </contour>
    <contour>
      <point x="478" y="803" type="line"/>
      <point x="478" y="505" type="line"/>
      <point x="1558" y="505" type="line"/>
      <point x="1558" y="803" type="line"/>
    </contour>
  </outline>
</glyph>
<glyph name="B" format="2">
  <advance width="1851"/>
  <unicode hex="0042"/>
  <guideline x="858" y="1350" angle="0.0"/>
  <outline>
    <contour>
      <point x="202" y="0" type="line"/>
      <point x="1031" y="0" type="line" smooth="yes"/>
      <point x="1500" y="0"/>
      <point x="1730" y="239"/>
      <point x="1730" y="558" type="curve" smooth="yes"/>
      <point x="1730" y="868"/>
      <point x="1510" y="1050"/>
      <point x="1292" y="1061" type="curve"/>
      <point x="1292" y="1081" type="line"/>
      <point x="1492" y="1128"/>
      <point x="1650" y="1268"/>
      <point x="1650" y="1517" type="curve" smooth="yes"/>
      <point x="1650" y="1822"/>
      <point x="1430" y="2048"/>
      <point x="986" y="2048" type="curve" smooth="yes"/>
      <point x="202" y="2048" type="line"/>
    </contour>
    <contour>
      <point x="573" y="310" type="line"/>
      <point x="573" y="910" type="line"/>
      <point x="982" y="910" type="line" smooth="yes"/>
      <point x="1211" y="910"/>
      <point x="1353" y="770"/>
      <point x="1353" y="587" type="curve" smooth="yes"/>
      <point x="1353" y="424"/>
      <point x="1241" y="310"/>
      <point x="972" y="310" type="curve" smooth="yes"/>
    </contour>
    <contour>
      <point x="573" y="1177" type="line"/>
      <point x="573" y="1742" type="line"/>
      <point x="948" y="1742" type="line" smooth="yes"/>
      <point x="1166" y="1742"/>
      <point x="1279" y="1627"/>
      <point x="1279" y="1469" type="curve" smooth="yes"/>
      <point x="1279" y="1289"/>
      <point x="1133" y="1177"/>
      <point x="940" y="1177" type="curve" smooth="yes"/>
    </contour>
  </outline>
</glyph>
<glyph name="C" format="2">
  <advance width="2094"/>
  <unicode hex="0043"/>
  <outline>
    <contour>
      <point x="1955" y="1357" type="line"/>
      <point x="1892" y="1812"/>
      <point x="1542" y="2076"/>
      <point x="1088" y="2076" type="curve" smooth="yes"/>
      <point x="553" y="2076"/>
      <point x="150" y="1686"/>
      <point x="150" y="1024" type="curve" smooth="yes"/>
      <point x="150" y="363"/>
      <point x="548" y="-28"/>
      <point x="1088" y="-28" type="curve" smooth="yes"/>
      <point x="1575" y="-28"/>
      <point x="1898" y="287"/>
      <point x="1955" y="678" type="curve"/>
      <point x="1581" y="680" type="line"/>
      <point x="1534" y="440"/>
      <point x="1338" y="305"/>
      <point x="1093" y="305" type="curve" smooth="yes"/>
      <point x="761" y="305"/>
      <point x="523" y="554"/>
      <point x="523" y="1024" type="curve" smooth="yes"/>
      <point x="523" y="1486"/>
      <point x="759" y="1743"/>
      <point x="1094" y="1743" type="curve" smooth="yes"/>
      <point x="1343" y="1743"/>
      <point x="1538" y="1602"/>
      <point x="1581" y="1357" type="curve"/>
    </contour>
  </outline>
</glyph>
<glyph name="D" format="2">
  <advance width="2040"/>
  <unicode hex="0044"/>
  <note>
!post:RemoveOverlap
</note>
  <outline>
    <contour>
      <point x="896" y="0" type="line" smooth="yes"/>
      <point x="1520" y="0"/>
      <point x="1890" y="386"/>
      <point x="1890" y="1026" type="curve" smooth="yes"/>
      <point x="1890" y="1664"/>
      <point x="1520" y="2048"/>
      <point x="910" y="2048" type="curve" smooth="yes"/>
      <point x="366" y="2048" type="line"/>
      <point x="366" y="1727" type="line"/>
      <point x="889" y="1727" type="line" smooth="yes"/>
      <point x="1305" y="1727"/>
      <point x="1522" y="1495"/>
      <point x="1522" y="1026" type="curve" smooth="yes"/>
      <point x="1522" y="555"/>
      <point x="1305" y="321"/>
      <point x="878" y="321" type="curve" smooth="yes"/>
      <point x="377" y="321" type="line"/>
      <point x="377" y="0" type="line"/>
    </contour>
    <contour>
      <point x="573" y="2048" type="line"/>
      <point x="202" y="2048" type="line"/>
      <point x="202" y="0" type="line"/>
      <point x="573" y="0" type="line"/>
    </contour>
  </outline>
</glyph>
<glyph name="E" format="2">
  <advance width="1711"/>
  <unicode hex="0045"/>
  <outline>
    <contour>
      <point x="202" y="0" type="line"/>
      <point x="1542" y="0" type="line"/>
      <point x="1542" y="311" type="line"/>
      <point x="573" y="311" type="line"/>
      <point x="573" y="870" type="line"/>
      <point x="1465" y="870" type="line"/>
      <point x="1465" y="1181" type="line"/>
      <point x="573" y="1181" type="line"/>
      <point x="573" y="1737" type="line"/>
      <point x="1534" y="1737" type="line"/>
      <point x="1534" y="2048" type="line"/>
      <point x="202" y="2048" type="line"/>
    </contour>
  </outline>
</glyph>
<glyph name="F" format="2">
  <advance width="1649"/>
  <unicode hex="0046"/>
  <outline>
    <contour>
      <point x="202" y="0" type="line"/>
      <point x="573" y="0" type="line"/>
      <point x="573" y="870" type="line"/>
      <point x="1424" y="870" type="line"/>
      <point x="1424" y="1181" type="line"/>
      <point x="573" y="1181" type="line"/>
      <point x="573" y="1737" type="line"/>
      <point x="1514" y="1737" type="line"/>
      <point x="1514" y="2048" type="line"/>
      <point x="202" y="2048" type="line"/>
    </contour>
  </outline>
</glyph>
<glyph name="G" format="2">
  <advance width="2126"/>
  <unicode hex="0047"/>
  <guideline x="1542" y="1373" angle="7.9575"/>
  <outline>
    <contour>
      <point x="1574" y="1394" type="curve"/>
      <point x="1952" y="1394" type="line"/>
      <point x="1889" y="1796"/>
      <point x="1541" y="2076"/>
      <point x="1088" y="2076" type="curve" smooth="yes"/>
      <point x="552" y="2076"/>
      <point x="150" y="1682"/>
      <point x="150" y="1022" type="curve" smooth="yes"/>
      <point x="150" y="374"/>
      <point x="534" y="-28"/>
      <point x="1099" y="-28" type="curve" smooth="yes"/>
      <point x="1606" y="-28"/>
      <point x="1969" y="298"/>
      <point x="1969" y="826" type="curve" smooth="yes"/>
      <point x="1969" y="1072" type="line"/>
      <point x="1138" y="1072" type="line"/>
      <point x="1138" y="782" type="line"/>
      <point x="1694" y="782" type="line"/>
      <point x="1610" y="795" type="line"/>
      <point x="1610" y="495"/>
      <point x="1414" y="305"/>
      <point x="1101" y="305" type="curve" smooth="yes"/>
      <point x="758" y="305"/>
      <point x="523" y="562"/>
      <point x="523" y="1026" type="curve" smooth="yes"/>
      <point x="523" y="1487"/>
      <point x="762" y="1743"/>
      <point x="1093" y="1743" type="curve" smooth="yes"/>
      <point x="1340" y="1743"/>
      <point x="1508" y="1611"/>
    </contour>
  </outline>
</glyph>
<glyph name="H" format="2">
  <advance width="2095"/>
  <unicode hex="0048"/>
  <outline>
    <contour>
      <point x="202" y="0" type="line"/>
      <point x="573" y="0" type="line"/>
      <point x="573" y="870" type="line"/>
      <point x="1522" y="870" type="line"/>
      <point x="1522" y="0" type="line"/>
      <point x="1894" y="0" type="line"/>
      <point x="1894" y="2048" type="line"/>
      <point x="1522" y="2048" type="line"/>
      <point x="1522" y="1181" type="line"/>
      <point x="573" y="1181" type="line"/>
      <point x="573" y="2048" type="line"/>
      <point x="202" y="2048" type="line"/>
    </contour>
  </outline>
</glyph>
<glyph name="I" format="2">
  <advance width="774"/>
  <unicode hex="0049"/>
  <outline>
    <contour>
      <point x="573" y="2048" type="line"/>
      <point x="202" y="2048" type="line"/>
      <point x="202" y="0" type="line"/>
      <point x="573" y="0" type="line"/>
    </contour>
  </outline>
</glyph>
<glyph name="J" format="2">
  <advance width="1579"/>
  <unicode hex="004A"/>
  <guideline x="1193" y="1476" angle="90.0"/>
  <outline>
    <contour>
      <point x="1010" y="2048" type="line"/>
      <point x="1010" y="608" type="line" smooth="yes"/>
      <point x="1009" y="392"/>
      <point x="909" y="277"/>
      <point x="731" y="277" type="curve" smooth="yes"/>
      <point x="565" y="277"/>
      <point x="454" y="378"/>
      <point x="451" y="544" type="curve"/>
      <point x="82" y="544" type="line"/>
      <point x="82" y="166"/>
      <point x="358" y="-28"/>
      <point x="717" y="-28" type="curve" smooth="yes"/>
      <point x="1112" y="-28"/>
      <point x="1377" y="212"/>
      <point x="1378" y="608" type="curve" smooth="yes"/>
      <point x="1378" y="2048" type="line"/>
    </contour>
  </outline>
</glyph>
<glyph name="K" format="2">
  <advance width="1906"/>
  <unicode hex="004B"/>
  <guideline x="1468" y="1957" angle="90.0"/>
  <outline>
    <contour>
      <point x="202" y="0" type="line"/>
      <point x="573" y="0" type="line"/>
      <point x="573" y="610" type="line"/>
      <point x="800" y="878" type="line"/>
      <point x="1411" y="0" type="line"/>
      <point x="1857" y="0" type="line"/>
      <point x="1058" y="1129" type="line"/>
      <point x="1850" y="2048" type="line"/>
      <point x="1397" y="2048" type="line"/>
      <point x="598" y="1107" type="line"/>
      <point x="573" y="1107" type="line"/>
      <point x="573" y="2048" type="line"/>
      <point x="202" y="2048" type="line"/>
    </contour>
  </outline>
</glyph>
<glyph name="L" format="2">
  <advance width="1594"/>
  <unicode hex="004C"/>
  <guideline x="228" y="1688" angle="0.0"/>
  <guideline x="838" y="174" angle="90.0"/>
  <outline>
    <contour>
      <point x="202" y="0" type="line"/>
      <point x="1475" y="0" type="line"/>
      <point x="1475" y="311" type="line"/>
      <point x="573" y="311" type="line"/>
      <point x="573" y="2048" type="line"/>
      <point x="202" y="2048" type="line"/>
    </contour>
  </outline>
</glyph>
<glyph name="M" format="2">
  <advance width="2590"/>
  <unicode hex="004D"/>
  <outline>
    <contour>
      <point x="202" y="2048" type="line"/>
      <point x="202" y="0" type="line"/>
      <point x="558" y="0" type="line"/>
      <point x="558" y="1410" type="line"/>
      <point x="577" y="1410" type="line"/>
      <point x="1143" y="6" type="line"/>
      <point x="1409" y="6" type="line"/>
      <point x="1975" y="1407" type="line"/>
      <point x="1994" y="1407" type="line"/>
      <point x="1994" y="0" type="line"/>
      <point x="2350" y="0" type="line"/>
      <point x="2350" y="2048" type="line"/>
      <point x="1896" y="2048" type="line"/>
      <point x="1288" y="564" type="line"/>
      <point x="1264" y="564" type="line"/>
      <point x="656" y="2048" type="line"/>
    </contour>
  </outline>
</glyph>
<glyph name="N" format="2">
  <advance width="2086"/>
  <unicode hex="004E"/>
  <outline>
    <contour>
      <point x="1885" y="2048" type="line"/>
      <point x="1516" y="2048" type="line"/>
      <point x="1516" y="652" type="line"/>
      <point x="1498" y="652" type="line"/>
      <point x="534" y="2048" type="line"/>
      <point x="202" y="2048" type="line"/>
      <point x="202" y="0" type="line"/>
      <point x="573" y="0" type="line"/>
      <point x="573" y="1395" type="line"/>
      <point x="590" y="1395" type="line"/>
      <point x="1555" y="0" type="line"/>
      <point x="1885" y="0" type="line"/>
    </contour>
  </outline>
</glyph>
<glyph name="O" format="2">
  <advance width="2182"/>
  <unicode hex="004F"/>
  <outline>
    <contour>
      <point x="2032" y="1024" type="curve" smooth="yes"/>
      <point x="2032" y="1686"/>
      <point x="1628" y="2076"/>
      <point x="1091" y="2076" type="curve" smooth="yes"/>
      <point x="553" y="2076"/>
      <point x="150" y="1686"/>
      <point x="150" y="1024" type="curve" smooth="yes"/>
      <point x="150" y="363"/>
      <point x="553" y="-28"/>
      <point x="1091" y="-28" type="curve" smooth="yes"/>
      <point x="1628" y="-28"/>
      <point x="2032" y="362"/>
    </contour>
    <contour>
      <point x="1659" y="1024" type="curve" smooth="yes"/>
      <point x="1659" y="558"/>
      <point x="1425" y="305"/>
      <point x="1091" y="305" type="curve" smooth="yes"/>
      <point x="758" y="305"/>
      <point x="523" y="558"/>
      <point x="523" y="1024" type="curve" smooth="yes"/>
      <point x="523" y="1490"/>
      <point x="758" y="1743"/>
      <point x="1091" y="1743" type="curve" smooth="yes"/>
      <point x="1425" y="1743"/>
      <point x="1659" y="1490"/>
    </contour>
  </outline>
</glyph>
<glyph name="P" format="2">
  <advance width="1812"/>
  <unicode hex="0050"/>
  <outline>
    <contour>
      <point x="202" y="0" type="line"/>
      <point x="573" y="0" type="line"/>
      <point x="573" y="1738" type="line"/>
      <point x="913" y="1738" type="line" smooth="yes"/>
      <point x="1191" y="1738"/>
      <point x="1314" y="1588"/>
      <point x="1314" y="1370" type="curve" smooth="yes"/>
      <point x="1314" y="1152"/>
      <point x="1191" y="997"/>
      <point x="915" y="997" type="curve" smooth="yes"/>
      <point x="456" y="997" type="line"/>
      <point x="456" y="692" type="line"/>
      <point x="965" y="692" type="line" smooth="yes"/>
      <point x="1438" y="692"/>
      <point x="1692" y="976"/>
      <point x="1692" y="1370" type="curve" smooth="yes"/>
      <point x="1692" y="1761"/>
      <point x="1441" y="2048"/>
      <point x="970" y="2048" type="curve" smooth="yes"/>
      <point x="202" y="2048" type="line"/>
    </contour>
  </outline>
</glyph>
<glyph name="Q" format="2">
  <advance width="2184"/>
  <unicode hex="0051"/>
  <outline>
    <contour>
      <point x="965" y="688" type="line"/>
      <point x="1292" y="258" type="line"/>
      <point x="1391" y="118" type="line"/>
      <point x="1623" y="-176" type="line"/>
      <point x="1983" y="-176" type="line"/>
      <point x="1642" y="262" type="line"/>
      <point x="1500" y="430" type="line"/>
      <point x="1301" y="688" type="line"/>
    </contour>
    <component base="O"/>
  </outline>
</glyph>
<glyph name="R" format="2">
  <advance width="1832"/>
  <unicode hex="0052"/>
  <outline>
    <contour>
      <point x="202" y="0" type="line"/>
      <point x="573" y="0" type="line"/>
      <point x="573" y="1738" type="line"/>
      <point x="913" y="1738" type="line" smooth="yes"/>
      <point x="1190" y="1738"/>
      <point x="1314" y="1611"/>
      <point x="1314" y="1393" type="curve" smooth="yes"/>
      <point x="1314" y="1175"/>
      <point x="1190" y="1058"/>
      <point x="915" y="1058" type="curve" smooth="yes"/>
      <point x="418" y="1058" type="line"/>
      <point x="418" y="750" type="line"/>
      <point x="965" y="750" type="line" smooth="yes"/>
      <point x="1437" y="750"/>
      <point x="1692" y="999"/>
      <point x="1692" y="1393" type="curve" smooth="yes"/>
      <point x="1692" y="1784"/>
      <point x="1440" y="2048"/>
      <point x="970" y="2048" type="curve" smooth="yes"/>
      <point x="202" y="2048" type="line"/>
    </contour>
    <contour>
      <point x="1260" y="928" type="line"/>
      <point x="855" y="928" type="line"/>
      <point x="1353" y="0" type="line"/>
      <point x="1767" y="0" type="line"/>
    </contour>
  </outline>
</glyph>
<glyph name="S" format="2">
  <advance width="1828"/>
  <unicode hex="0053"/>
  <note>
recipe: use stroke + offset curve filter with 32, no autostroke
</note>
  <outline>
    <contour>
      <point x="1315" y="1485" type="curve"/>
      <point x="1672" y="1485" type="line"/>
      <point x="1665" y="1831"/>
      <point x="1370" y="2076"/>
      <point x="934" y="2076" type="curve" smooth="yes"/>
      <point x="504" y="2076"/>
      <point x="181" y="1834"/>
      <point x="182" y="1472" type="curve" smooth="yes"/>
      <point x="182" y="1178"/>
      <point x="391" y="1009"/>
      <point x="728" y="922" type="curve" smooth="yes"/>
      <point x="961" y="862" type="line" smooth="yes"/>
      <point x="1182" y="806"/>
      <point x="1328" y="737"/>
      <point x="1329" y="578" type="curve" smooth="yes"/>
      <point x="1328" y="403"/>
      <point x="1162" y="286"/>
      <point x="920" y="286" type="curve" smooth="yes"/>
      <point x="688" y="286"/>
      <point x="508" y="390"/>
      <point x="493" y="605" type="curve"/>
      <point x="128" y="605" type="line"/>
      <point x="143" y="198"/>
      <point x="446" y="-31"/>
      <point x="923" y="-31" type="curve" smooth="yes"/>
      <point x="1414" y="-31"/>
      <point x="1699" y="214"/>
      <point x="1700" y="575" type="curve" smooth="yes"/>
      <point x="1699" y="930"/>
      <point x="1406" y="1092"/>
      <point x="1098" y="1165" type="curve" smooth="yes"/>
      <point x="906" y="1213" type="line" smooth="yes"/>
      <point x="738" y="1253"/>
      <point x="556" y="1324"/>
      <point x="558" y="1495" type="curve" smooth="yes"/>
      <point x="559" y="1649"/>
      <point x="697" y="1762"/>
      <point x="929" y="1762" type="curve" smooth="yes"/>
      <point x="1150" y="1762"/>
      <point x="1296" y="1659"/>
    </contour>
  </outline>
</glyph>
<glyph name="T" format="2">
  <advance width="1858"/>
  <unicode hex="0054"/>
  <outline>
    <contour>
      <point x="112" y="1737" type="line"/>
      <point x="745" y="1737" type="line"/>
      <point x="745" y="0" type="line"/>
      <point x="1113" y="0" type="line"/>
      <point x="1113" y="1737" type="line"/>
      <point x="1746" y="1737" type="line"/>
      <point x="1746" y="2048" type="line"/>
      <point x="112" y="2048" type="line"/>
    </contour>
  </outline>
</glyph>
<glyph name="U" format="2">
  <advance width="2066"/>
  <unicode hex="0055"/>
  <outline>
    <contour>
      <point x="1494" y="2048" type="line"/>
      <point x="1494" y="703" type="line" smooth="yes"/>
      <point x="1494" y="450"/>
      <point x="1291" y="303"/>
      <point x="1033" y="303" type="curve" smooth="yes"/>
      <point x="776" y="303"/>
      <point x="573" y="450"/>
      <point x="573" y="703" type="curve" smooth="yes"/>
      <point x="573" y="2048" type="line"/>
      <point x="202" y="2048" type="line"/>
      <point x="202" y="694" type="line" smooth="yes"/>
      <point x="202" y="230"/>
      <point x="558" y="-31"/>
      <point x="1033" y="-31" type="curve" smooth="yes"/>
      <point x="1506" y="-31"/>
      <point x="1864" y="230"/>
      <point x="1864" y="694" type="curve" smooth="yes"/>
      <point x="1864" y="2048" type="line"/>
    </contour>
  </outline>
</glyph>
<glyph name="W" format="2">
  <advance width="2835"/>
  <unicode hex="0057"/>
  <outline>
    <contour>
      <point x="633" y="0" type="line"/>
      <point x="999" y="0" type="line"/>
      <point x="1410" y="1437" type="line"/>
      <point x="1426" y="1437" type="line"/>
      <point x="1836" y="0" type="line"/>
      <point x="2202" y="0" type="line"/>
      <point x="2780" y="2048" type="line"/>
      <point x="2381" y="2048" type="line"/>
      <point x="2012" y="542" type="line"/>
      <point x="1994" y="542" type="line"/>
      <point x="1599" y="2048" type="line"/>
      <point x="1236" y="2048" type="line"/>
      <point x="842" y="543" type="line"/>
      <point x="823" y="543" type="line"/>
      <point x="454" y="2048" type="line"/>
      <point x="55" y="2048" type="line"/>
    </contour>
  </outline>
</glyph>
<glyph name="X" format="2">
  <advance width="1944"/>
  <unicode hex="0058"/>
  <note>
recipe: offset curve 32, no auto
</note>
  <outline>
    <contour>
      <point x="512" y="2048" type="line"/>
      <point x="87" y="2048" type="line"/>
      <point x="726" y="1024" type="line"/>
      <point x="79" y="0" type="line"/>
      <point x="507" y="0" type="line"/>
      <point x="963" y="745" type="line"/>
      <point x="979" y="745" type="line"/>
      <point x="1435" y="0" type="line"/>
      <point x="1865" y="0" type="line"/>
      <point x="1224" y="1024" type="line"/>
      <point x="1855" y="2048" type="line"/>
      <point x="1432" y="2048" type="line"/>
      <point x="979" y="1298" type="line"/>
      <point x="963" y="1298" type="line"/>
    </contour>
  </outline>
</glyph>
<glyph name="Y" format="2">
  <advance width="1984"/>
  <unicode hex="0059"/>
  <outline>
    <contour>
      <point x="62" y="2048" type="line"/>
      <point x="807" y="764" type="line"/>
      <point x="807" y="0" type="line"/>
      <point x="1177" y="0" type="line"/>
      <point x="1177" y="764" type="line"/>
      <point x="1922" y="2048" type="line"/>
      <point x="1503" y="2048" type="line"/>
      <point x="1002" y="1142" type="line"/>
      <point x="982" y="1142" type="line"/>
      <point x="481" y="2048" type="line"/>
    </contour>
  </outline>
</glyph>
<glyph name="Z" format="2">
  <advance width="1838"/>
  <unicode hex="005A"/>
  <guideline x="960" y="770" angle="0.0"/>
  <guideline x="778" y="1483" angle="55.0453"/>
  <outline>
    <contour>
      <point x="164" y="0" type="line"/>
      <point x="1680" y="0" type="line"/>
      <point x="1680" y="311" type="line"/>
      <point x="625" y="311" type="line"/>
      <point x="1674" y="1817" type="line"/>
      <point x="1674" y="2048" type="line"/>
      <point x="158" y="2048" type="line"/>
      <point x="158" y="1737" type="line"/>
      <point x="1214" y="1737" type="line"/>
      <point x="164" y="231" type="line"/>
    </contour>
  </outline>
</glyph>
<glyph name="bracketleft" format="2">
  <advance width="1108"/>
  <unicode hex="005B"/>
  <outline>
    <contour>
      <point x="310" y="-435" type="line"/>
      <point x="1033" y="-435" type="line"/>
      <point x="1033" y="-158" type="line"/>
      <point x="658" y="-158" type="line"/>
      <point x="658" y="1828" type="line"/>
      <point x="1033" y="1828" type="line"/>
      <point x="1033" y="2106" type="line"/>
      <point x="310" y="2106" type="line"/>
    </contour>
  </outline>
</glyph>
<glyph name="backslash" format="2">
  <advance width="1136"/>
  <unicode hex="005C"/>
  <outline>
    <contour>
      <point x="99" y="2048" type="line"/>
      <point x="706" y="-308" type="line"/>
      <point x="1033" y="-308" type="line"/>
      <point x="426" y="2048" type="line"/>
    </contour>
  </outline>
</glyph>
<glyph name="asciicircum" format="2">
  <advance width="1355"/>
  <unicode hex="005E"/>
  <outline>
    <contour>
      <point x="642" y="1842" type="line"/>
      <point x="642" y="1735" type="line"/>
      <point x="714" y="1735" type="line"/>
      <point x="714" y="1842" type="line"/>
    </contour>
    <contour>
      <point x="99" y="1120" type="line"/>
      <point x="395" y="1120" type="line"/>
      <point x="688" y="1775" type="line"/>
      <point x="667" y="1775" type="line"/>
      <point x="962" y="1120" type="line"/>
      <point x="1256" y="1120" type="line"/>
      <point x="838" y="1997" type="line"/>
      <point x="518" y="1997" type="line"/>
    </contour>
  </outline>
</glyph>
<glyph name="underscore" format="2">
  <advance width="1318"/>
  <unicode hex="005F"/>
  <outline>
    <contour>
      <point x="1321" y="0" type="line"/>
      <point x="-2" y="0" type="line"/>
      <point x="-2" y="-289" type="line"/>
      <point x="1321" y="-289" type="line"/>
    </contour>
  </outline>
</glyph>
<glyph name="grave" format="2">
  <advance width="1400"/>
  <unicode hex="0060"/>
  <note>
mirrored version of acute
</note>
  <outline>
    <contour>
      <point x="718" y="1738" type="line"/>
      <point x="989" y="1738" type="line"/>
      <point x="766" y="2195" type="line"/>
      <point x="411" y="2195" type="line"/>
    </contour>
  </outline>
</glyph>
<glyph name="a" format="2">
  <advance width="1618"/>
  <unicode hex="0061"/>
  <guideline x="473" y="1608" angle="0.0"/>
  <outline>
    <contour>
      <point x="628" y="-31" type="curve" smooth="yes"/>
      <point x="869" y="-31"/>
      <point x="1013" y="82"/>
      <point x="1079" y="211" type="curve"/>
      <point x="1091" y="211" type="line"/>
      <point x="1091" y="0" type="line"/>
      <point x="1439" y="0" type="line"/>
      <point x="1439" y="1028" type="line" smooth="yes"/>
      <point x="1439" y="1434"/>
      <point x="1108" y="1556"/>
      <point x="815" y="1556" type="curve" smooth="yes"/>
      <point x="492" y="1556"/>
      <point x="244" y="1412"/>
      <point x="164" y="1132" type="curve"/>
      <point x="502" y="1084" type="line"/>
      <point x="538" y="1189"/>
      <point x="640" y="1279"/>
      <point x="817" y="1279" type="curve" smooth="yes"/>
      <point x="985" y="1279"/>
      <point x="1077" y="1193"/>
      <point x="1077" y="1042" type="curve" smooth="yes"/>
      <point x="1077" y="1036" type="line" smooth="yes"/>
      <point x="1077" y="932"/>
      <point x="968" y="927"/>
      <point x="697" y="898" type="curve" smooth="yes"/>
      <point x="399" y="866"/>
      <point x="114" y="777"/>
      <point x="114" y="431" type="curve" smooth="yes"/>
      <point x="114" y="129"/>
      <point x="335" y="-31"/>
    </contour>
    <contour>
      <point x="722" y="235" type="curve" smooth="yes"/>
      <point x="571" y="235"/>
      <point x="463" y="304"/>
      <point x="463" y="437" type="curve" smooth="yes"/>
      <point x="463" y="576"/>
      <point x="584" y="634"/>
      <point x="746" y="657" type="curve" smooth="yes"/>
      <point x="841" y="670"/>
      <point x="1031" y="694"/>
      <point x="1078" y="732" type="curve"/>
      <point x="1078" y="551" type="line" smooth="yes"/>
      <point x="1078" y="380"/>
      <point x="940" y="235"/>
    </contour>
  </outline>
</glyph>
<glyph name="b" format="2">
  <advance width="1775"/>
  <unicode hex="0062"/>
  <note>
top anchor should match top anchor of i
</note>
  <guideline x="723" y="152" angle="0.0"/>
  <outline>
    <contour>
      <point x="202" y="0" type="line"/>
      <point x="558" y="0" type="line"/>
      <point x="558" y="242" type="line"/>
      <point x="579" y="242" type="line"/>
      <point x="636" y="130"/>
      <point x="755" y="-27"/>
      <point x="1019" y="-27" type="curve" smooth="yes"/>
      <point x="1381" y="-27"/>
      <point x="1652" y="260"/>
      <point x="1652" y="766" type="curve" smooth="yes"/>
      <point x="1652" y="1278"/>
      <point x="1373" y="1556"/>
      <point x="1018" y="1556" type="curve" smooth="yes"/>
      <point x="747" y="1556"/>
      <point x="634" y="1393"/>
      <point x="579" y="1282" type="curve"/>
      <point x="564" y="1282" type="line"/>
      <point x="564" y="2048" type="line"/>
      <point x="202" y="2048" type="line"/>
    </contour>
    <contour>
      <point x="557" y="768" type="curve" smooth="yes"/>
      <point x="557" y="1066"/>
      <point x="685" y="1259"/>
      <point x="918" y="1259" type="curve" smooth="yes"/>
      <point x="1159" y="1259"/>
      <point x="1283" y="1054"/>
      <point x="1283" y="768" type="curve" smooth="yes"/>
      <point x="1283" y="480"/>
      <point x="1157" y="270"/>
      <point x="918" y="270" type="curve" smooth="yes"/>
      <point x="687" y="270"/>
      <point x="557" y="470"/>
    </contour>
  </outline>
</glyph>
<glyph name="c" format="2">
  <advance width="1626"/>
  <unicode hex="0063"/>
  <guideline x="933" y="1242" angle="0.0"/>
  <outline>
    <contour>
      <point x="856" y="-30" type="curve" smooth="yes"/>
      <point x="1242" y="-30"/>
      <point x="1488" y="199"/>
      <point x="1514" y="525" type="curve"/>
      <point x="1168" y="525" type="line"/>
      <point x="1137" y="360"/>
      <point x="1018" y="265"/>
      <point x="859" y="265" type="curve" smooth="yes"/>
      <point x="633" y="265"/>
      <point x="487" y="454"/>
      <point x="487" y="768" type="curve" smooth="yes"/>
      <point x="487" y="1078"/>
      <point x="636" y="1264"/>
      <point x="859" y="1264" type="curve" smooth="yes"/>
      <point x="1033" y="1264"/>
      <point x="1140" y="1152"/>
      <point x="1168" y="1004" type="curve"/>
      <point x="1514" y="1004" type="line"/>
      <point x="1489" y="1337"/>
      <point x="1229" y="1556"/>
      <point x="854" y="1556" type="curve" smooth="yes"/>
      <point x="404" y="1556"/>
      <point x="120" y="1231"/>
      <point x="120" y="762" type="curve" smooth="yes"/>
      <point x="120" y="297"/>
      <point x="397" y="-30"/>
    </contour>
  </outline>
</glyph>
<glyph name="d" format="2">
  <advance width="1775"/>
  <unicode hex="0064"/>
  <outline>
    <contour>
      <point x="756" y="-27" type="curve" smooth="yes"/>
      <point x="1020" y="-27"/>
      <point x="1139" y="130"/>
      <point x="1196" y="242" type="curve"/>
      <point x="1218" y="242" type="line"/>
      <point x="1218" y="0" type="line"/>
      <point x="1574" y="0" type="line"/>
      <point x="1574" y="2048" type="line"/>
      <point x="1211" y="2048" type="line"/>
      <point x="1211" y="1282" type="line"/>
      <point x="1196" y="1282" type="line"/>
      <point x="1141" y="1393"/>
      <point x="1028" y="1556"/>
      <point x="757" y="1556" type="curve" smooth="yes"/>
      <point x="402" y="1556"/>
      <point x="123" y="1278"/>
      <point x="123" y="766" type="curve" smooth="yes"/>
      <point x="123" y="260"/>
      <point x="394" y="-27"/>
    </contour>
    <contour>
      <point x="857" y="270" type="curve" smooth="yes"/>
      <point x="618" y="270"/>
      <point x="492" y="480"/>
      <point x="492" y="768" type="curve" smooth="yes"/>
      <point x="492" y="1054"/>
      <point x="616" y="1259"/>
      <point x="857" y="1259" type="curve" smooth="yes"/>
      <point x="1090" y="1259"/>
      <point x="1218" y="1066"/>
      <point x="1218" y="768" type="curve" smooth="yes"/>
      <point x="1218" y="470"/>
      <point x="1088" y="270"/>
    </contour>
  </outline>
</glyph>
<glyph name="e" format="2">
  <advance width="1669"/>
  <unicode hex="0065"/>
  <outline>
    <contour>
      <point x="866" y="-30" type="curve" smooth="yes"/>
      <point x="1224" y="-30"/>
      <point x="1470" y="145"/>
      <point x="1534" y="412" type="curve"/>
      <point x="1196" y="450" type="line"/>
      <point x="1147" y="320"/>
      <point x="1027" y="252"/>
      <point x="871" y="252" type="curve" smooth="yes"/>
      <point x="634" y="252"/>
      <point x="479" y="410"/>
      <point x="479" y="678" type="curve" smooth="yes"/>
      <point x="479" y="891" type="line" smooth="yes"/>
      <point x="480" y="1096"/>
      <point x="628" y="1274"/>
      <point x="852" y="1274" type="curve" smooth="yes"/>
      <point x="1060" y="1274"/>
      <point x="1200" y="1122"/>
      <point x="1202" y="913" type="curve"/>
      <point x="290" y="913" type="line"/>
      <point x="290" y="669" type="line"/>
      <point x="1549" y="669" type="line"/>
      <point x="1549" y="780" type="line" smooth="yes"/>
      <point x="1549" y="1319"/>
      <point x="1225" y="1556"/>
      <point x="847" y="1556" type="curve" smooth="yes"/>
      <point x="407" y="1556"/>
      <point x="120" y="1233"/>
      <point x="120" y="759" type="curve" smooth="yes"/>
      <point x="120" y="277"/>
      <point x="403" y="-30"/>
    </contour>
  </outline>
</glyph>
<glyph name="f" format="2">
  <advance width="1072"/>
  <unicode hex="0066"/>
  <outline>
    <contour>
      <point x="974" y="1536" type="line"/>
      <point x="66" y="1536" type="line"/>
      <point x="66" y="1256" type="line"/>
      <point x="974" y="1256" type="line"/>
    </contour>
    <component base="_part.f_base"/>
  </outline>
</glyph>
<glyph name="g" format="2">
  <advance width="1761"/>
  <unicode hex="0067"/>
  <outline>
    <contour>
      <point x="854" y="-602" type="curve" smooth="yes"/>
      <point x="1269" y="-602"/>
      <point x="1575" y="-412"/>
      <point x="1575" y="-25" type="curve" smooth="yes"/>
      <point x="1575" y="1536" type="line"/>
      <point x="1218" y="1536" type="line"/>
      <point x="1218" y="1282" type="line"/>
      <point x="1198" y="1282" type="line"/>
      <point x="1143" y="1393"/>
      <point x="1028" y="1556"/>
      <point x="757" y="1556" type="curve" smooth="yes"/>
      <point x="402" y="1556"/>
      <point x="123" y="1278"/>
      <point x="123" y="773" type="curve" smooth="yes"/>
      <point x="123" y="272"/>
      <point x="402" y="22"/>
      <point x="756" y="22" type="curve" smooth="yes"/>
      <point x="1019" y="22"/>
      <point x="1142" y="163"/>
      <point x="1198" y="276" type="curve"/>
      <point x="1216" y="276" type="line"/>
      <point x="1216" y="-15" type="line" smooth="yes"/>
      <point x="1216" y="-235"/>
      <point x="1066" y="-328"/>
      <point x="860" y="-328" type="curve" smooth="yes"/>
      <point x="642" y="-328"/>
      <point x="546" y="-225"/>
      <point x="502" y="-141" type="curve"/>
      <point x="176" y="-220" type="line"/>
      <point x="242" y="-429"/>
      <point x="463" y="-602"/>
    </contour>
    <contour>
      <point x="857" y="306" type="curve" smooth="yes"/>
      <point x="618" y="306"/>
      <point x="492" y="492"/>
      <point x="492" y="775" type="curve" smooth="yes"/>
      <point x="492" y="1054"/>
      <point x="616" y="1259"/>
      <point x="857" y="1259" type="curve" smooth="yes"/>
      <point x="1090" y="1259"/>
      <point x="1218" y="1066"/>
      <point x="1218" y="775" type="curve" smooth="yes"/>
      <point x="1218" y="482"/>
      <point x="1088" y="306"/>
    </contour>
  </outline>
</glyph>
<glyph name="h" format="2">
  <advance width="1726"/>
  <unicode hex="0068"/>
  <note>
based on "n" and made slightly wider, brining the top vertical stem with it out.
</note>
  <guideline x="206" y="1612" angle="0.0"/>
  <outline>
    <contour>
      <point x="548" y="900" type="line" smooth="yes"/>
      <point x="548" y="1122"/>
      <point x="686" y="1250"/>
      <point x="880" y="1250" type="curve" smooth="yes"/>
      <point x="1070" y="1250"/>
      <point x="1182" y="1129"/>
      <point x="1182" y="922" type="curve" smooth="yes"/>
      <point x="1182" y="0" type="line"/>
      <point x="1544" y="0" type="line"/>
      <point x="1544" y="978" type="line" smooth="yes"/>
      <point x="1544" y="1349"/>
      <point x="1334" y="1556"/>
      <point x="1015" y="1556" type="curve" smooth="yes"/>
      <point x="779" y="1556"/>
      <point x="629" y="1449"/>
      <point x="558" y="1275" type="curve"/>
      <point x="540" y="1275" type="line"/>
      <point x="540" y="2048" type="line"/>
      <point x="186" y="2048" type="line"/>
      <point x="186" y="0" type="line"/>
      <point x="548" y="0" type="line"/>
    </contour>
  </outline>
</glyph>
<glyph name="k" format="2">
  <advance width="1602"/>
  <unicode hex="006B"/>
  <guideline x="368" y="1904" angle="90.0"/>
  <outline>
    <contour>
      <point x="516" y="482" type="line"/>
      <point x="794" y="780" type="line"/>
      <point x="869" y="780" type="line"/>
      <point x="1548" y="1536" type="line"/>
      <point x="1125" y="1536" type="line"/>
      <point x="573" y="919" type="line"/>
      <point x="515" y="919" type="line"/>
    </contour>
    <contour>
      <point x="186" y="0" type="line"/>
      <point x="548" y="0" type="line"/>
      <point x="548" y="2048" type="line"/>
      <point x="186" y="2048" type="line"/>
    </contour>
    <contour>
      <point x="1150" y="0" type="line"/>
      <point x="1583" y="0" type="line"/>
      <point x="894" y="954" type="line"/>
      <point x="650" y="699" type="line"/>
    </contour>
  </outline>
</glyph>
<glyph name="l" format="2">
  <advance width="734"/>
  <unicode hex="006C"/>
  <outline>
    <contour>
      <point x="548" y="2048" type="line"/>
      <point x="186" y="2048" type="line"/>
      <point x="186" y="0" type="line"/>
      <point x="548" y="0" type="line"/>
    </contour>
  </outline>
</glyph>
<glyph name="m" format="2">
  <advance width="2528"/>
  <unicode hex="006D"/>
  <outline>
    <contour>
      <point x="186" y="0" type="line"/>
      <point x="548" y="0" type="line"/>
      <point x="548" y="934" type="line" smooth="yes"/>
      <point x="548" y="1123"/>
      <point x="674" y="1251"/>
      <point x="830" y="1251" type="curve" smooth="yes"/>
      <point x="983" y="1251"/>
      <point x="1088" y="1148"/>
      <point x="1088" y="990" type="curve" smooth="yes"/>
      <point x="1088" y="0" type="line"/>
      <point x="1443" y="0" type="line"/>
      <point x="1443" y="958" type="line" smooth="yes"/>
      <point x="1443" y="1131"/>
      <point x="1546" y="1251"/>
      <point x="1721" y="1251" type="curve" smooth="yes"/>
      <point x="1867" y="1251"/>
      <point x="1983" y="1165"/>
      <point x="1983" y="975" type="curve" smooth="yes"/>
      <point x="1983" y="0" type="line"/>
      <point x="2346" y="0" type="line"/>
      <point x="2346" y="1031" type="line" smooth="yes"/>
      <point x="2346" y="1374"/>
      <point x="2148" y="1556"/>
      <point x="1866" y="1556" type="curve" smooth="yes"/>
      <point x="1643" y="1556"/>
      <point x="1473" y="1446"/>
      <point x="1405" y="1275" type="curve"/>
      <point x="1389" y="1275" type="line"/>
      <point x="1330" y="1449"/>
      <point x="1181" y="1556"/>
      <point x="974" y="1556" type="curve" smooth="yes"/>
      <point x="768" y="1556"/>
      <point x="614" y="1450"/>
      <point x="550" y="1275" type="curve"/>
      <point x="532" y="1275" type="line"/>
      <point x="532" y="1536" type="line"/>
      <point x="186" y="1536" type="line"/>
    </contour>
  </outline>
</glyph>
<glyph name="n" format="2">
  <advance width="1717"/>
  <unicode hex="006E"/>
  <outline>
    <contour>
      <point x="548" y="900" type="line" smooth="yes"/>
      <point x="548" y="1122"/>
      <point x="682" y="1250"/>
      <point x="873" y="1250" type="curve" smooth="yes"/>
      <point x="1060" y="1250"/>
      <point x="1172" y="1127"/>
      <point x="1172" y="922" type="curve" smooth="yes"/>
      <point x="1172" y="0" type="line"/>
      <point x="1534" y="0" type="line"/>
      <point x="1534" y="978" type="line" smooth="yes"/>
      <point x="1535" y="1346"/>
      <point x="1325" y="1556"/>
      <point x="1008" y="1556" type="curve" smooth="yes"/>
      <point x="778" y="1556"/>
      <point x="620" y="1446"/>
      <point x="550" y="1275" type="curve"/>
      <point x="532" y="1275" type="line"/>
      <point x="532" y="1536" type="line"/>
      <point x="186" y="1536" type="line"/>
      <point x="186" y="0" type="line"/>
      <point x="548" y="0" type="line"/>
    </contour>
  </outline>
</glyph>
<glyph name="o" format="2">
  <advance width="1712"/>
  <unicode hex="006F"/>
  <outline>
    <contour>
      <point x="856" y="-30" type="curve" smooth="yes"/>
      <point x="1306" y="-30"/>
      <point x="1592" y="287"/>
      <point x="1592" y="762" type="curve" smooth="yes"/>
      <point x="1592" y="1238"/>
      <point x="1306" y="1556"/>
      <point x="856" y="1556" type="curve" smooth="yes"/>
      <point x="406" y="1556"/>
      <point x="120" y="1238"/>
      <point x="120" y="762" type="curve" smooth="yes"/>
      <point x="120" y="287"/>
      <point x="406" y="-30"/>
    </contour>
    <contour>
      <point x="858" y="260" type="curve" smooth="yes"/>
      <point x="609" y="260"/>
      <point x="487" y="482"/>
      <point x="487" y="763" type="curve" smooth="yes"/>
      <point x="487" y="1044"/>
      <point x="609" y="1269"/>
      <point x="858" y="1269" type="curve" smooth="yes"/>
      <point x="1103" y="1269"/>
      <point x="1225" y="1044"/>
      <point x="1225" y="763" type="curve" smooth="yes"/>
      <point x="1225" y="482"/>
      <point x="1103" y="260"/>
    </contour>
  </outline>
</glyph>
<glyph name="p" format="2">
  <advance width="1759"/>
  <unicode hex="0070"/>
  <outline>
    <contour>
      <point x="186" y="-576" type="line"/>
      <point x="548" y="-576" type="line"/>
      <point x="548" y="242" type="line"/>
      <point x="563" y="242" type="line"/>
      <point x="620" y="130"/>
      <point x="739" y="-27"/>
      <point x="1003" y="-27" type="curve" smooth="yes"/>
      <point x="1365" y="-27"/>
      <point x="1636" y="260"/>
      <point x="1636" y="766" type="curve" smooth="yes"/>
      <point x="1636" y="1278"/>
      <point x="1357" y="1556"/>
      <point x="1002" y="1556" type="curve" smooth="yes"/>
      <point x="731" y="1556"/>
      <point x="618" y="1393"/>
      <point x="563" y="1282" type="curve"/>
      <point x="542" y="1282" type="line"/>
      <point x="542" y="1536" type="line"/>
      <point x="186" y="1536" type="line"/>
    </contour>
    <contour>
      <point x="541" y="768" type="curve" smooth="yes"/>
      <point x="541" y="1066"/>
      <point x="669" y="1259"/>
      <point x="902" y="1259" type="curve" smooth="yes"/>
      <point x="1143" y="1259"/>
      <point x="1267" y="1054"/>
      <point x="1267" y="768" type="curve" smooth="yes"/>
      <point x="1267" y="480"/>
      <point x="1141" y="270"/>
      <point x="902" y="270" type="curve" smooth="yes"/>
      <point x="671" y="270"/>
      <point x="541" y="470"/>
    </contour>
  </outline>
</glyph>
<glyph name="r" format="2">
  <advance width="1117"/>
  <unicode hex="0072"/>
  <outline>
    <contour>
      <point x="186" y="0" type="line"/>
      <point x="548" y="0" type="line"/>
      <point x="548" y="903" type="line" smooth="yes"/>
      <point x="548" y="1098"/>
      <point x="695" y="1236"/>
      <point x="894" y="1236" type="curve" smooth="yes"/>
      <point x="955" y="1236"/>
      <point x="1031" y="1225"/>
      <point x="1062" y="1215" type="curve"/>
      <point x="1062" y="1548" type="line"/>
      <point x="1029" y="1554"/>
      <point x="972" y="1558"/>
      <point x="932" y="1558" type="curve" smooth="yes"/>
      <point x="756" y="1558"/>
      <point x="609" y="1458"/>
      <point x="553" y="1280" type="curve"/>
      <point x="537" y="1280" type="line"/>
      <point x="537" y="1536" type="line"/>
      <point x="186" y="1536" type="line"/>
    </contour>
  </outline>
</glyph>
<glyph name="s" format="2">
  <advance width="1546"/>
  <unicode hex="0073"/>
  <guideline x="450" y="1109" angle="0.0"/>
  <outline>
    <contour>
      <point x="1400" y="1130" type="line"/>
      <point x="1350" y="1390"/>
      <point x="1142" y="1556"/>
      <point x="782" y="1556" type="curve" smooth="yes"/>
      <point x="412" y="1556"/>
      <point x="160" y="1374"/>
      <point x="161" y="1090" type="curve" smooth="yes"/>
      <point x="160" y="866"/>
      <point x="298" y="718"/>
      <point x="593" y="657" type="curve" smooth="yes"/>
      <point x="855" y="602" type="line" smooth="yes"/>
      <point x="996" y="571"/>
      <point x="1062" y="514"/>
      <point x="1062" y="427" type="curve" smooth="yes"/>
      <point x="1062" y="322"/>
      <point x="948" y="243"/>
      <point x="776" y="243" type="curve" smooth="yes"/>
      <point x="610" y="243"/>
      <point x="502" y="315"/>
      <point x="471" y="453" type="curve"/>
      <point x="118" y="419" type="line"/>
      <point x="163" y="137"/>
      <point x="400" y="-30"/>
      <point x="777" y="-30" type="curve" smooth="yes"/>
      <point x="1161" y="-30"/>
      <point x="1432" y="169"/>
      <point x="1433" y="460" type="curve" smooth="yes"/>
      <point x="1432" y="679"/>
      <point x="1291" y="813"/>
      <point x="1001" y="876" type="curve" smooth="yes"/>
      <point x="739" y="932" type="line" smooth="yes"/>
      <point x="583" y="967"/>
      <point x="521" y="1021"/>
      <point x="522" y="1110" type="curve" smooth="yes"/>
      <point x="521" y="1214"/>
      <point x="636" y="1286"/>
      <point x="787" y="1286" type="curve" smooth="yes"/>
      <point x="954" y="1286"/>
      <point x="1042" y="1195"/>
      <point x="1070" y="1094" type="curve"/>
    </contour>
  </outline>
</glyph>
<glyph name="t" format="2">
  <advance width="1070"/>
  <unicode hex="0074"/>
  <guideline x="732" y="1762" angle="90.0"/>
  <outline>
    <contour>
      <point x="953" y="1536" type="line"/>
      <point x="70" y="1536" type="line"/>
      <point x="70" y="1256" type="line"/>
      <point x="953" y="1256" type="line"/>
    </contour>
    <component base="_part.t_base"/>
  </outline>
</glyph>
<glyph name="u" format="2">
  <advance width="1713"/>
  <unicode hex="0075"/>
  <outline>
    <contour>
      <point x="1165" y="646" type="line" smooth="yes"/>
      <point x="1165" y="412"/>
      <point x="998" y="296"/>
      <point x="838" y="296" type="curve" smooth="yes"/>
      <point x="664" y="296"/>
      <point x="548" y="419"/>
      <point x="548" y="614" type="curve" smooth="yes"/>
      <point x="548" y="1536" type="line"/>
      <point x="186" y="1536" type="line"/>
      <point x="186" y="558" type="line" smooth="yes"/>
      <point x="186" y="189"/>
      <point x="396" y="-20"/>
      <point x="698" y="-20" type="curve" smooth="yes"/>
      <point x="928" y="-20"/>
      <point x="1090" y="101"/>
      <point x="1160" y="273" type="curve"/>
      <point x="1176" y="273" type="line"/>
      <point x="1176" y="0" type="line"/>
      <point x="1527" y="0" type="line"/>
      <point x="1527" y="1536" type="line"/>
      <point x="1165" y="1536" type="line"/>
    </contour>
  </outline>
</glyph>
<glyph name="v" format="2">
  <advance width="1622"/>
  <unicode hex="0076"/>
  <outline>
    <contour>
      <point x="1558" y="1536" type="line"/>
      <point x="1173" y="1536" type="line"/>
      <point x="819" y="395" type="line"/>
      <point x="803" y="395" type="line"/>
      <point x="450" y="1536" type="line"/>
      <point x="64" y="1536" type="line"/>
      <point x="611" y="0" type="line"/>
      <point x="1011" y="0" type="line"/>
    </contour>
  </outline>
</glyph>
<glyph name="w" format="2">
  <advance width="2358"/>
  <unicode hex="0077"/>
  <outline>
    <contour>
      <point x="503" y="0" type="line"/>
      <point x="881" y="0" type="line"/>
      <point x="1169" y="1038" type="line"/>
      <point x="1190" y="1038" type="line"/>
      <point x="1478" y="0" type="line"/>
      <point x="1855" y="0" type="line"/>
      <point x="2290" y="1536" type="line"/>
      <point x="1920" y="1536" type="line"/>
      <point x="1654" y="462" type="line"/>
      <point x="1639" y="462" type="line"/>
      <point x="1363" y="1536" type="line"/>
      <point x="998" y="1536" type="line"/>
      <point x="722" y="456" type="line"/>
      <point x="708" y="456" type="line"/>
      <point x="438" y="1536" type="line"/>
      <point x="69" y="1536" type="line"/>
    </contour>
  </outline>
</glyph>
<glyph name="x" format="2">
  <advance width="1584"/>
  <unicode hex="0078"/>
  <outline>
    <contour>
      <point x="482" y="1536" type="line"/>
      <point x="98" y="1536" type="line"/>
      <point x="554" y="768" type="line"/>
      <point x="86" y="0" type="line"/>
      <point x="470" y="0" type="line"/>
      <point x="792" y="553" type="line"/>
      <point x="1117" y="0" type="line"/>
      <point x="1498" y="0" type="line"/>
      <point x="1027" y="768" type="line"/>
      <point x="1490" y="1536" type="line"/>
      <point x="1107" y="1536" type="line"/>
      <point x="792" y="969" type="line"/>
    </contour>
  </outline>
</glyph>
<glyph name="y" format="2">
  <advance width="1624"/>
  <unicode hex="0079"/>
  <outline>
    <contour>
      <point x="411" y="-573" type="curve" smooth="yes"/>
      <point x="693" y="-573"/>
      <point x="856" y="-427"/>
      <point x="943" y="-186" type="curve" smooth="yes"/>
      <point x="1560" y="1534" type="line"/>
      <point x="1173" y="1536" type="line"/>
      <point x="818" y="376" type="line"/>
      <point x="802" y="376" type="line"/>
      <point x="448" y="1536" type="line"/>
      <point x="64" y="1536" type="line"/>
      <point x="621" y="-32" type="line"/>
      <point x="590" y="-115" type="line" smooth="yes"/>
      <point x="521" y="-285"/>
      <point x="417" y="-298"/>
      <point x="259" y="-253" type="curve"/>
      <point x="175" y="-534" type="line"/>
      <point x="224" y="-555"/>
      <point x="312" y="-573"/>
    </contour>
  </outline>
</glyph>
<glyph name="z" format="2">
  <advance width="1582"/>
  <unicode hex="007A"/>
  <guideline x="1254" y="594" angle="51.57190000000003"/>
  <guideline x="705" y="422" angle="90.0"/>
  <outline>
    <contour>
      <point x="166" y="0" type="line"/>
      <point x="1427" y="0" type="line"/>
      <point x="1427" y="300" type="line"/>
      <point x="647" y="300" type="line"/>
      <point x="647" y="313" type="line"/>
      <point x="1401" y="1289" type="line"/>
      <point x="1401" y="1536" type="line"/>
      <point x="192" y="1536" type="line"/>
      <point x="192" y="1236" type="line"/>
      <point x="958" y="1236" type="line"/>
      <point x="958" y="1223" type="line"/>
      <point x="166" y="230" type="line"/>
    </contour>
  </outline>
</glyph>
<glyph name="braceleft" format="2">
  <advance width="1108"/>
  <unicode hex="007B"/>
  <guideline x="516" y="1603" angle="0.0"/>
  <guideline x="518" y="-435" angle="0.0"/>
  <outline>
    <contour>
      <point x="93" y="828" type="line"/>
      <point x="636" y="828"/>
      <point x="742" y="992"/>
      <point x="742" y="1197" type="curve" smooth="yes"/>
      <point x="742" y="1525" type="line" smooth="yes"/>
      <point x="742" y="1732"/>
      <point x="798" y="1828"/>
      <point x="1033" y="1828" type="curve"/>
      <point x="1033" y="2106" type="line"/>
      <point x="633" y="2106"/>
      <point x="398" y="2005"/>
      <point x="398" y="1554" type="curve" smooth="yes"/>
      <point x="398" y="1299" type="line" smooth="yes"/>
      <point x="398" y="1089"/>
      <point x="320" y="1003"/>
      <point x="93" y="1003" type="curve"/>
    </contour>
    <contour>
      <point x="1033" y="-435" type="curve"/>
      <point x="1033" y="-158" type="line"/>
      <point x="798" y="-158"/>
      <point x="742" y="-62"/>
      <point x="742" y="146" type="curve" smooth="yes"/>
      <point x="742" y="474" type="line" smooth="yes"/>
      <point x="742" y="678"/>
      <point x="636" y="842"/>
      <point x="93" y="842" type="curve"/>
      <point x="93" y="667" type="line"/>
      <point x="320" y="667"/>
      <point x="398" y="581"/>
      <point x="398" y="371" type="curve" smooth="yes"/>
      <point x="398" y="117" type="line" smooth="yes"/>
      <point x="398" y="-334"/>
      <point x="633" y="-435"/>
    </contour>
    <contour>
      <point x="93" y="667" type="line"/>
      <point x="410" y="667" type="line"/>
      <point x="410" y="1003" type="line"/>
      <point x="93" y="1003" type="line"/>
    </contour>
  </outline>
</glyph>
<glyph name="asciitilde" format="2">
  <advance width="1894"/>
  <unicode hex="007E"/>
  <guideline x="720" y="820" angle="320.0"/>
  <outline>
    <contour>
      <point x="221" y="571" type="curve"/>
      <point x="510" y="571" type="line"/>
      <point x="507" y="740"/>
      <point x="580" y="807"/>
      <point x="678" y="807" type="curve" smooth="yes"/>
      <point x="748" y="807"/>
      <point x="787" y="776"/>
      <point x="875" y="699" type="curve" smooth="yes"/>
      <point x="1017" y="575"/>
      <point x="1120" y="522"/>
      <point x="1254" y="522" type="curve" smooth="yes"/>
      <point x="1498" y="522"/>
      <point x="1684" y="703"/>
      <point x="1674" y="1066" type="curve"/>
      <point x="1384" y="1066" type="line"/>
      <point x="1388" y="907"/>
      <point x="1317" y="830"/>
      <point x="1216" y="830" type="curve" smooth="yes"/>
      <point x="1145" y="830"/>
      <point x="1101" y="865"/>
      <point x="1018" y="938" type="curve" smooth="yes"/>
      <point x="871" y="1067"/>
      <point x="770" y="1116"/>
      <point x="641" y="1116" type="curve" smooth="yes"/>
      <point x="392" y="1116"/>
      <point x="210" y="934"/>
    </contour>
  </outline>
</glyph>
<glyph name="cent" format="2">
  <advance width="1626"/>
  <unicode hex="00A2"/>
  <outline>
    <contour>
      <point x="760" y="-256" type="line"/>
      <point x="938" y="-256" type="line"/>
      <point x="938" y="1780" type="line"/>
      <point x="760" y="1780" type="line"/>
    </contour>
    <component base="c"/>
  </outline>
</glyph>
<glyph name="sterling" format="2">
  <advance width="1853"/>
  <unicode hex="00A3"/>
  <outline>
    <contour>
      <point x="1638" y="0" type="line"/>
      <point x="1638" y="311" type="line"/>
      <point x="194" y="311" type="line"/>
      <point x="194" y="0" type="line"/>
    </contour>
    <contour>
      <point x="1230" y="809" type="line"/>
      <point x="1230" y="1112" type="line"/>
      <point x="187" y="1112" type="line"/>
      <point x="187" y="809" type="line"/>
    </contour>
    <contour>
      <point x="756" y="1455" type="line" smooth="yes"/>
      <point x="755" y="1671"/>
      <point x="886" y="1771"/>
      <point x="1034" y="1771" type="curve" smooth="yes"/>
      <point x="1179" y="1771"/>
      <point x="1312" y="1690"/>
      <point x="1299" y="1508" type="curve"/>
      <point x="1646" y="1479" type="line"/>
      <point x="1682" y="1810"/>
      <point x="1430" y="2076"/>
      <point x="1025" y="2076" type="curve" smooth="yes"/>
      <point x="672" y="2076"/>
      <point x="379" y="1861"/>
      <point x="394" y="1455" type="curve" smooth="yes"/>
      <point x="424" y="582" type="line" smooth="yes"/>
      <point x="427" y="472"/>
      <point x="406" y="324"/>
      <point x="307" y="311" type="curve"/>
      <point x="571" y="210" type="line"/>
      <point x="736" y="293"/>
      <point x="795" y="421"/>
      <point x="788" y="598" type="curve" smooth="yes"/>
    </contour>
  </outline>
</glyph>
<glyph name="currency" format="2">
  <advance width="2114"/>
  <unicode hex="00A4"/>
  <outline>
    <contour>
      <point x="1055" y="-28" type="curve" smooth="yes"/>
      <point x="1513" y="-28"/>
      <point x="1889" y="348"/>
      <point x="1890" y="836" type="curve" smooth="yes"/>
      <point x="1889" y="1324"/>
      <point x="1513" y="1696"/>
      <point x="1055" y="1696" type="curve" smooth="yes"/>
      <point x="594" y="1696"/>
      <point x="221" y="1324"/>
      <point x="222" y="836" type="curve"/>
      <point x="221" y="348"/>
      <point x="594" y="-28"/>
    </contour>
    <contour>
      <point x="1055" y="219" type="curve" smooth="yes"/>
      <point x="726" y="219"/>
      <point x="465" y="494"/>
      <point x="466" y="836" type="curve"/>
      <point x="465" y="1182"/>
      <point x="726" y="1453"/>
      <point x="1055" y="1453" type="curve" smooth="yes"/>
      <point x="1379" y="1453"/>
      <point x="1642" y="1182"/>
      <point x="1642" y="836" type="curve" smooth="yes"/>
      <point x="1642" y="494"/>
      <point x="1379" y="219"/>
    </contour>
    <contour>
      <point x="1654" y="1262" type="line"/>
      <point x="1939" y="1546" type="line"/>
      <point x="1754" y="1734" type="line"/>
      <point x="1474" y="1450" type="line"/>
    </contour>
    <contour>
      <point x="1754" y="-30" type="line"/>
      <point x="1939" y="158" type="line"/>
      <point x="1654" y="438" type="line"/>
      <point x="1474" y="254" type="line"/>
    </contour>
    <contour>
      <point x="361" y="-30" type="line"/>
      <point x="646" y="254" type="line"/>
      <point x="461" y="438" type="line"/>
      <point x="180" y="158" type="line"/>
    </contour>
    <contour>
      <point x="461" y="1262" type="line"/>
      <point x="646" y="1450" type="line"/>
      <point x="361" y="1734" type="line"/>
      <point x="180" y="1546" type="line"/>
    </contour>
  </outline>
</glyph>
<glyph name="yen" format="2">
  <advance width="1589"/>
  <unicode hex="00A5"/>
  <note>
line up with uni20BD
</note>
  <outline>
    <contour>
      <point x="428" y="2048" type="line"/>
      <point x="40" y="2048" type="line"/>
      <point x="626" y="806" type="line"/>
      <point x="885" y="980" type="line"/>
    </contour>
    <contour>
      <point x="707" y="986" type="line"/>
      <point x="962" y="806" type="line"/>
      <point x="1549" y="2048" type="line"/>
      <point x="1161" y="2048" type="line"/>
    </contour>
    <contour>
      <point x="974" y="1078" type="line"/>
      <point x="606" y="1078" type="line"/>
      <point x="606" y="0" type="line"/>
      <point x="974" y="0" type="line"/>
    </contour>
    <contour>
      <point x="1394" y="1044" type="line"/>
      <point x="166" y="1044" type="line"/>
      <point x="166" y="819" type="line"/>
      <point x="1394" y="819" type="line"/>
    </contour>
    <contour>
      <point x="1394" y="648" type="line"/>
      <point x="166" y="648" type="line"/>
      <point x="166" y="423" type="line"/>
      <point x="1394" y="423" type="line"/>
    </contour>
  </outline>
</glyph>
<glyph name="brokenbar" format="2">
  <advance width="897"/>
  <unicode hex="00A6"/>
  <outline>
    <contour>
      <point x="285" y="565" type="line"/>
      <point x="285" y="-384" type="line"/>
      <point x="612" y="-384" type="line"/>
      <point x="612" y="565" type="line"/>
    </contour>
    <contour>
      <point x="612" y="2048" type="line"/>
      <point x="285" y="2048" type="line"/>
      <point x="285" y="1103" type="line"/>
      <point x="612" y="1103" type="line"/>
    </contour>
  </outline>
</glyph>
<glyph name="section" format="2">
  <advance width="1630"/>
  <unicode hex="00A7"/>
  <note>
composed of "S" scaled down with RMX Tuner in temporary duplicate file
</note>
  <outline>
    <contour>
      <point x="1360" y="1548" type="line"/>
      <point x="1360" y="1854"/>
      <point x="1140" y="2076"/>
      <point x="804" y="2076" type="curve" smooth="yes"/>
      <point x="484" y="2076"/>
      <point x="258" y="1875"/>
      <point x="258" y="1602" type="curve" smooth="yes"/>
      <point x="258" y="1456"/>
      <point x="322" y="1342"/>
      <point x="418" y="1249" type="curve"/>
      <point x="418" y="1244" type="line"/>
      <point x="295" y="1209"/>
      <point x="164" y="1096"/>
      <point x="155" y="936" type="curve" smooth="yes"/>
      <point x="139" y="658"/>
      <point x="357" y="530"/>
      <point x="465" y="478" type="curve" smooth="yes"/>
      <point x="850" y="287" type="line" smooth="yes"/>
      <point x="931" y="244"/>
      <point x="1044" y="182"/>
      <point x="1045" y="62" type="curve" smooth="yes"/>
      <point x="1044" y="-52"/>
      <point x="930" y="-103"/>
      <point x="813" y="-105" type="curve" smooth="yes"/>
      <point x="648" y="-110"/>
      <point x="540" y="-26"/>
      <point x="541" y="124" type="curve"/>
      <point x="213" y="124" type="line"/>
      <point x="212" y="-206"/>
      <point x="458" y="-414"/>
      <point x="810" y="-414" type="curve" smooth="yes"/>
      <point x="1121" y="-414"/>
      <point x="1373" y="-246"/>
      <point x="1374" y="62" type="curve" smooth="yes"/>
      <point x="1373" y="206"/>
      <point x="1320" y="325"/>
      <point x="1213" y="418" type="curve"/>
      <point x="1216" y="422" type="line"/>
      <point x="1326" y="456"/>
      <point x="1467" y="567"/>
      <point x="1477" y="728" type="curve" smooth="yes"/>
      <point x="1494" y="1005"/>
      <point x="1274" y="1130"/>
      <point x="1169" y="1182" type="curve" smooth="yes"/>
      <point x="784" y="1377" type="line" smooth="yes"/>
      <point x="699" y="1417"/>
      <point x="585" y="1498"/>
      <point x="586" y="1602" type="curve" smooth="yes"/>
      <point x="585" y="1698"/>
      <point x="673" y="1768"/>
      <point x="804" y="1768" type="curve" smooth="yes"/>
      <point x="960" y="1768"/>
      <point x="1034" y="1674"/>
      <point x="1034" y="1548" type="curve"/>
    </contour>
    <contour>
      <point x="1170" y="714" type="curve" smooth="yes"/>
      <point x="1164" y="602"/>
      <point x="1048" y="534"/>
      <point x="979" y="570" type="curve"/>
      <point x="633" y="741" type="line" smooth="yes"/>
      <point x="524" y="793"/>
      <point x="453" y="861"/>
      <point x="460" y="950" type="curve" smooth="yes"/>
      <point x="466" y="1062"/>
      <point x="569" y="1137"/>
      <point x="646" y="1098" type="curve"/>
      <point x="1000" y="921" type="line" smooth="yes"/>
      <point x="1108" y="870"/>
      <point x="1176" y="798"/>
    </contour>
  </outline>
</glyph>
<glyph name="dieresis" format="2">
  <advance width="1558"/>
  <unicode hex="00A8"/>
  <guideline x="486" y="1947" angle="90.0"/>
  <outline>
    <contour>
      <point x="480" y="1762" type="curve" smooth="yes"/>
      <point x="588" y="1762"/>
      <point x="672" y="1849"/>
      <point x="672" y="1950" type="curve" smooth="yes"/>
      <point x="672" y="2057"/>
      <point x="588" y="2139"/>
      <point x="480" y="2139" type="curve" smooth="yes"/>
      <point x="375" y="2139"/>
      <point x="286" y="2057"/>
      <point x="286" y="1950" type="curve" smooth="yes"/>
      <point x="286" y="1849"/>
      <point x="375" y="1762"/>
    </contour>
    <contour>
      <point x="1080" y="1762" type="curve" smooth="yes"/>
      <point x="1188" y="1762"/>
      <point x="1272" y="1849"/>
      <point x="1272" y="1950" type="curve" smooth="yes"/>
      <point x="1272" y="2057"/>
      <point x="1188" y="2139"/>
      <point x="1080" y="2139" type="curve" smooth="yes"/>
      <point x="975" y="2139"/>
      <point x="886" y="2057"/>
      <point x="886" y="1950" type="curve" smooth="yes"/>
      <point x="886" y="1849"/>
      <point x="975" y="1762"/>
    </contour>
  </outline>
</glyph>
<glyph name="copyright" format="2">
  <advance width="2374"/>
  <unicode hex="00A9"/>
  <outline>
    <contour>
      <point x="1420" y="820" type="line"/>
      <point x="1420" y="640"/>
      <point x="1335" y="572"/>
      <point x="1170" y="572" type="curve" smooth="yes"/>
      <point x="991" y="572"/>
      <point x="899" y="716"/>
      <point x="898" y="920" type="curve" smooth="yes"/>
      <point x="898" y="1084" type="line" smooth="yes"/>
      <point x="899" y="1288"/>
      <point x="991" y="1432"/>
      <point x="1170" y="1432" type="curve" smooth="yes"/>
      <point x="1335" y="1432"/>
      <point x="1423" y="1360"/>
      <point x="1422" y="1184" type="curve"/>
      <point x="1641" y="1184" type="line"/>
      <point x="1641" y="1472"/>
      <point x="1456" y="1616"/>
      <point x="1170" y="1616" type="curve" smooth="yes"/>
      <point x="871" y="1616"/>
      <point x="680" y="1400"/>
      <point x="680" y="1084" type="curve"/>
      <point x="680" y="920" type="line"/>
      <point x="680" y="604"/>
      <point x="871" y="388"/>
      <point x="1170" y="388" type="curve" smooth="yes"/>
      <point x="1456" y="388"/>
      <point x="1641" y="532"/>
      <point x="1641" y="820" type="curve"/>
    </contour>
    <contour>
      <point x="363" y="1004" type="curve"/>
      <point x="364" y="1488"/>
      <point x="736" y="1860"/>
      <point x="1187" y="1860" type="curve" smooth="yes"/>
      <point x="1644" y="1860"/>
      <point x="2012" y="1488"/>
      <point x="2011" y="1004" type="curve" smooth="yes"/>
      <point x="2012" y="516"/>
      <point x="1644" y="144"/>
      <point x="1187" y="144" type="curve" smooth="yes"/>
      <point x="736" y="144"/>
      <point x="364" y="516"/>
    </contour>
    <contour>
      <point x="192" y="1004" type="curve"/>
      <point x="192" y="420"/>
      <point x="642" y="-28"/>
      <point x="1187" y="-28" type="curve" smooth="yes"/>
      <point x="1737" y="-28"/>
      <point x="2183" y="420"/>
      <point x="2182" y="1004" type="curve" smooth="yes"/>
      <point x="2183" y="1584"/>
      <point x="1737" y="2032"/>
      <point x="1187" y="2032" type="curve" smooth="yes"/>
      <point x="642" y="2032"/>
      <point x="192" y="1584"/>
    </contour>
  </outline>
</glyph>
<glyph name="ordfeminine" format="2">
  <advance width="1336"/>
  <unicode hex="00AA"/>
  <outline>
    <contour>
      <point x="838" y="1184" type="line"/>
      <point x="838" y="1109"/>
      <point x="852" y="1033"/>
      <point x="872" y="970" type="curve"/>
      <point x="1121" y="970" type="line"/>
      <point x="1090" y="1055"/>
      <point x="1083" y="1138"/>
      <point x="1083" y="1220" type="curve" smooth="yes"/>
      <point x="1083" y="1652" type="line"/>
      <point x="1083" y="1904"/>
      <point x="920" y="2032"/>
      <point x="675" y="2032" type="curve" smooth="yes"/>
      <point x="412" y="2032"/>
      <point x="239" y="1896"/>
      <point x="239" y="1710" type="curve"/>
      <point x="482" y="1692" type="line"/>
      <point x="482" y="1780"/>
      <point x="554" y="1828"/>
      <point x="675" y="1828" type="curve" smooth="yes"/>
      <point x="786" y="1828"/>
      <point x="838" y="1765"/>
      <point x="838" y="1652" type="curve"/>
    </contour>
    <contour>
      <point x="900" y="1582" type="line"/>
      <point x="697" y="1582" type="line"/>
      <point x="374" y="1582"/>
      <point x="217" y="1468"/>
      <point x="217" y="1264" type="curve" smooth="yes"/>
      <point x="217" y="1076"/>
      <point x="342" y="952"/>
      <point x="566" y="952" type="curve" smooth="yes"/>
      <point x="757" y="952"/>
      <point x="862" y="1057"/>
      <point x="904" y="1146" type="curve"/>
      <point x="880" y="1308" type="line"/>
      <point x="880" y="1240"/>
      <point x="741" y="1150"/>
      <point x="627" y="1150" type="curve" smooth="yes"/>
      <point x="514" y="1150"/>
      <point x="464" y="1196"/>
      <point x="464" y="1270" type="curve" smooth="yes"/>
      <point x="464" y="1350"/>
      <point x="535" y="1422"/>
      <point x="697" y="1422" type="curve"/>
      <point x="900" y="1422" type="line"/>
    </contour>
  </outline>
</glyph>
<glyph name="registered" format="2">
  <advance width="1875"/>
  <unicode hex="00AE"/>
  <note>
Stroke L: 32
Stroke R: 96
Stroke B: 112
</note>
  <outline>
    <contour>
      <point x="651" y="916" type="line"/>
      <point x="833" y="916" type="line"/>
      <point x="833" y="1520" type="line"/>
      <point x="966" y="1520" type="line" smooth="yes"/>
      <point x="1014" y="1520"/>
      <point x="1068" y="1491"/>
      <point x="1068" y="1412" type="curve" smooth="yes"/>
      <point x="1068" y="1336"/>
      <point x="1015" y="1297"/>
      <point x="963" y="1297" type="curve" smooth="yes"/>
      <point x="752" y="1297" type="line"/>
      <point x="752" y="1164" type="line"/>
      <point x="1007" y="1164" type="line" smooth="yes"/>
      <point x="1136" y="1164"/>
      <point x="1262" y="1254"/>
      <point x="1262" y="1412" type="curve" smooth="yes"/>
      <point x="1262" y="1569"/>
      <point x="1140" y="1654"/>
      <point x="1016" y="1654" type="curve" smooth="yes"/>
      <point x="651" y="1654" type="line"/>
    </contour>
    <contour>
      <point x="1114" y="1259" type="line"/>
      <point x="923" y="1259" type="line"/>
      <point x="1088" y="916" type="line"/>
      <point x="1288" y="916" type="line"/>
    </contour>
    <contour>
      <point x="938" y="476" type="curve" smooth="yes"/>
      <point x="1380" y="476"/>
      <point x="1738" y="834"/>
      <point x="1738" y="1276" type="curve" smooth="yes"/>
      <point x="1738" y="1718"/>
      <point x="1380" y="2076"/>
      <point x="938" y="2076" type="curve" smooth="yes"/>
      <point x="496" y="2076"/>
      <point x="138" y="1718"/>
      <point x="138" y="1276" type="curve" smooth="yes"/>
      <point x="138" y="834"/>
      <point x="496" y="476"/>
    </contour>
    <contour>
      <point x="938" y="681" type="curve" smooth="yes"/>
      <point x="609" y="681"/>
      <point x="342" y="947"/>
      <point x="342" y="1276" type="curve" smooth="yes"/>
      <point x="342" y="1605"/>
      <point x="609" y="1871"/>
      <point x="938" y="1871" type="curve" smooth="yes"/>
      <point x="1266" y="1871"/>
      <point x="1533" y="1605"/>
      <point x="1533" y="1276" type="curve" smooth="yes"/>
      <point x="1533" y="947"/>
      <point x="1267" y="681"/>
    </contour>
  </outline>
</glyph>
<glyph name="degree" format="2">
  <advance width="1290"/>
  <unicode hex="00B0"/>
  <outline>
    <contour>
      <point x="645" y="1101" type="curve" smooth="yes"/>
      <point x="910" y="1101"/>
      <point x="1126" y="1316"/>
      <point x="1126" y="1582" type="curve" smooth="yes"/>
      <point x="1126" y="1847"/>
      <point x="910" y="2062"/>
      <point x="645" y="2062" type="curve" smooth="yes"/>
      <point x="379" y="2062"/>
      <point x="164" y="1847"/>
      <point x="164" y="1582" type="curve" smooth="yes"/>
      <point x="164" y="1316"/>
      <point x="379" y="1101"/>
    </contour>
    <contour>
      <point x="645" y="1357" type="curve" smooth="yes"/>
      <point x="520" y="1357"/>
      <point x="420" y="1457"/>
      <point x="420" y="1582" type="curve" smooth="yes"/>
      <point x="420" y="1706"/>
      <point x="520" y="1806"/>
      <point x="645" y="1806" type="curve" smooth="yes"/>
      <point x="769" y="1806"/>
      <point x="870" y="1706"/>
      <point x="870" y="1582" type="curve" smooth="yes"/>
      <point x="870" y="1457"/>
      <point x="769" y="1357"/>
    </contour>
  </outline>
</glyph>
<glyph name="plusminus" format="2">
  <advance width="1894"/>
  <unicode hex="00B1"/>
  <outline>
    <contour>
      <point x="263" y="83" type="line"/>
      <point x="1631" y="83" type="line"/>
      <point x="1631" y="384" type="line"/>
      <point x="263" y="384" type="line"/>
    </contour>
    <contour>
      <point x="263" y="907" type="line"/>
      <point x="1631" y="907" type="line"/>
      <point x="1631" y="1202" type="line"/>
      <point x="263" y="1202" type="line"/>
    </contour>
    <contour>
      <point x="790" y="541" type="line"/>
      <point x="1104" y="541" type="line"/>
      <point x="1104" y="1568" type="line"/>
      <point x="790" y="1568" type="line"/>
    </contour>
  </outline>
</glyph>
<glyph name="two.sups" format="2">
  <advance width="1190"/>
  <unicode hex="00B2"/>
  <outline>
    <contour>
      <point x="129" y="1024" type="line"/>
      <point x="1088" y="1024" type="line"/>
      <point x="1088" y="1250" type="line"/>
      <point x="527" y="1250" type="line"/>
      <point x="527" y="1259" type="line"/>
      <point x="733" y="1423" type="line" smooth="yes"/>
      <point x="964" y="1593"/>
      <point x="1066" y="1716"/>
      <point x="1066" y="1888" type="curve" smooth="yes"/>
      <point x="1066" y="2102"/>
      <point x="878" y="2268"/>
      <point x="592" y="2268" type="curve" smooth="yes"/>
      <point x="310" y="2268"/>
      <point x="110" y="2114"/>
      <point x="110" y="1867" type="curve"/>
      <point x="375" y="1867" type="line"/>
      <point x="375" y="1982"/>
      <point x="460" y="2050"/>
      <point x="588" y="2050" type="curve" smooth="yes"/>
      <point x="708" y="2050"/>
      <point x="802" y="1988"/>
      <point x="802" y="1884" type="curve" smooth="yes"/>
      <point x="802" y="1788"/>
      <point x="730" y="1723"/>
      <point x="610" y="1622" type="curve" smooth="yes"/>
      <point x="129" y="1223" type="line"/>
    </contour>
  </outline>
</glyph>
<glyph name="three.sups" format="2">
  <advance width="1234"/>
  <unicode hex="00B3"/>
  <outline>
    <contour>
      <point x="614" y="1008" type="curve" smooth="yes"/>
      <point x="916" y="1008"/>
      <point x="1134" y="1160"/>
      <point x="1134" y="1372" type="curve" smooth="yes"/>
      <point x="1134" y="1525"/>
      <point x="1023" y="1633"/>
      <point x="829" y="1654" type="curve"/>
      <point x="829" y="1664" type="line"/>
      <point x="970" y="1685"/>
      <point x="1083" y="1776"/>
      <point x="1083" y="1920" type="curve" smooth="yes"/>
      <point x="1083" y="2116"/>
      <point x="897" y="2268"/>
      <point x="619" y="2268" type="curve" smooth="yes"/>
      <point x="346" y="2268"/>
      <point x="133" y="2121"/>
      <point x="129" y="1906" type="curve"/>
      <point x="394" y="1906" type="line"/>
      <point x="398" y="1992"/>
      <point x="496" y="2050"/>
      <point x="618" y="2050" type="curve" smooth="yes"/>
      <point x="734" y="2050"/>
      <point x="814" y="1990"/>
      <point x="814" y="1903" type="curve" smooth="yes"/>
      <point x="814" y="1814"/>
      <point x="721" y="1753"/>
      <point x="589" y="1753" type="curve" smooth="yes"/>
      <point x="462" y="1753" type="line"/>
      <point x="462" y="1548" type="line"/>
      <point x="589" y="1548" type="line" smooth="yes"/>
      <point x="748" y="1548"/>
      <point x="846" y="1482"/>
      <point x="846" y="1391" type="curve" smooth="yes"/>
      <point x="846" y="1297"/>
      <point x="746" y="1238"/>
      <point x="614" y="1238" type="curve" smooth="yes"/>
      <point x="486" y="1238"/>
      <point x="389" y="1290"/>
      <point x="383" y="1376" type="curve"/>
      <point x="101" y="1376" type="line"/>
      <point x="106" y="1158"/>
      <point x="320" y="1008"/>
    </contour>
  </outline>
</glyph>
<glyph name="micro" format="2">
  <advance width="1835"/>
  <unicode hex="00B5"/>
  <outline>
    <contour>
      <point x="186" y="-563" type="line"/>
      <point x="537" y="-563" type="line"/>
      <point x="537" y="222" type="line"/>
      <point x="549" y="222" type="line"/>
      <point x="618" y="79"/>
      <point x="758" y="-1"/>
      <point x="918" y="-1" type="curve" smooth="yes"/>
      <point x="1077" y="-1"/>
      <point x="1218" y="79"/>
      <point x="1286" y="222" type="curve"/>
      <point x="1298" y="222" type="line"/>
      <point x="1298" y="0" type="line"/>
      <point x="1650" y="0" type="line"/>
      <point x="1650" y="1536" type="line"/>
      <point x="1287" y="1536" type="line"/>
      <point x="1287" y="646" type="line" smooth="yes"/>
      <point x="1288" y="440"/>
      <point x="1139" y="296"/>
      <point x="918" y="296" type="curve" smooth="yes"/>
      <point x="697" y="296"/>
      <point x="548" y="438"/>
      <point x="548" y="646" type="curve" smooth="yes"/>
      <point x="548" y="1536" type="line"/>
      <point x="186" y="1536" type="line"/>
    </contour>
  </outline>
</glyph>
<glyph name="paragraph" format="2">
  <advance width="1707"/>
  <unicode hex="00B6"/>
  <note>
aka PILCROW SIGN
</note>
  <outline>
    <contour>
      <point x="1381" y="1756" type="line"/>
      <point x="1381" y="2048" type="line"/>
      <point x="831" y="2048" type="line" smooth="yes"/>
      <point x="386" y="2048"/>
      <point x="142" y="1772"/>
      <point x="142" y="1404" type="curve" smooth="yes"/>
      <point x="142" y="1032"/>
      <point x="386" y="760"/>
      <point x="831" y="760" type="curve" smooth="yes"/>
      <point x="949" y="760" type="line"/>
      <point x="949" y="1756" type="line"/>
    </contour>
    <contour>
      <point x="1197" y="0" type="line"/>
      <point x="1506" y="0" type="line"/>
      <point x="1506" y="2048" type="line"/>
      <point x="1197" y="2048" type="line"/>
    </contour>
  </outline>
</glyph>
<glyph name="cedilla" format="2">
  <advance width="954"/>
  <unicode hex="00B8"/>
  <outline>
    <contour>
      <point x="381" y="8" type="line"/>
      <point x="338" y="-193" type="line"/>
      <point x="480" y="-208"/>
      <point x="544" y="-242"/>
      <point x="542" y="-327" type="curve" smooth="yes"/>
      <point x="540" y="-415"/>
      <point x="443" y="-454"/>
      <point x="290" y="-454" type="curve"/>
      <point x="294" y="-632" type="line"/>
      <point x="610" y="-632"/>
      <point x="787" y="-507"/>
      <point x="786" y="-318" type="curve" smooth="yes"/>
      <point x="786" y="-172"/>
      <point x="686" y="-96"/>
      <point x="561" y="-77" type="curve"/>
      <point x="577" y="8" type="line"/>
    </contour>
  </outline>
</glyph>
<glyph name="one.sups" format="2">
  <advance width="878"/>
  <unicode hex="00B9"/>
  <outline>
    <contour>
      <point x="662" y="2252" type="line"/>
      <point x="398" y="2252" type="line"/>
      <point x="392" y="2171"/>
      <point x="278" y="2049"/>
      <point x="98" y="2048" type="curve"/>
      <point x="98" y="1828" type="line"/>
      <point x="254" y="1826"/>
      <point x="349" y="1875"/>
      <point x="378" y="1914" type="curve"/>
      <point x="390" y="1914" type="line"/>
      <point x="390" y="1024" type="line"/>
      <point x="662" y="1024" type="line"/>
    </contour>
  </outline>
</glyph>
<glyph name="ordmasculine" format="2">
  <advance width="1331"/>
  <unicode hex="00BA"/>
  <outline>
    <contour>
      <point x="180" y="1436" type="line"/>
      <point x="180" y="1152"/>
      <point x="367" y="950"/>
      <point x="670" y="950" type="curve" smooth="yes"/>
      <point x="968" y="950"/>
      <point x="1151" y="1152"/>
      <point x="1151" y="1436" type="curve"/>
      <point x="1151" y="1542" type="line"/>
      <point x="1151" y="1828"/>
      <point x="966" y="2032"/>
      <point x="666" y="2032" type="curve" smooth="yes"/>
      <point x="369" y="2032"/>
      <point x="180" y="1828"/>
      <point x="180" y="1542" type="curve"/>
    </contour>
    <contour>
      <point x="425" y="1542" type="line"/>
      <point x="425" y="1702"/>
      <point x="506" y="1828"/>
      <point x="666" y="1828" type="curve" smooth="yes"/>
      <point x="829" y="1828"/>
      <point x="906" y="1702"/>
      <point x="906" y="1542" type="curve"/>
      <point x="906" y="1436" type="line"/>
      <point x="906" y="1272"/>
      <point x="829" y="1152"/>
      <point x="670" y="1152" type="curve" smooth="yes"/>
      <point x="506" y="1152"/>
      <point x="425" y="1272"/>
      <point x="425" y="1436" type="curve"/>
    </contour>
  </outline>
</glyph>
<glyph name="AE" format="2">
  <advance width="2863"/>
  <unicode hex="00C6"/>
  <outline>
    <contour>
      <point x="69" y="0" type="line"/>
      <point x="477" y="0" type="line"/>
      <point x="1209" y="1690" type="line"/>
      <point x="1354" y="1690" type="line"/>
      <point x="1354" y="0" type="line"/>
      <point x="2694" y="0" type="line"/>
      <point x="2694" y="311" type="line"/>
      <point x="1725" y="311" type="line"/>
      <point x="1725" y="870" type="line"/>
      <point x="2617" y="870" type="line"/>
      <point x="2617" y="1181" type="line"/>
      <point x="1725" y="1181" type="line"/>
      <point x="1725" y="1737" type="line"/>
      <point x="2686" y="1737" type="line"/>
      <point x="2686" y="2048" type="line"/>
      <point x="984" y="2048" type="line"/>
    </contour>
    <contour>
      <point x="527" y="505" type="line"/>
      <point x="1559" y="505" type="line"/>
      <point x="1559" y="803" type="line"/>
      <point x="527" y="803" type="line"/>
    </contour>
  </outline>
</glyph>
<glyph name="multiply" format="2">
  <advance width="1894"/>
  <unicode hex="00D7"/>
  <guideline x="324" y="813" angle="0.0"/>
  <outline>
    <contour>
      <point x="1421" y="114" type="line"/>
      <point x="1646" y="339" type="line"/>
      <point x="474" y="1512" type="line"/>
      <point x="248" y="1285" type="line"/>
    </contour>
    <contour>
      <point x="474" y="114" type="line"/>
      <point x="1646" y="1285" type="line"/>
      <point x="1421" y="1512" type="line"/>
      <point x="248" y="339" type="line"/>
    </contour>
  </outline>
</glyph>
<glyph name="Oslash" format="2">
  <advance width="2182"/>
  <unicode hex="00D8"/>
  <outline>
    <contour>
      <point x="453" y="-94" type="line"/>
      <point x="1906" y="2014" type="line"/>
      <point x="1725" y="2138" type="line"/>
      <point x="272" y="30" type="line"/>
    </contour>
    <component base="O"/>
  </outline>
</glyph>
<glyph name="Thorn" format="2">
  <advance width="1851"/>
  <unicode hex="00DE"/>
  <outline>
    <contour>
      <point x="194" y="2048" type="line"/>
      <point x="194" y="0" type="line"/>
      <point x="565" y="0" type="line"/>
      <point x="565" y="2048" type="line"/>
    </contour>
    <contour>
      <point x="366" y="1656" type="line"/>
      <point x="366" y="1359" type="line"/>
      <point x="897" y="1359" type="line" smooth="yes"/>
      <point x="1155" y="1359"/>
      <point x="1278" y="1222"/>
      <point x="1278" y="1038" type="curve" smooth="yes"/>
      <point x="1278" y="856"/>
      <point x="1155" y="726"/>
      <point x="897" y="726" type="curve" smooth="yes"/>
      <point x="366" y="726" type="line"/>
      <point x="366" y="430" type="line"/>
      <point x="897" y="430" type="line" smooth="yes"/>
      <point x="1371" y="430"/>
      <point x="1632" y="694"/>
      <point x="1632" y="1042" type="curve" smooth="yes"/>
      <point x="1632" y="1390"/>
      <point x="1371" y="1656"/>
      <point x="897" y="1656" type="curve" smooth="yes"/>
    </contour>
  </outline>
</glyph>
<glyph name="germandbls" format="2">
  <advance width="1818"/>
  <unicode hex="00DF"/>
  <outline>
    <contour>
      <point x="202" y="0" type="line"/>
      <point x="564" y="0" type="line"/>
      <point x="564" y="1471" type="line" smooth="yes"/>
      <point x="564" y="1648"/>
      <point x="693" y="1765"/>
      <point x="879" y="1765" type="curve" smooth="yes"/>
      <point x="1070" y="1765"/>
      <point x="1186" y="1641"/>
      <point x="1186" y="1477" type="curve" smooth="yes"/>
      <point x="1185" y="1322"/>
      <point x="1081" y="1186"/>
      <point x="917" y="1186" type="curve" smooth="yes"/>
      <point x="803" y="1186" type="line"/>
      <point x="803" y="890" type="line"/>
      <point x="969" y="890" type="line" smooth="yes"/>
      <point x="1185" y="890"/>
      <point x="1321" y="769"/>
      <point x="1322" y="591" type="curve" smooth="yes"/>
      <point x="1322" y="421"/>
      <point x="1198" y="305"/>
      <point x="1006" y="305" type="curve" smooth="yes"/>
      <point x="795" y="305" type="line"/>
      <point x="795" y="0" type="line"/>
      <point x="1050" y="0" type="line" smooth="yes"/>
      <point x="1429" y="0"/>
      <point x="1686" y="217"/>
      <point x="1687" y="564" type="curve" smooth="yes"/>
      <point x="1688" y="851"/>
      <point x="1514" y="1051"/>
      <point x="1250" y="1072" type="curve"/>
      <point x="1250" y="1094" type="line"/>
      <point x="1436" y="1151"/>
      <point x="1554" y="1311"/>
      <point x="1554" y="1530" type="curve" smooth="yes"/>
      <point x="1554" y="1883"/>
      <point x="1248" y="2076"/>
      <point x="869" y="2076" type="curve" smooth="yes"/>
      <point x="468" y="2076"/>
      <point x="202" y="1863"/>
      <point x="202" y="1513" type="curve" smooth="yes"/>
    </contour>
  </outline>
</glyph>
<glyph name="ae" format="2">
  <advance width="2583"/>
  <unicode hex="00E6"/>
  <outline>
    <contour>
      <point x="1798" y="-30" type="curve" smooth="yes"/>
      <point x="2135" y="-30"/>
      <point x="2385" y="145"/>
      <point x="2449" y="412" type="curve"/>
      <point x="2110" y="450" type="line"/>
      <point x="2062" y="320"/>
      <point x="1942" y="252"/>
      <point x="1786" y="252" type="curve" smooth="yes"/>
      <point x="1550" y="252"/>
      <point x="1394" y="410"/>
      <point x="1394" y="678" type="curve" smooth="yes"/>
      <point x="1394" y="891" type="line" smooth="yes"/>
      <point x="1395" y="1095"/>
      <point x="1542" y="1274"/>
      <point x="1766" y="1274" type="curve" smooth="yes"/>
      <point x="1974" y="1274"/>
      <point x="2114" y="1122"/>
      <point x="2116" y="913" type="curve"/>
      <point x="1225" y="913" type="line"/>
      <point x="1225" y="669" type="line"/>
      <point x="2463" y="669" type="line"/>
      <point x="2463" y="780" type="line" smooth="yes"/>
      <point x="2463" y="1319"/>
      <point x="2139" y="1556"/>
      <point x="1762" y="1556" type="curve" smooth="yes"/>
      <point x="1504" y="1556"/>
      <point x="1315" y="1442"/>
      <point x="1198" y="1216" type="curve"/>
      <point x="1192" y="359" type="line"/>
      <point x="1262" y="117"/>
      <point x="1495" y="-30"/>
    </contour>
    <contour>
      <point x="722" y="235" type="curve" smooth="yes"/>
      <point x="571" y="235"/>
      <point x="463" y="304"/>
      <point x="463" y="437" type="curve" smooth="yes"/>
      <point x="463" y="576"/>
      <point x="584" y="634"/>
      <point x="746" y="657" type="curve" smooth="yes"/>
      <point x="841" y="670"/>
      <point x="1031" y="694"/>
      <point x="1078" y="732" type="curve"/>
      <point x="1078" y="551" type="line" smooth="yes"/>
      <point x="1078" y="380"/>
      <point x="940" y="235"/>
    </contour>
    <contour>
      <point x="644" y="-31" type="curve" smooth="yes"/>
      <point x="908" y="-31"/>
      <point x="1146" y="89"/>
      <point x="1221" y="261" type="curve"/>
      <point x="1246" y="261" type="line"/>
      <point x="1310" y="1273" type="line" smooth="yes"/>
      <point x="1228" y="1502"/>
      <point x="1000" y="1556"/>
      <point x="820" y="1556" type="curve" smooth="yes"/>
      <point x="490" y="1556"/>
      <point x="244" y="1412"/>
      <point x="164" y="1132" type="curve"/>
      <point x="502" y="1084" type="line"/>
      <point x="538" y="1190"/>
      <point x="641" y="1279"/>
      <point x="817" y="1279" type="curve" smooth="yes"/>
      <point x="985" y="1279"/>
      <point x="1077" y="1192"/>
      <point x="1077" y="1042" type="curve" smooth="yes"/>
      <point x="1077" y="1036" type="line" smooth="yes"/>
      <point x="1077" y="934"/>
      <point x="969" y="927"/>
      <point x="697" y="898" type="curve" smooth="yes"/>
      <point x="400" y="866"/>
      <point x="114" y="777"/>
      <point x="114" y="431" type="curve" smooth="yes"/>
      <point x="114" y="130"/>
      <point x="335" y="-31"/>
    </contour>
  </outline>
</glyph>
<glyph name="eth" format="2">
  <advance width="1618"/>
  <unicode hex="00F0"/>
  <outline>
    <contour>
      <point x="1294" y="1902" type="line"/>
      <point x="1194" y="2094" type="line"/>
      <point x="349" y="1671" type="line"/>
      <point x="449" y="1478" type="line"/>
    </contour>
    <contour>
      <point x="808" y="-32" type="curve" smooth="yes"/>
      <point x="1220" y="-32"/>
      <point x="1494" y="256"/>
      <point x="1494" y="752" type="curve" smooth="yes"/>
      <point x="1494" y="1450"/>
      <point x="1005" y="1944"/>
      <point x="547" y="2176" type="curve"/>
      <point x="387" y="1942" type="line"/>
      <point x="793" y="1726"/>
      <point x="964" y="1508"/>
      <point x="1084" y="1268" type="curve"/>
      <point x="1064" y="1268" type="line"/>
      <point x="986" y="1372"/>
      <point x="841" y="1442"/>
      <point x="666" y="1429" type="curve" smooth="yes"/>
      <point x="381" y="1398"/>
      <point x="123" y="1127"/>
      <point x="123" y="704" type="curve" smooth="yes"/>
      <point x="123" y="276"/>
      <point x="390" y="-32"/>
    </contour>
    <contour>
      <point x="819" y="260" type="curve" smooth="yes"/>
      <point x="588" y="260"/>
      <point x="473" y="437"/>
      <point x="473" y="706" type="curve" smooth="yes"/>
      <point x="473" y="984"/>
      <point x="598" y="1154"/>
      <point x="819" y="1154" type="curve" smooth="yes"/>
      <point x="1052" y="1154"/>
      <point x="1170" y="966"/>
      <point x="1170" y="699" type="curve" smooth="yes"/>
      <point x="1170" y="426"/>
      <point x="1044" y="260"/>
    </contour>
  </outline>
</glyph>
<glyph name="divide" format="2">
  <advance width="1894"/>
  <unicode hex="00F7"/>
  <guideline x="324" y="813" angle="0.0"/>
  <outline>
    <contour>
      <point x="1627" y="963" type="line"/>
      <point x="267" y="963" type="line"/>
      <point x="267" y="662" type="line"/>
      <point x="1627" y="662" type="line"/>
    </contour>
    <contour>
      <point x="947" y="50" type="curve" smooth="yes"/>
      <point x="1066" y="50"/>
      <point x="1165" y="148"/>
      <point x="1165" y="271" type="curve" smooth="yes"/>
      <point x="1165" y="390"/>
      <point x="1066" y="489"/>
      <point x="947" y="489" type="curve" smooth="yes"/>
      <point x="824" y="489"/>
      <point x="726" y="390"/>
      <point x="726" y="271" type="curve" smooth="yes"/>
      <point x="726" y="148"/>
      <point x="824" y="50"/>
    </contour>
    <contour>
      <point x="947" y="1137" type="curve" smooth="yes"/>
      <point x="1067" y="1137"/>
      <point x="1165" y="1236"/>
      <point x="1165" y="1358" type="curve" smooth="yes"/>
      <point x="1165" y="1478"/>
      <point x="1067" y="1576"/>
      <point x="947" y="1576" type="curve" smooth="yes"/>
      <point x="825" y="1576"/>
      <point x="726" y="1478"/>
      <point x="726" y="1358" type="curve" smooth="yes"/>
      <point x="726" y="1236"/>
      <point x="825" y="1137"/>
    </contour>
  </outline>
</glyph>
<glyph name="oslash" format="2">
  <advance width="1715"/>
  <unicode hex="00F8"/>
  <outline>
    <contour>
      <point x="399" y="-94" type="line"/>
      <point x="1494" y="1494" type="line"/>
      <point x="1311" y="1618" type="line"/>
      <point x="218" y="30" type="line"/>
    </contour>
    <component base="o" yOffset="-2"/>
  </outline>
</glyph>
<glyph name="thorn" format="2">
  <advance width="1722"/>
  <unicode hex="00FE"/>
  <outline>
    <contour>
      <point x="186" y="2048" type="line"/>
      <point x="186" y="-576" type="line"/>
      <point x="548" y="-576" type="line"/>
      <point x="548" y="298" type="line"/>
      <point x="429" y="762" type="line"/>
      <point x="548" y="1228" type="line"/>
      <point x="548" y="2048" type="line"/>
    </contour>
    <contour>
      <point x="402" y="1337" type="line"/>
      <point x="402" y="191" type="line"/>
      <point x="566" y="191" type="line"/>
      <point x="620" y="90"/>
      <point x="738" y="-27"/>
      <point x="966" y="-27" type="curve" smooth="yes"/>
      <point x="1325" y="-27"/>
      <point x="1600" y="258"/>
      <point x="1599" y="766" type="curve" smooth="yes"/>
      <point x="1600" y="1278"/>
      <point x="1317" y="1556"/>
      <point x="966" y="1556" type="curve" smooth="yes"/>
      <point x="730" y="1556"/>
      <point x="619" y="1434"/>
      <point x="566" y="1337" type="curve"/>
    </contour>
    <contour>
      <point x="1251" y="768" type="curve" smooth="yes"/>
      <point x="1252" y="474"/>
      <point x="1125" y="270"/>
      <point x="877" y="270" type="curve" smooth="yes"/>
      <point x="625" y="270"/>
      <point x="519" y="486"/>
      <point x="518" y="768" type="curve" smooth="yes"/>
      <point x="519" y="1051"/>
      <point x="626" y="1259"/>
      <point x="877" y="1259" type="curve" smooth="yes"/>
      <point x="1128" y="1259"/>
      <point x="1252" y="1060"/>
    </contour>
  </outline>
</glyph>
<glyph name="Hbar" format="2">
  <advance width="2250"/>
  <unicode hex="0126"/>
  <outline>
    <contour>
      <point x="2138" y="1667" type="line"/>
      <point x="112" y="1667" type="line"/>
      <point x="112" y="1437" type="line"/>
      <point x="2138" y="1437" type="line"/>
    </contour>
    <component base="H" xOffset="78"/>
  </outline>
</glyph>
<glyph name="idotless" format="2">
  <advance width="734"/>
  <unicode hex="0131"/>
  <outline>
    <contour>
      <point x="186" y="0" type="line"/>
      <point x="548" y="0" type="line"/>
      <point x="548" y="1536" type="line"/>
      <point x="186" y="1536" type="line"/>
    </contour>
  </outline>
</glyph>
<glyph name="kgreenlandic" format="2">
  <advance width="1851"/>
  <unicode hex="0138"/>
  <outline>
    <contour>
      <point x="588" y="1488" type="line"/>
      <point x="214" y="1488" type="line"/>
      <point x="214" y="0" type="line"/>
      <point x="588" y="0" type="line"/>
    </contour>
    <contour>
      <point x="1607" y="1488" type="line"/>
      <point x="1142" y="1488" type="line"/>
      <point x="708" y="914" type="line"/>
      <point x="460" y="914" type="line"/>
      <point x="509" y="567" type="line"/>
      <point x="893" y="567" type="line"/>
    </contour>
    <contour>
      <point x="1162" y="0" type="line"/>
      <point x="1637" y="0" type="line"/>
      <point x="1002" y="829" type="line"/>
      <point x="701" y="634" type="line"/>
    </contour>
  </outline>
</glyph>
<glyph name="lslash" format="2">
  <advance width="734"/>
  <unicode hex="0142"/>
  <outline>
    <contour>
      <point x="749" y="1315" type="line"/>
      <point x="-15" y="1058" type="line"/>
      <point x="-15" y="842" type="line"/>
      <point x="749" y="1099" type="line"/>
    </contour>
    <component base="l"/>
  </outline>
</glyph>
<glyph name="Eng" format="2">
  <advance width="2086"/>
  <unicode hex="014A"/>
  <outline>
    <contour>
      <point x="1555" y="0" type="line"/>
      <point x="1555" y="-112" type="line" smooth="yes"/>
      <point x="1555" y="-253"/>
      <point x="1459" y="-309"/>
      <point x="1322" y="-309" type="curve" smooth="yes"/>
      <point x="1278" y="-309"/>
      <point x="1232" y="-303"/>
      <point x="1198" y="-296" type="curve"/>
      <point x="1198" y="-578" type="line"/>
      <point x="1242" y="-592"/>
      <point x="1298" y="-597"/>
      <point x="1347" y="-597" type="curve" smooth="yes"/>
      <point x="1664" y="-597"/>
      <point x="1885" y="-457"/>
      <point x="1885" y="-110" type="curve" smooth="yes"/>
      <point x="1885" y="0" type="line"/>
    </contour>
    <component base="N"/>
  </outline>
</glyph>
<glyph name="eng" format="2">
  <advance width="1734"/>
  <unicode hex="014B"/>
  <outline>
    <contour>
      <point x="1172" y="0" type="line"/>
      <point x="1172" y="-111" type="line" smooth="yes"/>
      <point x="1172" y="-242"/>
      <point x="1094" y="-289"/>
      <point x="975" y="-289" type="curve" smooth="yes"/>
      <point x="933" y="-289"/>
      <point x="897" y="-283"/>
      <point x="866" y="-276" type="curve"/>
      <point x="846" y="-574" type="line"/>
      <point x="905" y="-587"/>
      <point x="970" y="-589"/>
      <point x="1035" y="-589" type="curve" smooth="yes"/>
      <point x="1328" y="-589"/>
      <point x="1534" y="-425"/>
      <point x="1534" y="-111" type="curve" smooth="yes"/>
      <point x="1534" y="0" type="line"/>
    </contour>
    <component base="n"/>
  </outline>
</glyph>
<glyph name="OE" format="2">
  <advance width="2806"/>
  <unicode hex="0152"/>
  <note>
!post:RemoveOverlap
</note>
  <outline>
    <contour>
      <point x="1072" y="0" type="curve" smooth="yes"/>
      <point x="1439" y="0" type="line"/>
      <point x="1439" y="311" type="line"/>
      <point x="1072" y="311" type="line" smooth="yes"/>
      <point x="746" y="311"/>
      <point x="520" y="554"/>
      <point x="520" y="1022" type="curve" smooth="yes"/>
      <point x="520" y="1492"/>
      <point x="746" y="1737"/>
      <point x="1072" y="1737" type="curve" smooth="yes"/>
      <point x="1439" y="1737" type="line"/>
      <point x="1439" y="2048" type="line"/>
      <point x="1072" y="2048" type="line" smooth="yes"/>
      <point x="536" y="2048"/>
      <point x="150" y="1672"/>
      <point x="150" y="1022" type="curve" smooth="yes"/>
      <point x="150" y="377"/>
      <point x="536" y="0"/>
    </contour>
    <component base="E" xOffset="1094"/>
  </outline>
</glyph>
<glyph name="tbar" format="2">
  <advance width="1070"/>
  <unicode hex="0167"/>
  <outline>
    <contour>
      <point x="70" y="794" type="line"/>
      <point x="953" y="794" type="line"/>
      <point x="953" y="990" type="line"/>
      <point x="70" y="990" type="line"/>
    </contour>
    <component base="t"/>
  </outline>
</glyph>
<glyph name="longs" format="2">
  <advance width="794"/>
  <unicode hex="017F"/>
  <outline>
    <contour>
      <point x="393" y="0" type="line"/>
      <point x="393" y="1622" type="line"/>
      <point x="392" y="1765"/>
      <point x="468" y="1843"/>
      <point x="611" y="1843" type="curve" smooth="yes"/>
      <point x="668" y="1843"/>
      <point x="704" y="1839"/>
      <point x="742" y="1831" type="curve"/>
      <point x="774" y="2112" type="line"/>
      <point x="702" y="2128"/>
      <point x="629" y="2140"/>
      <point x="559" y="2140" type="curve" smooth="yes"/>
      <point x="220" y="2140"/>
      <point x="19" y="1959"/>
      <point x="19" y="1622" type="curve"/>
      <point x="19" y="0" type="line"/>
    </contour>
  </outline>
</glyph>
<glyph name="Bhook" format="2">
  <advance width="2380"/>
  <unicode hex="0181"/>
  <outline>
    <contour>
      <point x="904" y="1738" type="line"/>
      <point x="904" y="2048" type="line"/>
      <point x="638" y="2048" type="line" smooth="yes"/>
      <point x="308" y="2048"/>
      <point x="111" y="1850"/>
      <point x="112" y="1560" type="curve" smooth="yes"/>
      <point x="112" y="1381" type="line"/>
      <point x="446" y="1381" type="line"/>
      <point x="446" y="1486" type="line" smooth="yes"/>
      <point x="446" y="1610"/>
      <point x="477" y="1738"/>
      <point x="641" y="1738" type="curve" smooth="yes"/>
    </contour>
    <component base="B" xOffset="529"/>
  </outline>
</glyph>
<glyph name="Tonesix" format="2">
  <advance width="2143"/>
  <unicode hex="0184"/>
  <outline>
    <contour>
      <point x="846" y="2048" type="line"/>
      <point x="33" y="2048" type="line"/>
      <point x="33" y="1737" type="line"/>
      <point x="846" y="1737" type="line"/>
    </contour>
    <contour>
      <point x="769" y="1257" type="line"/>
      <point x="769" y="955" type="line"/>
      <point x="1289" y="955" type="line"/>
      <point x="1537" y="955"/>
      <point x="1674" y="815"/>
      <point x="1674" y="642" type="curve"/>
      <point x="1674" y="462"/>
      <point x="1537" y="304"/>
      <point x="1289" y="304" type="curve"/>
      <point x="894" y="304" type="line"/>
      <point x="894" y="2048" type="line"/>
      <point x="522" y="2048" type="line"/>
      <point x="522" y="0" type="line"/>
      <point x="1289" y="0" type="line"/>
      <point x="1759" y="0"/>
      <point x="2041" y="261"/>
      <point x="2041" y="638" type="curve"/>
      <point x="2041" y="1014"/>
      <point x="1759" y="1257"/>
      <point x="1289" y="1257" type="curve"/>
    </contour>
  </outline>
</glyph>
<glyph name="tonesix" format="2">
  <advance width="1846"/>
  <unicode hex="0185"/>
  <outline>
    <contour>
      <point x="357" y="2112" type="line"/>
      <point x="107" y="1861" type="line"/>
      <point x="107" y="1688" type="line"/>
      <point x="357" y="1440" type="line"/>
      <point x="426" y="1440" type="line"/>
      <point x="426" y="2112" type="line"/>
    </contour>
    <contour>
      <point x="578" y="1337" type="line"/>
      <point x="578" y="191" type="line"/>
      <point x="742" y="191" type="line"/>
      <point x="793" y="91"/>
      <point x="907" y="-27"/>
      <point x="1142" y="-27" type="curve" smooth="yes"/>
      <point x="1499" y="-27"/>
      <point x="1774" y="258"/>
      <point x="1774" y="766" type="curve" smooth="yes"/>
      <point x="1774" y="1278"/>
      <point x="1491" y="1556"/>
      <point x="1139" y="1556" type="curve" smooth="yes"/>
      <point x="915" y="1556"/>
      <point x="794" y="1439"/>
      <point x="742" y="1337" type="curve"/>
    </contour>
    <contour>
      <point x="1426" y="768" type="curve" smooth="yes"/>
      <point x="1426" y="475"/>
      <point x="1299" y="270"/>
      <point x="1052" y="270" type="curve" smooth="yes"/>
      <point x="799" y="270"/>
      <point x="693" y="486"/>
      <point x="694" y="768" type="curve" smooth="yes"/>
      <point x="693" y="1050"/>
      <point x="798" y="1259"/>
      <point x="1052" y="1259" type="curve" smooth="yes"/>
      <point x="1302" y="1259"/>
      <point x="1426" y="1058"/>
    </contour>
    <contour>
      <point x="361" y="2048" type="line"/>
      <point x="361" y="0" type="line"/>
      <point x="717" y="0" type="line"/>
      <point x="717" y="298" type="line"/>
      <point x="594" y="762" type="line"/>
      <point x="723" y="1228" type="line"/>
      <point x="723" y="2048" type="line"/>
    </contour>
  </outline>
</glyph>
<glyph name="Oopen" format="2">
  <advance width="2094"/>
  <unicode hex="0186"/>
  <outline>
    <contour>
      <point x="1006" y="-28" type="curve" smooth="yes"/>
      <point x="1546" y="-28"/>
      <point x="1944" y="363"/>
      <point x="1944" y="1024" type="curve"/>
      <point x="1944" y="1686"/>
      <point x="1542" y="2076"/>
      <point x="1006" y="2076" type="curve" smooth="yes"/>
      <point x="553" y="2076"/>
      <point x="202" y="1812"/>
      <point x="139" y="1357" type="curve"/>
      <point x="514" y="1357" type="line"/>
      <point x="556" y="1602"/>
      <point x="750" y="1743"/>
      <point x="1000" y="1743" type="curve" smooth="yes"/>
      <point x="1335" y="1743"/>
      <point x="1571" y="1486"/>
      <point x="1571" y="1024" type="curve"/>
      <point x="1571" y="554"/>
      <point x="1334" y="305"/>
      <point x="1002" y="305" type="curve" smooth="yes"/>
      <point x="757" y="305"/>
      <point x="561" y="439"/>
      <point x="514" y="680" type="curve"/>
      <point x="139" y="678" type="line"/>
      <point x="196" y="287"/>
      <point x="519" y="-28"/>
    </contour>
  </outline>
</glyph>
<glyph name="Chook" format="2">
  <advance width="2297"/>
  <unicode hex="0187"/>
  <outline>
    <contour>
      <point x="1955" y="1357" type="line"/>
      <point x="1955" y="1557" type="line" smooth="yes"/>
      <point x="1955" y="1739"/>
      <point x="2086" y="1797"/>
      <point x="2214" y="1797" type="curve"/>
      <point x="2246" y="1797"/>
      <point x="2293" y="1793"/>
      <point x="2321" y="1790" type="curve"/>
      <point x="2321" y="2086" type="line"/>
      <point x="2261" y="2098"/>
      <point x="2202" y="2098"/>
      <point x="2140" y="2098" type="curve" smooth="yes"/>
      <point x="1847" y="2098"/>
      <point x="1599" y="1920"/>
      <point x="1599" y="1594" type="curve" smooth="yes"/>
      <point x="1599" y="1357" type="line"/>
    </contour>
    <component base="C"/>
  </outline>
</glyph>
<glyph name="chook" format="2">
  <advance width="1781"/>
  <unicode hex="0188"/>
  <outline>
    <contour>
      <point x="1518" y="1004" type="line"/>
      <point x="1518" y="1225" type="line" smooth="yes"/>
      <point x="1518" y="1372"/>
      <point x="1590" y="1423"/>
      <point x="1713" y="1423" type="curve" smooth="yes"/>
      <point x="1748" y="1423"/>
      <point x="1779" y="1418"/>
      <point x="1808" y="1414" type="curve"/>
      <point x="1808" y="1666" type="line"/>
      <point x="1756" y="1682"/>
      <point x="1700" y="1686"/>
      <point x="1645" y="1686" type="curve" smooth="yes"/>
      <point x="1380" y="1686"/>
      <point x="1176" y="1521"/>
      <point x="1176" y="1226" type="curve" smooth="yes"/>
      <point x="1176" y="1004" type="line"/>
    </contour>
    <component base="c"/>
  </outline>
</glyph>
<glyph name="Dhook" format="2">
  <advance width="2580"/>
  <unicode hex="018A"/>
  <outline>
    <contour>
      <point x="112" y="1381" type="line"/>
      <point x="446" y="1381" type="line"/>
      <point x="446" y="1486" type="line" smooth="yes"/>
      <point x="446" y="1610"/>
      <point x="477" y="1727"/>
      <point x="641" y="1727" type="curve" smooth="yes"/>
      <point x="904" y="1727" type="line"/>
      <point x="904" y="2048" type="line"/>
      <point x="638" y="2048" type="line" smooth="yes"/>
      <point x="308" y="2048"/>
      <point x="111" y="1850"/>
      <point x="112" y="1560" type="curve" smooth="yes"/>
    </contour>
    <component base="D" xOffset="540"/>
  </outline>
</glyph>
<glyph name="Dtopbar" format="2">
  <advance width="1851"/>
  <unicode hex="018B"/>
  <outline>
    <contour>
      <point x="1686" y="0" type="line"/>
      <point x="1686" y="2028" type="line"/>
      <point x="370" y="2028" type="line"/>
      <point x="370" y="1714" type="line"/>
      <point x="1301" y="1714" type="line"/>
      <point x="1301" y="1262" type="line"/>
      <point x="922" y="1262" type="line" smooth="yes"/>
      <point x="451" y="1262"/>
      <point x="167" y="1013"/>
      <point x="167" y="638" type="curve" smooth="yes"/>
      <point x="167" y="262"/>
      <point x="451" y="0"/>
      <point x="922" y="0" type="curve" smooth="yes"/>
    </contour>
    <contour>
      <point x="1301" y="308" type="line"/>
      <point x="922" y="308" type="line" smooth="yes"/>
      <point x="670" y="308"/>
      <point x="554" y="462"/>
      <point x="554" y="642" type="curve" smooth="yes"/>
      <point x="554" y="815"/>
      <point x="670" y="953"/>
      <point x="922" y="953" type="curve" smooth="yes"/>
      <point x="1301" y="953" type="line"/>
    </contour>
  </outline>
</glyph>
<glyph name="deltaturn" format="2">
  <advance width="1736"/>
  <unicode hex="018D"/>
  <outline>
    <contour>
      <point x="1393" y="-516" type="line"/>
      <point x="1393" y="-317" type="line"/>
      <point x="1286" y="-200"/>
      <point x="1082" y="-13"/>
      <point x="944" y="106" type="curve"/>
      <point x="964" y="106"/>
      <point x="977" y="106"/>
      <point x="994" y="109" type="curve" smooth="yes"/>
      <point x="1336" y="158"/>
      <point x="1575" y="428"/>
      <point x="1575" y="788" type="curve" smooth="yes"/>
      <point x="1575" y="816" type="line" smooth="yes"/>
      <point x="1575" y="1216"/>
      <point x="1318" y="1516"/>
      <point x="869" y="1516" type="curve" smooth="yes"/>
      <point x="418" y="1516"/>
      <point x="165" y="1202"/>
      <point x="165" y="784" type="curve" smooth="yes"/>
      <point x="165" y="756" type="line" smooth="yes"/>
      <point x="165" y="454"/>
      <point x="365" y="218"/>
      <point x="650" y="-16" type="curve" smooth="yes"/>
      <point x="754" y="-98"/>
      <point x="868" y="-186"/>
      <point x="906" y="-224" type="curve"/>
      <point x="319" y="-224" type="line"/>
      <point x="319" y="-516" type="line"/>
    </contour>
    <contour>
      <point x="1203" y="756" type="line"/>
      <point x="1203" y="513"/>
      <point x="1104" y="307"/>
      <point x="856" y="307" type="curve" smooth="yes"/>
      <point x="821" y="307"/>
      <point x="793" y="310"/>
      <point x="765" y="320" type="curve"/>
      <point x="643" y="393"/>
      <point x="534" y="546"/>
      <point x="534" y="756" type="curve" smooth="yes"/>
      <point x="534" y="784" type="line" smooth="yes"/>
      <point x="534" y="1017"/>
      <point x="624" y="1219"/>
      <point x="869" y="1219" type="curve" smooth="yes"/>
      <point x="1122" y="1219"/>
      <point x="1203" y="1007"/>
      <point x="1203" y="784" type="curve" smooth="yes"/>
    </contour>
  </outline>
</glyph>
<glyph name="Schwa" format="2">
  <advance width="2112"/>
  <unicode hex="018F"/>
  <outline>
    <contour>
      <point x="1059" y="-28" type="curve" smooth="yes"/>
      <point x="1545" y="-28"/>
      <point x="1927" y="355"/>
      <point x="1926" y="906" type="curve" smooth="yes"/>
      <point x="1926" y="1090" type="line" smooth="yes"/>
      <point x="1927" y="1641"/>
      <point x="1592" y="2032"/>
      <point x="968" y="2032" type="curve" smooth="yes"/>
      <point x="660" y="2032"/>
      <point x="411" y="1949"/>
      <point x="353" y="1918" type="curve"/>
      <point x="422" y="1609" type="line"/>
      <point x="529" y="1646"/>
      <point x="705" y="1697"/>
      <point x="954" y="1697" type="curve" smooth="yes"/>
      <point x="1385" y="1697"/>
      <point x="1540" y="1425"/>
      <point x="1539" y="1090" type="curve" smooth="yes"/>
      <point x="1539" y="906" type="line" smooth="yes"/>
      <point x="1540" y="572"/>
      <point x="1372" y="303"/>
      <point x="1059" y="303" type="curve" smooth="yes"/>
      <point x="701" y="303"/>
      <point x="573" y="508"/>
      <point x="573" y="770" type="curve" smooth="yes"/>
      <point x="573" y="813" type="line"/>
      <point x="1654" y="813" type="line"/>
      <point x="1654" y="1120" type="line"/>
      <point x="188" y="1120" type="line"/>
      <point x="188" y="908" type="line" smooth="yes"/>
      <point x="188" y="334"/>
      <point x="488" y="-28"/>
    </contour>
  </outline>
</glyph>
<glyph name="Epsilon1" format="2">
  <advance width="1851"/>
  <unicode hex="0190"/>
  <outline>
    <contour>
      <point x="1165" y="960" type="line"/>
      <point x="1165" y="1171" type="line"/>
      <point x="923" y="1171" type="line" smooth="yes"/>
      <point x="681" y="1171"/>
      <point x="578" y="1277"/>
      <point x="579" y="1454" type="curve" smooth="yes"/>
      <point x="578" y="1606"/>
      <point x="689" y="1720"/>
      <point x="943" y="1720" type="curve" smooth="yes"/>
      <point x="1137" y="1720"/>
      <point x="1275" y="1628"/>
      <point x="1276" y="1469" type="curve"/>
      <point x="1661" y="1469" type="line"/>
      <point x="1660" y="1817"/>
      <point x="1331" y="2032"/>
      <point x="943" y="2032" type="curve" smooth="yes"/>
      <point x="494" y="2032"/>
      <point x="192" y="1832"/>
      <point x="193" y="1460" type="curve" smooth="yes"/>
      <point x="192" y="1150"/>
      <point x="484" y="960"/>
      <point x="878" y="960" type="curve"/>
    </contour>
    <contour>
      <point x="878" y="1080" type="line"/>
      <point x="431" y="1080"/>
      <point x="160" y="896"/>
      <point x="161" y="560" type="curve" smooth="yes"/>
      <point x="160" y="150"/>
      <point x="490" y="-28"/>
      <point x="943" y="-28" type="curve" smooth="yes"/>
      <point x="1306" y="-28"/>
      <point x="1690" y="148"/>
      <point x="1690" y="556" type="curve"/>
      <point x="1304" y="556" type="line"/>
      <point x="1303" y="398"/>
      <point x="1167" y="280"/>
      <point x="943" y="280" type="curve" smooth="yes"/>
      <point x="707" y="280"/>
      <point x="549" y="367"/>
      <point x="550" y="566" type="curve" smooth="yes"/>
      <point x="549" y="790"/>
      <point x="682" y="873"/>
      <point x="923" y="873" type="curve" smooth="yes"/>
      <point x="1165" y="873" type="line"/>
      <point x="1165" y="1080" type="line"/>
    </contour>
  </outline>
</glyph>
<glyph name="Fhook" format="2">
  <advance width="1690"/>
  <unicode hex="0191"/>
  <outline>
    <contour>
      <point x="243" y="0" type="line"/>
      <point x="243" y="-115" type="line" smooth="yes"/>
      <point x="243" y="-248"/>
      <point x="146" y="-285"/>
      <point x="28" y="-285" type="curve" smooth="yes"/>
      <point x="2" y="-285"/>
      <point x="-30" y="-284"/>
      <point x="-54" y="-280" type="curve"/>
      <point x="-54" y="-566" type="line"/>
      <point x="5" y="-576"/>
      <point x="56" y="-576"/>
      <point x="87" y="-576" type="curve" smooth="yes"/>
      <point x="388" y="-576"/>
      <point x="614" y="-470"/>
      <point x="614" y="-118" type="curve" smooth="yes"/>
      <point x="614" y="0" type="line"/>
    </contour>
    <component base="F" xOffset="42"/>
  </outline>
</glyph>
<glyph name="florin" format="2">
  <advance width="1243"/>
  <unicode hex="0192"/>
  <outline>
    <contour>
      <point x="1058" y="1488" type="line"/>
      <point x="765" y="1488" type="line"/>
      <point x="765" y="1622" type="line" smooth="yes"/>
      <point x="766" y="1765"/>
      <point x="845" y="1837"/>
      <point x="983" y="1837" type="curve" smooth="yes"/>
      <point x="1043" y="1837"/>
      <point x="1079" y="1830"/>
      <point x="1113" y="1822" type="curve"/>
      <point x="1160" y="2109" type="line"/>
      <point x="1098" y="2126"/>
      <point x="1006" y="2140"/>
      <point x="922" y="2140" type="curve" smooth="yes"/>
      <point x="610" y="2140"/>
      <point x="407" y="1959"/>
      <point x="406" y="1622" type="curve" smooth="yes"/>
      <point x="406" y="1488" type="line"/>
      <point x="170" y="1488" type="line"/>
      <point x="170" y="1218" type="line"/>
      <point x="406" y="1218" type="line"/>
      <point x="406" y="-81" type="line" smooth="yes"/>
      <point x="407" y="-218"/>
      <point x="356" y="-303"/>
      <point x="236" y="-303" type="curve" smooth="yes"/>
      <point x="205" y="-303"/>
      <point x="134" y="-298"/>
      <point x="103" y="-287" type="curve"/>
      <point x="83" y="-580" type="line"/>
      <point x="150" y="-596"/>
      <point x="208" y="-600"/>
      <point x="273" y="-600" type="curve" smooth="yes"/>
      <point x="586" y="-600"/>
      <point x="766" y="-418"/>
      <point x="765" y="-81" type="curve" smooth="yes"/>
      <point x="765" y="1218" type="line"/>
      <point x="1058" y="1218" type="line"/>
    </contour>
  </outline>
</glyph>
<glyph name="Ghook" format="2">
  <advance width="2291"/>
  <unicode hex="0193"/>
  <outline>
    <contour>
      <point x="1950" y="1394" type="line"/>
      <point x="1950" y="1674" type="line" smooth="yes"/>
      <point x="1950" y="1838"/>
      <point x="2065" y="1877"/>
      <point x="2201" y="1877" type="curve" smooth="yes"/>
      <point x="2237" y="1877"/>
      <point x="2273" y="1871"/>
      <point x="2306" y="1867" type="curve"/>
      <point x="2306" y="2160" type="line"/>
      <point x="2247" y="2175"/>
      <point x="2187" y="2180"/>
      <point x="2126" y="2180" type="curve" smooth="yes"/>
      <point x="1818" y="2180"/>
      <point x="1585" y="2000"/>
      <point x="1577" y="1674" type="curve" smooth="yes"/>
      <point x="1571" y="1394" type="line"/>
    </contour>
    <component base="G"/>
  </outline>
</glyph>
<glyph name="Gamma1" format="2">
  <advance width="1990"/>
  <unicode hex="0194"/>
  <outline>
    <contour>
      <point x="87" y="2024" type="line"/>
      <point x="950" y="162" type="line" smooth="yes"/>
      <point x="1045" y="-44"/>
      <point x="1090" y="-142"/>
      <point x="1090" y="-222" type="curve" smooth="yes"/>
      <point x="1090" y="-273"/>
      <point x="1062" y="-325"/>
      <point x="995" y="-325" type="curve" smooth="yes"/>
      <point x="930" y="-325"/>
      <point x="901" y="-278"/>
      <point x="901" y="-222" type="curve" smooth="yes"/>
      <point x="901" y="-139"/>
      <point x="954" y="-38"/>
      <point x="1044" y="162" type="curve" smooth="yes"/>
      <point x="1903" y="2024" type="line"/>
      <point x="1485" y="2024" type="line"/>
      <point x="870" y="586" type="line" smooth="yes"/>
      <point x="699" y="188"/>
      <point x="530" y="-98"/>
      <point x="530" y="-232" type="curve" smooth="yes"/>
      <point x="530" y="-485"/>
      <point x="736" y="-600"/>
      <point x="995" y="-600" type="curve" smooth="yes"/>
      <point x="1254" y="-600"/>
      <point x="1452" y="-485"/>
      <point x="1452" y="-232" type="curve" smooth="yes"/>
      <point x="1452" y="-101"/>
      <point x="1290" y="191"/>
      <point x="1119" y="586" type="curve" smooth="yes"/>
      <point x="504" y="2024" type="line"/>
    </contour>
  </outline>
</glyph>
<glyph name="hv" format="2">
  <advance width="2733"/>
  <unicode hex="0195"/>
  <note>
Note: Must be split in two, or conversion to quadratic curves will fail.
</note>
  <outline>
    <contour>
      <point x="186" y="0" type="line"/>
      <point x="548" y="0" type="line"/>
      <point x="548" y="900" type="line" smooth="yes"/>
      <point x="548" y="1122"/>
      <point x="686" y="1250"/>
      <point x="880" y="1250" type="curve" smooth="yes"/>
      <point x="1070" y="1250"/>
      <point x="1182" y="1129"/>
      <point x="1182" y="922" type="curve" smooth="yes"/>
      <point x="1182" y="768" type="line"/>
      <point x="1544" y="768" type="line"/>
      <point x="1544" y="978" type="line" smooth="yes"/>
      <point x="1544" y="1349"/>
      <point x="1334" y="1556"/>
      <point x="1015" y="1556" type="curve" smooth="yes"/>
      <point x="779" y="1556"/>
      <point x="629" y="1449"/>
      <point x="558" y="1275" type="curve"/>
      <point x="540" y="1275" type="line"/>
      <point x="540" y="2048" type="line"/>
      <point x="186" y="2048" type="line"/>
    </contour>
    <contour>
      <point x="1766" y="-28" type="curve" smooth="yes"/>
      <point x="2270" y="-28"/>
      <point x="2547" y="407"/>
      <point x="2547" y="1354" type="curve"/>
      <point x="2547" y="1536" type="line"/>
      <point x="2185" y="1536" type="line"/>
      <point x="2185" y="1354" type="line" smooth="yes"/>
      <point x="2185" y="603"/>
      <point x="2023" y="276"/>
      <point x="1782" y="276" type="curve" smooth="yes"/>
      <point x="1671" y="276"/>
      <point x="1544" y="343"/>
      <point x="1544" y="602" type="curve"/>
      <point x="1544" y="768" type="line"/>
      <point x="1182" y="768" type="line"/>
      <point x="1182" y="602" type="line" smooth="yes"/>
      <point x="1182" y="189"/>
      <point x="1408" y="-28"/>
    </contour>
  </outline>
</glyph>
<glyph name="Iota1" format="2">
  <advance width="1066"/>
  <unicode hex="0196"/>
  <outline>
    <contour>
      <point x="529" y="2112" type="line"/>
      <point x="155" y="2112" type="line"/>
      <point x="155" y="490" type="line" smooth="yes"/>
      <point x="155" y="157"/>
      <point x="356" y="-28"/>
      <point x="695" y="-28" type="curve" smooth="yes"/>
      <point x="766" y="-28"/>
      <point x="838" y="-16"/>
      <point x="910" y="0" type="curve"/>
      <point x="878" y="285" type="line"/>
      <point x="842" y="277"/>
      <point x="806" y="270"/>
      <point x="747" y="270" type="curve" smooth="yes"/>
      <point x="605" y="270"/>
      <point x="529" y="351"/>
      <point x="529" y="490" type="curve" smooth="yes"/>
    </contour>
  </outline>
</glyph>
<glyph name="Khook" format="2">
  <advance width="1999"/>
  <unicode hex="0198"/>
  <outline>
    <contour>
      <point x="202" y="0" type="line"/>
      <point x="573" y="0" type="line"/>
      <point x="573" y="573" type="line"/>
      <point x="826" y="848" type="line"/>
      <point x="1464" y="0" type="line"/>
      <point x="1910" y="0" type="line"/>
      <point x="1059" y="1110" type="line"/>
      <point x="1576" y="1654" type="line" smooth="yes"/>
      <point x="1672" y="1755"/>
      <point x="1749" y="1778"/>
      <point x="1853" y="1721" type="curve"/>
      <point x="1978" y="1986" type="line"/>
      <point x="1752" y="2126"/>
      <point x="1511" y="2099"/>
      <point x="1318" y="1894" type="curve" smooth="yes"/>
      <point x="598" y="1122" type="line"/>
      <point x="573" y="1122" type="line"/>
      <point x="573" y="2048" type="line"/>
      <point x="202" y="2048" type="line"/>
    </contour>
  </outline>
</glyph>
<glyph name="khook" format="2">
  <advance width="1583"/>
  <unicode hex="0199"/>
  <outline>
    <contour>
      <point x="1158" y="0" type="line"/>
      <point x="1564" y="0" type="line"/>
      <point x="931" y="880" type="line"/>
      <point x="1519" y="1536" type="line"/>
      <point x="1088" y="1536" type="line"/>
      <point x="568" y="946" type="line"/>
      <point x="548" y="946" type="line"/>
      <point x="548" y="1528" type="line"/>
      <point x="186" y="1528" type="line"/>
      <point x="186" y="0" type="line"/>
      <point x="548" y="0" type="line"/>
      <point x="548" y="446" type="line"/>
      <point x="708" y="620" type="line"/>
    </contour>
    <contour>
      <point x="548" y="1381" type="line"/>
      <point x="548" y="1618" type="line" smooth="yes"/>
      <point x="548" y="1750"/>
      <point x="651" y="1787"/>
      <point x="766" y="1787" type="curve" smooth="yes"/>
      <point x="799" y="1787"/>
      <point x="832" y="1783"/>
      <point x="861" y="1779" type="curve"/>
      <point x="861" y="2062" type="line"/>
      <point x="814" y="2071"/>
      <point x="746" y="2076"/>
      <point x="670" y="2076" type="curve" smooth="yes"/>
      <point x="423" y="2076"/>
      <point x="186" y="1970"/>
      <point x="186" y="1618" type="curve" smooth="yes"/>
      <point x="186" y="1381" type="line"/>
    </contour>
  </outline>
</glyph>
<glyph name="lambdabar" format="2">
  <advance width="1846"/>
  <unicode hex="019B"/>
  <outline>
    <contour>
      <point x="1045" y="1909" type="line"/>
      <point x="282" y="1652" type="line"/>
      <point x="282" y="1393" type="line"/>
      <point x="1045" y="1650" type="line"/>
    </contour>
    <contour>
      <point x="898" y="986" type="line"/>
      <point x="978" y="1520" type="line"/>
      <point x="720" y="1526" type="line"/>
      <point x="150" y="0" type="line"/>
      <point x="554" y="0" type="line"/>
    </contour>
    <contour>
      <point x="522" y="2117" type="curve"/>
      <point x="469" y="2117"/>
      <point x="370" y="2107"/>
      <point x="321" y="2093" type="curve"/>
      <point x="327" y="1814" type="line"/>
      <point x="355" y="1818"/>
      <point x="384" y="1818"/>
      <point x="404" y="1818" type="curve" smooth="yes"/>
      <point x="490" y="1818"/>
      <point x="545" y="1784"/>
      <point x="581" y="1695" type="curve" smooth="yes"/>
      <point x="739" y="1326" type="line"/>
      <point x="1136" y="274" type="line" smooth="yes"/>
      <point x="1218" y="60"/>
      <point x="1330" y="-26"/>
      <point x="1540" y="-26" type="curve" smooth="yes"/>
      <point x="1598" y="-26"/>
      <point x="1648" y="-22"/>
      <point x="1680" y="-14" type="curve"/>
      <point x="1677" y="279" type="line"/>
      <point x="1666" y="279"/>
      <point x="1647" y="279"/>
      <point x="1629" y="279" type="curve" smooth="yes"/>
      <point x="1558" y="279"/>
      <point x="1520" y="338"/>
      <point x="1486" y="418" type="curve" smooth="yes"/>
      <point x="895" y="1882" type="line" smooth="yes"/>
      <point x="835" y="2031"/>
      <point x="729" y="2117"/>
    </contour>
  </outline>
</glyph>
<glyph name="mcapturn" format="2">
  <advance width="2638"/>
  <unicode hex="019C"/>
  <outline>
    <contour>
      <point x="2046" y="332" type="line"/>
      <point x="2077" y="0" type="line"/>
      <point x="2417" y="0" type="line"/>
      <point x="2417" y="2004" type="line"/>
      <point x="2046" y="2004" type="line"/>
    </contour>
    <contour>
      <point x="2085" y="692" type="line"/>
      <point x="2085" y="456"/>
      <point x="1994" y="274"/>
      <point x="1734" y="274" type="curve" smooth="yes"/>
      <point x="1606" y="274"/>
      <point x="1502" y="352"/>
      <point x="1502" y="592" type="curve"/>
      <point x="1502" y="2004" type="line"/>
      <point x="1134" y="2004" type="line"/>
      <point x="1134" y="592" type="line"/>
      <point x="1134" y="131"/>
      <point x="1334" y="-28"/>
      <point x="1637" y="-28" type="curve" smooth="yes"/>
      <point x="2030" y="-28"/>
      <point x="2216" y="280"/>
      <point x="2216" y="696" type="curve"/>
    </contour>
    <contour>
      <point x="1176" y="692" type="line"/>
      <point x="1176" y="454"/>
      <point x="1083" y="274"/>
      <point x="822" y="274" type="curve" smooth="yes"/>
      <point x="694" y="274"/>
      <point x="594" y="352"/>
      <point x="594" y="592" type="curve" smooth="yes"/>
      <point x="594" y="2004" type="line"/>
      <point x="223" y="2004" type="line"/>
      <point x="223" y="592" type="line" smooth="yes"/>
      <point x="223" y="135"/>
      <point x="402" y="-28"/>
      <point x="726" y="-28" type="curve" smooth="yes"/>
      <point x="1126" y="-28"/>
      <point x="1310" y="275"/>
      <point x="1310" y="696" type="curve"/>
    </contour>
  </outline>
</glyph>
<glyph name="Nhook" format="2">
  <advance width="2122"/>
  <unicode hex="019D"/>
  <outline>
    <contour>
      <point x="238" y="0" type="line"/>
      <point x="238" y="-115" type="line" smooth="yes"/>
      <point x="238" y="-248"/>
      <point x="140" y="-285"/>
      <point x="22" y="-285" type="curve"/>
      <point x="-3" y="-285"/>
      <point x="-36" y="-284"/>
      <point x="-60" y="-280" type="curve"/>
      <point x="-60" y="-566" type="line"/>
      <point x="-15" y="-576"/>
      <point x="67" y="-576"/>
      <point x="118" y="-576" type="curve"/>
      <point x="368" y="-576"/>
      <point x="609" y="-470"/>
      <point x="609" y="-118" type="curve" smooth="yes"/>
      <point x="609" y="0" type="line"/>
    </contour>
    <component base="N" xOffset="36"/>
  </outline>
</glyph>
<glyph name="Ohorn" format="2">
  <advance width="2254"/>
  <unicode hex="01A0"/>
  <outline>
    <contour>
      <point x="1955" y="2164" type="line"/>
      <point x="1955" y="1921"/>
      <point x="1884" y="1778"/>
      <point x="1686" y="1778" type="curve"/>
      <point x="1686" y="1566" type="line"/>
      <point x="2048" y="1566"/>
      <point x="2217" y="1785"/>
      <point x="2217" y="2164" type="curve"/>
    </contour>
    <component base="O"/>
  </outline>
</glyph>
<glyph name="ohorn" format="2">
  <advance width="1748"/>
  <unicode hex="01A1"/>
  <outline>
    <contour>
      <point x="1506" y="1634" type="line"/>
      <point x="1506" y="1418"/>
      <point x="1466" y="1281"/>
      <point x="1258" y="1281" type="curve"/>
      <point x="1258" y="1111" type="line"/>
      <point x="1608" y="1111"/>
      <point x="1748" y="1308"/>
      <point x="1748" y="1634" type="curve"/>
    </contour>
    <component base="o"/>
  </outline>
</glyph>
<glyph name="OI" format="2">
  <advance width="2510"/>
  <unicode hex="01A2"/>
  <outline>
    <contour>
      <point x="1784" y="1114" type="line"/>
      <point x="1413" y="1114" type="line"/>
      <point x="1413" y="394" type="line"/>
      <point x="1362" y="347"/>
      <point x="1272" y="280"/>
      <point x="1046" y="280" type="curve" smooth="yes"/>
      <point x="695" y="280"/>
      <point x="538" y="543"/>
      <point x="538" y="938" type="curve" smooth="yes"/>
      <point x="538" y="1048" type="line"/>
      <point x="149" y="1044" type="line"/>
      <point x="149" y="938" type="line" smooth="yes"/>
      <point x="148" y="318"/>
      <point x="509" y="-28"/>
      <point x="1026" y="-28" type="curve" smooth="yes"/>
      <point x="1478" y="-28"/>
      <point x="1696" y="149"/>
      <point x="1784" y="261" type="curve"/>
    </contour>
    <contour>
      <point x="1784" y="1743" type="line"/>
      <point x="1696" y="1857"/>
      <point x="1480" y="2032"/>
      <point x="1026" y="2032" type="curve" smooth="yes"/>
      <point x="507" y="2032"/>
      <point x="148" y="1676"/>
      <point x="149" y="1066" type="curve" smooth="yes"/>
      <point x="149" y="958" type="line"/>
      <point x="538" y="956" type="line"/>
      <point x="538" y="1066" type="line" smooth="yes"/>
      <point x="538" y="1483"/>
      <point x="705" y="1722"/>
      <point x="1040" y="1722" type="curve" smooth="yes"/>
      <point x="1260" y="1722"/>
      <point x="1356" y="1665"/>
      <point x="1413" y="1610" type="curve"/>
      <point x="1413" y="877" type="line"/>
      <point x="1784" y="880" type="line"/>
    </contour>
    <contour>
      <point x="2362" y="2004" type="line"/>
      <point x="2081" y="2004" type="line"/>
      <point x="1591" y="1787" type="line"/>
      <point x="1591" y="1410" type="line"/>
      <point x="1991" y="1580" type="line"/>
      <point x="1991" y="-572" type="line"/>
      <point x="2362" y="-572" type="line"/>
    </contour>
  </outline>
</glyph>
<glyph name="oi" format="2">
  <advance width="1987"/>
  <unicode hex="01A3"/>
  <outline>
    <contour>
      <point x="798" y="270" type="curve" smooth="yes"/>
      <point x="564" y="270"/>
      <point x="477" y="459"/>
      <point x="478" y="722" type="curve" smooth="yes"/>
      <point x="478" y="766" type="line" smooth="yes"/>
      <point x="477" y="989"/>
      <point x="534" y="1219"/>
      <point x="794" y="1219" type="curve"/>
      <point x="879" y="1219"/>
      <point x="940" y="1192"/>
      <point x="986" y="1144" type="curve"/>
      <point x="986" y="754" type="line"/>
      <point x="1358" y="735" type="line"/>
      <point x="1358" y="1219" type="line"/>
      <point x="1267" y="1364"/>
      <point x="1072" y="1516"/>
      <point x="802" y="1516" type="curve" smooth="yes"/>
      <point x="334" y="1516"/>
      <point x="107" y="1179"/>
      <point x="107" y="766" type="curve" smooth="yes"/>
      <point x="107" y="722" type="line" smooth="yes"/>
      <point x="107" y="307"/>
      <point x="332" y="-28"/>
      <point x="802" y="-28" type="curve"/>
      <point x="1079" y="-28"/>
      <point x="1253" y="94"/>
      <point x="1358" y="249" type="curve"/>
      <point x="1358" y="810" type="line"/>
      <point x="986" y="810" type="line"/>
      <point x="986" y="332" type="line"/>
      <point x="940" y="293"/>
      <point x="875" y="270"/>
    </contour>
    <contour>
      <point x="1882" y="1488" type="line"/>
      <point x="1618" y="1488" type="line"/>
      <point x="1191" y="1293" type="line"/>
      <point x="1191" y="910" type="line"/>
      <point x="1510" y="1055" type="line"/>
      <point x="1510" y="-572" type="line"/>
      <point x="1882" y="-572" type="line"/>
    </contour>
  </outline>
</glyph>
<glyph name="Phook" format="2">
  <advance width="2341"/>
  <unicode hex="01A4"/>
  <note>
!post:RemoveOverlap
</note>
  <outline>
    <contour>
      <point x="446" y="1381" type="line"/>
      <point x="446" y="1486" type="line" smooth="yes"/>
      <point x="446" y="1610"/>
      <point x="477" y="1738"/>
      <point x="641" y="1738" type="curve" smooth="yes"/>
      <point x="904" y="1738" type="line"/>
      <point x="904" y="2048" type="line"/>
      <point x="638" y="2048" type="line" smooth="yes"/>
      <point x="308" y="2048"/>
      <point x="111" y="1850"/>
      <point x="112" y="1560" type="curve" smooth="yes"/>
      <point x="112" y="1381" type="line"/>
    </contour>
    <component base="P" xOffset="529"/>
  </outline>
</glyph>
<glyph name="phook" format="2">
  <advance width="1759"/>
  <unicode hex="01A5"/>
  <outline>
    <contour>
      <point x="542" y="1536" type="line"/>
      <point x="542" y="1624"/>
      <point x="604" y="1670"/>
      <point x="727" y="1669" type="curve" smooth="yes"/>
      <point x="771" y="1668"/>
      <point x="819" y="1659"/>
      <point x="843" y="1653" type="curve"/>
      <point x="843" y="1909" type="line"/>
      <point x="810" y="1918"/>
      <point x="740" y="1929"/>
      <point x="653" y="1929" type="curve" smooth="yes"/>
      <point x="341" y="1929"/>
      <point x="186" y="1806"/>
      <point x="186" y="1536" type="curve"/>
    </contour>
    <component base="p"/>
  </outline>
</glyph>
<glyph name="YR" format="2">
  <advance width="2109"/>
  <unicode hex="01A6"/>
  <outline>
    <contour>
      <point x="144" y="1864" type="line"/>
      <point x="531" y="1864" type="line"/>
      <point x="531" y="2144" type="line"/>
      <point x="144" y="2144" type="line"/>
    </contour>
    <contour>
      <point x="142" y="2004" type="line"/>
      <point x="142" y="0" type="line"/>
      <point x="531" y="0" type="line"/>
      <point x="531" y="1692" type="line"/>
      <point x="882" y="1692" type="line" smooth="yes"/>
      <point x="1130" y="1692"/>
      <point x="1242" y="1568"/>
      <point x="1242" y="1373" type="curve" smooth="yes"/>
      <point x="1242" y="1190"/>
      <point x="1119" y="1060"/>
      <point x="882" y="1060" type="curve" smooth="yes"/>
      <point x="408" y="1060" type="line"/>
      <point x="410" y="752" type="line"/>
      <point x="1054" y="752" type="line"/>
      <point x="1174" y="814" type="line"/>
      <point x="1451" y="903"/>
      <point x="1626" y="1084"/>
      <point x="1626" y="1398" type="curve" smooth="yes"/>
      <point x="1626" y="1792"/>
      <point x="1350" y="2004"/>
      <point x="882" y="2004" type="curve" smooth="yes"/>
    </contour>
    <contour>
      <point x="1554" y="-486" type="line"/>
      <point x="1966" y="-486" type="line"/>
      <point x="1966" y="-469" type="line"/>
      <point x="1229" y="899" type="line"/>
      <point x="822" y="899" type="line"/>
    </contour>
  </outline>
</glyph>
<glyph name="eshlooprev" format="2">
  <advance width="1731"/>
  <unicode hex="01AA"/>
  <outline>
    <contour>
      <point x="882" y="1448" type="line"/>
      <point x="882" y="-46" type="line" smooth="yes"/>
      <point x="881" y="-394"/>
      <point x="1055" y="-582"/>
      <point x="1364" y="-582" type="curve" smooth="yes"/>
      <point x="1429" y="-582"/>
      <point x="1501" y="-576"/>
      <point x="1556" y="-560" type="curve"/>
      <point x="1556" y="-269" type="line"/>
      <point x="1514" y="-277"/>
      <point x="1477" y="-281"/>
      <point x="1444" y="-281" type="curve" smooth="yes"/>
      <point x="1322" y="-281"/>
      <point x="1253" y="-212"/>
      <point x="1254" y="-46" type="curve" smooth="yes"/>
      <point x="1254" y="1630" type="line"/>
    </contour>
    <contour>
      <point x="175" y="1630" type="curve" smooth="yes"/>
      <point x="174" y="1337"/>
      <point x="416" y="1098"/>
      <point x="714" y="1098" type="curve" smooth="yes"/>
      <point x="1009" y="1098"/>
      <point x="1253" y="1338"/>
      <point x="1254" y="1630" type="curve" smooth="yes"/>
      <point x="1253" y="1922"/>
      <point x="1009" y="2162"/>
      <point x="714" y="2162" type="curve" smooth="yes"/>
      <point x="414" y="2162"/>
      <point x="174" y="1922"/>
    </contour>
    <contour>
      <point x="715" y="1420" type="curve" smooth="yes"/>
      <point x="594" y="1420"/>
      <point x="506" y="1490"/>
      <point x="506" y="1634" type="curve" smooth="yes"/>
      <point x="506" y="1771"/>
      <point x="594" y="1844"/>
      <point x="715" y="1844" type="curve" smooth="yes"/>
      <point x="826" y="1844"/>
      <point x="918" y="1773"/>
      <point x="918" y="1634" type="curve" smooth="yes"/>
      <point x="918" y="1490"/>
      <point x="827" y="1420"/>
    </contour>
  </outline>
</glyph>
<glyph name="tpalatalhook" format="2">
  <advance width="1080"/>
  <unicode hex="01AB"/>
  <outline>
    <contour>
      <point x="713" y="258" type="line"/>
      <point x="713" y="-118" type="line" smooth="yes"/>
      <point x="713" y="-273"/>
      <point x="592" y="-311"/>
      <point x="478" y="-311" type="curve" smooth="yes"/>
      <point x="440" y="-311"/>
      <point x="408" y="-307"/>
      <point x="381" y="-303" type="curve"/>
      <point x="381" y="-558" type="line"/>
      <point x="432" y="-571"/>
      <point x="486" y="-574"/>
      <point x="546" y="-574" type="curve" smooth="yes"/>
      <point x="809" y="-574"/>
      <point x="990" y="-410"/>
      <point x="990" y="-118" type="curve" smooth="yes"/>
      <point x="990" y="315" type="line"/>
    </contour>
    <component base="t"/>
  </outline>
</glyph>
<glyph name="Thook" format="2">
  <advance width="1960"/>
  <unicode hex="01AC"/>
  <note>
!post:RemoveOverlap
</note>
  <outline>
    <contour>
      <point x="1030" y="2048" type="line"/>
      <point x="622" y="2048" type="line" smooth="yes"/>
      <point x="296" y="2048"/>
      <point x="112" y="1858"/>
      <point x="112" y="1561" type="curve" smooth="yes"/>
      <point x="112" y="1390" type="line"/>
      <point x="426" y="1390" type="line"/>
      <point x="426" y="1494" type="line" smooth="yes"/>
      <point x="426" y="1615"/>
      <point x="466" y="1737"/>
      <point x="622" y="1737" type="curve" smooth="yes"/>
      <point x="1030" y="1737" type="line"/>
    </contour>
    <contour>
      <point x="1848" y="2048" type="line"/>
      <point x="723" y="2048" type="line"/>
      <point x="723" y="1737" type="line"/>
      <point x="847" y="1737" type="line"/>
      <point x="847" y="0" type="line"/>
      <point x="1215" y="0" type="line"/>
      <point x="1215" y="1737" type="line"/>
      <point x="1848" y="1737" type="line"/>
    </contour>
  </outline>
</glyph>
<glyph name="thook" format="2">
  <advance width="1210"/>
  <unicode hex="01AD"/>
  <outline>
    <contour>
      <point x="748" y="1466" type="line"/>
      <point x="748" y="1704" type="line" smooth="yes"/>
      <point x="748" y="1861"/>
      <point x="860" y="1906"/>
      <point x="977" y="1906" type="curve" smooth="yes"/>
      <point x="1010" y="1906"/>
      <point x="1046" y="1900"/>
      <point x="1070" y="1894" type="curve"/>
      <point x="1070" y="2140" type="line"/>
      <point x="1018" y="2154"/>
      <point x="957" y="2162"/>
      <point x="880" y="2162" type="curve" smooth="yes"/>
      <point x="609" y="2162"/>
      <point x="378" y="2050"/>
      <point x="378" y="1704" type="curve" smooth="yes"/>
      <point x="378" y="1466" type="line"/>
    </contour>
    <contour>
      <point x="1014" y="1488" type="line"/>
      <point x="142" y="1488" type="line"/>
      <point x="142" y="1218" type="line"/>
      <point x="1014" y="1218" type="line"/>
    </contour>
    <contour>
      <point x="378" y="1578" type="line"/>
      <point x="378" y="422" type="line"/>
      <point x="378" y="101"/>
      <point x="546" y="-28"/>
      <point x="790" y="-28" type="curve" smooth="yes"/>
      <point x="886" y="-28"/>
      <point x="963" y="-15"/>
      <point x="1026" y="6" type="curve"/>
      <point x="1026" y="289" type="line"/>
      <point x="997" y="285"/>
      <point x="954" y="278"/>
      <point x="906" y="278" type="curve" smooth="yes"/>
      <point x="810" y="278"/>
      <point x="748" y="315"/>
      <point x="748" y="452" type="curve"/>
      <point x="748" y="1578" type="line"/>
    </contour>
  </outline>
</glyph>
<glyph name="Trthook" format="2">
  <advance width="1858"/>
  <unicode hex="01AE"/>
  <outline>
    <contour>
      <point x="1113" y="0" type="line"/>
      <point x="745" y="0" type="line"/>
      <point x="745" y="-118" type="line" smooth="yes"/>
      <point x="745" y="-470"/>
      <point x="991" y="-576"/>
      <point x="1243" y="-576" type="curve"/>
      <point x="1421" y="-576" type="line"/>
      <point x="1421" y="-279" type="line"/>
      <point x="1338" y="-279" type="line"/>
      <point x="1222" y="-279"/>
      <point x="1113" y="-250"/>
      <point x="1113" y="-118" type="curve" smooth="yes"/>
    </contour>
    <component base="T"/>
  </outline>
</glyph>
<glyph name="uhorn" format="2">
  <advance width="1915"/>
  <unicode hex="01B0"/>
  <outline>
    <contour>
      <point x="1730" y="1615" type="line"/>
      <point x="1729" y="1394"/>
      <point x="1707" y="1292"/>
      <point x="1439" y="1292" type="curve"/>
      <point x="1439" y="1110" type="line"/>
      <point x="1840" y="1110"/>
      <point x="1962" y="1282"/>
      <point x="1963" y="1615" type="curve"/>
    </contour>
    <component base="u" xOffset="6"/>
  </outline>
</glyph>
<glyph name="Upsilon2" format="2">
  <advance width="2176"/>
  <unicode hex="01B1"/>
  <outline>
    <contour>
      <point x="141" y="947" type="curve" smooth="yes"/>
      <point x="141" y="376"/>
      <point x="534" y="-28"/>
      <point x="1088" y="-28" type="curve" smooth="yes"/>
      <point x="1642" y="-28"/>
      <point x="2035" y="376"/>
      <point x="2035" y="947" type="curve"/>
      <point x="2035" y="1305"/>
      <point x="1882" y="1566"/>
      <point x="1638" y="1721" type="curve"/>
      <point x="1638" y="1737" type="line"/>
      <point x="2035" y="1737" type="line"/>
      <point x="2035" y="2048" type="line"/>
      <point x="1251" y="2048" type="line"/>
      <point x="1251" y="1656" type="line"/>
      <point x="1483" y="1560"/>
      <point x="1664" y="1296"/>
      <point x="1664" y="970" type="curve" smooth="yes"/>
      <point x="1664" y="593"/>
      <point x="1425" y="306"/>
      <point x="1088" y="306" type="curve" smooth="yes"/>
      <point x="751" y="306"/>
      <point x="512" y="593"/>
      <point x="512" y="970" type="curve"/>
      <point x="512" y="1296"/>
      <point x="693" y="1560"/>
      <point x="925" y="1656" type="curve"/>
      <point x="925" y="2048" type="line"/>
      <point x="141" y="2048" type="line"/>
      <point x="141" y="1737" type="line"/>
      <point x="538" y="1737" type="line"/>
      <point x="538" y="1721" type="line"/>
      <point x="294" y="1563"/>
      <point x="141" y="1305"/>
    </contour>
  </outline>
</glyph>
<glyph name="Vcursive" format="2">
  <advance width="1846"/>
  <unicode hex="01B2"/>
  <outline>
    <contour>
      <point x="925" y="-28" type="curve" smooth="yes"/>
      <point x="1363" y="-28"/>
      <point x="1699" y="215"/>
      <point x="1698" y="675" type="curve" smooth="yes"/>
      <point x="1698" y="1494" type="line" smooth="yes"/>
      <point x="1699" y="1839"/>
      <point x="1497" y="2030"/>
      <point x="1185" y="2030" type="curve" smooth="yes"/>
      <point x="1119" y="2030"/>
      <point x="1053" y="2022"/>
      <point x="995" y="2006" type="curve"/>
      <point x="995" y="1703" type="line"/>
      <point x="1032" y="1711"/>
      <point x="1074" y="1713"/>
      <point x="1106" y="1713" type="curve" smooth="yes"/>
      <point x="1249" y="1713"/>
      <point x="1308" y="1658"/>
      <point x="1308" y="1494" type="curve" smooth="yes"/>
      <point x="1308" y="675" type="line" smooth="yes"/>
      <point x="1308" y="412"/>
      <point x="1174" y="280"/>
      <point x="925" y="280" type="curve" smooth="yes"/>
      <point x="675" y="280"/>
      <point x="537" y="412"/>
      <point x="537" y="675" type="curve" smooth="yes"/>
      <point x="537" y="2004" type="line"/>
      <point x="152" y="2004" type="line"/>
      <point x="152" y="675" type="line" smooth="yes"/>
      <point x="152" y="214"/>
      <point x="478" y="-28"/>
    </contour>
  </outline>
</glyph>
<glyph name="Yhook" format="2">
  <advance width="2145"/>
  <unicode hex="01B3"/>
  <note>
!post:RemoveOverlap
</note>
  <outline>
    <contour>
      <point x="1698" y="1566" type="line"/>
      <point x="1737" y="1631" type="line" smooth="yes"/>
      <point x="1812" y="1762"/>
      <point x="1893" y="1786"/>
      <point x="2015" y="1744" type="curve"/>
      <point x="2098" y="2027" type="line"/>
      <point x="1865" y="2122"/>
      <point x="1605" y="2077"/>
      <point x="1445" y="1804" type="curve" smooth="yes"/>
      <point x="1386" y="1705" type="line"/>
    </contour>
    <contour>
      <point x="1012" y="1094" type="line"/>
      <point x="1060" y="1094" type="line"/>
      <point x="1060" y="1142" type="line"/>
      <point x="1012" y="1142" type="line"/>
    </contour>
    <contour>
      <point x="483" y="2048" type="line"/>
      <point x="74" y="2048" type="line"/>
      <point x="851" y="809" type="line"/>
      <point x="851" y="0" type="line"/>
      <point x="1221" y="0" type="line"/>
      <point x="1221" y="809" type="line"/>
      <point x="1698" y="1566" type="line"/>
      <point x="1386" y="1705" type="line"/>
      <point x="1036" y="1122" type="line"/>
    </contour>
  </outline>
</glyph>
<glyph name="yhook" format="2">
  <advance width="1743"/>
  <unicode hex="01B4"/>
  <outline>
    <contour>
      <point x="1419" y="1286" type="line"/>
      <point x="1439" y="1344" type="line" smooth="yes"/>
      <point x="1495" y="1499"/>
      <point x="1539" y="1575"/>
      <point x="1646" y="1592" type="curve" smooth="yes"/>
      <point x="1689" y="1596"/>
      <point x="1734" y="1586"/>
      <point x="1784" y="1569" type="curve"/>
      <point x="1827" y="1843" type="line"/>
      <point x="1690" y="1877"/>
      <point x="1596" y="1898"/>
      <point x="1490" y="1878" type="curve" smooth="yes"/>
      <point x="1287" y="1852"/>
      <point x="1172" y="1673"/>
      <point x="1106" y="1482" type="curve" smooth="yes"/>
      <point x="1075" y="1386" type="line"/>
    </contour>
    <contour>
      <point x="600" y="-74" type="line" smooth="yes"/>
      <point x="552" y="-221"/>
      <point x="465" y="-288"/>
      <point x="283" y="-288" type="curve"/>
      <point x="243" y="-288"/>
      <point x="216" y="-286"/>
      <point x="196" y="-282" type="curve"/>
      <point x="196" y="-575" type="line"/>
      <point x="250" y="-593"/>
      <point x="319" y="-600"/>
      <point x="384" y="-600" type="curve" smooth="yes"/>
      <point x="669" y="-600"/>
      <point x="847" y="-413"/>
      <point x="911" y="-223" type="curve" smooth="yes"/>
      <point x="1419" y="1286" type="line"/>
      <point x="1075" y="1386" type="line"/>
      <point x="797" y="554" type="line"/>
      <point x="459" y="1536" type="line"/>
      <point x="78" y="1536" type="line"/>
      <point x="634" y="27" type="line"/>
    </contour>
  </outline>
</glyph>
<glyph name="Ezh" format="2">
  <advance width="1928"/>
  <unicode hex="01B7"/>
  <outline>
    <contour>
      <point x="112" y="156" type="line"/>
      <point x="129" y="-267"/>
      <point x="494" y="-563"/>
      <point x="954" y="-563" type="curve" smooth="yes"/>
      <point x="1472" y="-563"/>
      <point x="1806" y="-181"/>
      <point x="1806" y="298" type="curve" smooth="yes"/>
      <point x="1806" y="720"/>
      <point x="1545" y="1084"/>
      <point x="1069" y="1118" type="curve"/>
      <point x="1069" y="1138" type="line"/>
      <point x="1754" y="1780" type="line"/>
      <point x="1754" y="2048" type="line"/>
      <point x="226" y="2048" type="line"/>
      <point x="226" y="1731" type="line"/>
      <point x="1281" y="1731" type="line"/>
      <point x="1281" y="1715" type="line"/>
      <point x="672" y="1148" type="line"/>
      <point x="672" y="870" type="line"/>
      <point x="870" y="870" type="line" smooth="yes"/>
      <point x="1201" y="870"/>
      <point x="1426" y="638"/>
      <point x="1426" y="313" type="curve" smooth="yes"/>
      <point x="1426" y="21"/>
      <point x="1256" y="-245"/>
      <point x="958" y="-245" type="curve" smooth="yes"/>
      <point x="721" y="-245"/>
      <point x="502" y="-82"/>
      <point x="487" y="156" type="curve"/>
    </contour>
  </outline>
</glyph>
<glyph name="ezhtail" format="2">
  <advance width="1587"/>
  <unicode hex="01BA"/>
  <outline>
    <contour>
      <point x="214" y="1488" type="line"/>
      <point x="214" y="1191" type="line"/>
      <point x="866" y="1191" type="line"/>
      <point x="467" y="876" type="line"/>
      <point x="467" y="658" type="line"/>
      <point x="734" y="658" type="line"/>
      <point x="1441" y="1275" type="line"/>
      <point x="1441" y="1488" type="line"/>
    </contour>
    <contour>
      <point x="502" y="-165" type="curve" smooth="yes"/>
      <point x="502" y="-78"/>
      <point x="562" y="-16"/>
      <point x="820" y="37" type="curve" smooth="yes"/>
      <point x="1111" y="98"/>
      <point x="1364" y="213"/>
      <point x="1365" y="486" type="curve" smooth="yes"/>
      <point x="1364" y="730"/>
      <point x="1139" y="924"/>
      <point x="770" y="924" type="curve" smooth="yes"/>
      <point x="619" y="924" type="line"/>
      <point x="619" y="658" type="line"/>
      <point x="770" y="658" type="line" smooth="yes"/>
      <point x="923" y="658"/>
      <point x="1003" y="598"/>
      <point x="1004" y="502" type="curve" smooth="yes"/>
      <point x="1003" y="396"/>
      <point x="927" y="356"/>
      <point x="700" y="310" type="curve" smooth="yes"/>
      <point x="334" y="239"/>
      <point x="140" y="108"/>
      <point x="141" y="-146" type="curve" smooth="yes"/>
      <point x="140" y="-410"/>
      <point x="386" y="-600"/>
      <point x="767" y="-600" type="curve" smooth="yes"/>
      <point x="1185" y="-600"/>
      <point x="1412" y="-345"/>
      <point x="1413" y="-102" type="curve"/>
      <point x="1058" y="-102" type="line"/>
      <point x="1048" y="-278"/>
      <point x="898" y="-330"/>
      <point x="761" y="-330" type="curve" smooth="yes"/>
      <point x="602" y="-330"/>
      <point x="502" y="-269"/>
    </contour>
  </outline>
</glyph>
<glyph name="Tonefive" format="2">
  <advance width="1754"/>
  <unicode hex="01BC"/>
  <outline>
    <contour>
      <point x="541" y="2048" type="line"/>
      <point x="97" y="2048" type="line"/>
      <point x="97" y="1738" type="line"/>
      <point x="541" y="1738" type="line"/>
    </contour>
    <component base="five" xOffset="32"/>
  </outline>
</glyph>
<glyph name="tonefive" format="2">
  <advance width="1736"/>
  <unicode hex="01BD"/>
  <outline>
    <contour>
      <point x="673" y="638" type="line"/>
      <point x="715" y="689"/>
      <point x="788" y="731"/>
      <point x="921" y="731" type="curve" smooth="yes"/>
      <point x="1094" y="731"/>
      <point x="1188" y="640"/>
      <point x="1189" y="506" type="curve" smooth="yes"/>
      <point x="1188" y="369"/>
      <point x="1105" y="277"/>
      <point x="921" y="277" type="curve" smooth="yes"/>
      <point x="760" y="277"/>
      <point x="651" y="341"/>
      <point x="645" y="457" type="curve"/>
      <point x="280" y="436" type="line"/>
      <point x="280" y="118"/>
      <point x="607" y="-24"/>
      <point x="921" y="-24" type="curve" smooth="yes"/>
      <point x="1374" y="-24"/>
      <point x="1558" y="196"/>
      <point x="1558" y="486" type="curve" smooth="yes"/>
      <point x="1558" y="807"/>
      <point x="1357" y="994"/>
      <point x="1016" y="990" type="curve" smooth="yes"/>
      <point x="894" y="987"/>
      <point x="776" y="952"/>
      <point x="715" y="917" type="curve"/>
      <point x="754" y="1190" type="line"/>
      <point x="1463" y="1190" type="line"/>
      <point x="1463" y="1488" type="line"/>
      <point x="448" y="1488" type="line"/>
      <point x="341" y="657" type="line"/>
    </contour>
    <contour>
      <point x="608" y="1488" type="line"/>
      <point x="178" y="1488" type="line"/>
      <point x="178" y="1190" type="line"/>
      <point x="608" y="1190" type="line"/>
    </contour>
  </outline>
</glyph>
<glyph name="glottalstopbarinv" format="2">
  <advance width="1587"/>
  <unicode hex="01BE"/>
  <outline>
    <contour>
      <point x="1068" y="409" type="curve" smooth="yes"/>
      <point x="1069" y="307"/>
      <point x="974" y="242"/>
      <point x="812" y="242" type="curve" smooth="yes"/>
      <point x="674" y="242"/>
      <point x="524" y="298"/>
      <point x="515" y="473" type="curve"/>
      <point x="158" y="473" type="line"/>
      <point x="158" y="230"/>
      <point x="386" y="-28"/>
      <point x="807" y="-28" type="curve" smooth="yes"/>
      <point x="1186" y="-28"/>
      <point x="1433" y="162"/>
      <point x="1432" y="426" type="curve" smooth="yes"/>
      <point x="1433" y="864"/>
      <point x="930" y="739"/>
      <point x="929" y="1111" type="curve" smooth="yes"/>
      <point x="929" y="1854" type="line"/>
      <point x="555" y="1854" type="line"/>
      <point x="555" y="1111" type="line" smooth="yes"/>
      <point x="556" y="603"/>
      <point x="1069" y="650"/>
    </contour>
    <contour>
      <point x="1193" y="1488" type="line"/>
      <point x="321" y="1488" type="line"/>
      <point x="321" y="1218" type="line"/>
      <point x="1193" y="1218" type="line"/>
    </contour>
  </outline>
</glyph>
<glyph name="wynn" format="2">
  <advance width="1858"/>
  <unicode hex="01BF"/>
  <outline>
    <contour>
      <point x="627" y="1204" type="line"/>
      <point x="600" y="1488" type="line"/>
      <point x="254" y="1488" type="line"/>
      <point x="254" y="-572" type="line"/>
      <point x="627" y="-572" type="line"/>
    </contour>
    <contour>
      <point x="571" y="839" type="line"/>
      <point x="591" y="1066"/>
      <point x="684" y="1216"/>
      <point x="909" y="1216" type="curve" smooth="yes"/>
      <point x="1142" y="1216"/>
      <point x="1230" y="1007"/>
      <point x="1230" y="761" type="curve" smooth="yes"/>
      <point x="1230" y="730" type="line" smooth="yes"/>
      <point x="1230" y="311"/>
      <point x="916" y="100"/>
      <point x="480" y="28" type="curve"/>
      <point x="504" y="-266" type="line"/>
      <point x="1196" y="-90"/>
      <point x="1604" y="151"/>
      <point x="1604" y="730" type="curve" smooth="yes"/>
      <point x="1604" y="761" type="line" smooth="yes"/>
      <point x="1604" y="1211"/>
      <point x="1395" y="1516"/>
      <point x="1010" y="1516" type="curve" smooth="yes"/>
      <point x="630" y="1516"/>
      <point x="462" y="1205"/>
      <point x="410" y="770" type="curve"/>
    </contour>
  </outline>
</glyph>
<glyph name="Gbar" format="2">
  <advance width="2126"/>
  <unicode hex="01E4"/>
  <outline>
    <contour>
      <point x="2078" y="650" type="line"/>
      <point x="1138" y="650" type="line"/>
      <point x="1138" y="480" type="line"/>
      <point x="2078" y="480" type="line"/>
    </contour>
    <component base="G"/>
  </outline>
</glyph>
<glyph name="uni01F6" format="2">
  <advance width="3154"/>
  <unicode hex="01F6"/>
  <outline>
    <contour>
      <point x="2249" y="-28" type="curve" smooth="yes"/>
      <point x="2683" y="-28"/>
      <point x="2968" y="220"/>
      <point x="2968" y="675" type="curve" smooth="yes"/>
      <point x="2968" y="1509" type="line"/>
      <point x="2597" y="1509" type="line"/>
      <point x="2597" y="675" type="line" smooth="yes"/>
      <point x="2597" y="418"/>
      <point x="2472" y="291"/>
      <point x="2249" y="291" type="curve" smooth="yes"/>
      <point x="2026" y="291"/>
      <point x="1894" y="418"/>
      <point x="1894" y="675" type="curve" smooth="yes"/>
      <point x="1894" y="2048" type="line"/>
      <point x="1522" y="2048" type="line"/>
      <point x="1522" y="1181" type="line"/>
      <point x="573" y="1181" type="line"/>
      <point x="573" y="2048" type="line"/>
      <point x="202" y="2048" type="line"/>
      <point x="202" y="0" type="line"/>
      <point x="573" y="0" type="line"/>
      <point x="573" y="870" type="line"/>
      <point x="1522" y="870" type="line"/>
      <point x="1522" y="675" type="line" smooth="yes"/>
      <point x="1522" y="225"/>
      <point x="1809" y="-28"/>
    </contour>
  </outline>
</glyph>
<glyph name="uni01F7" format="2">
  <advance width="1997"/>
  <unicode hex="01F7"/>
  <outline>
    <contour>
      <point x="594" y="2004" type="line"/>
      <point x="209" y="2004" type="line"/>
      <point x="209" y="-572" type="line"/>
      <point x="594" y="-572" type="line"/>
    </contour>
    <contour>
      <point x="414" y="-254" type="line"/>
      <point x="1254" y="-80"/>
      <point x="1790" y="451"/>
      <point x="1791" y="1092" type="curve" smooth="yes"/>
      <point x="1791" y="1164" type="line" smooth="yes"/>
      <point x="1790" y="1730"/>
      <point x="1459" y="2032"/>
      <point x="946" y="2032" type="curve" smooth="yes"/>
      <point x="743" y="2032"/>
      <point x="577" y="1969"/>
      <point x="476" y="1874" type="curve"/>
      <point x="476" y="1323" type="line"/>
      <point x="529" y="1557"/>
      <point x="689" y="1722"/>
      <point x="946" y="1722" type="curve" smooth="yes"/>
      <point x="1296" y="1722"/>
      <point x="1399" y="1491"/>
      <point x="1400" y="1168" type="curve" smooth="yes"/>
      <point x="1400" y="1092" type="line" smooth="yes"/>
      <point x="1399" y="651"/>
      <point x="1082" y="210"/>
      <point x="414" y="57" type="curve"/>
    </contour>
  </outline>
</glyph>
<glyph name="uni021C" format="2">
  <advance width="1850"/>
  <unicode hex="021C"/>
  <outline>
    <contour>
      <point x="318" y="426" type="line"/>
      <point x="1126" y="625"/>
      <point x="1645" y="937"/>
      <point x="1645" y="1460" type="curve" smooth="yes"/>
      <point x="1645" y="1832"/>
      <point x="1350" y="2030"/>
      <point x="896" y="2030" type="curve" smooth="yes"/>
      <point x="514" y="2030"/>
      <point x="177" y="1821"/>
      <point x="177" y="1465" type="curve"/>
      <point x="562" y="1465" type="line"/>
      <point x="562" y="1625"/>
      <point x="718" y="1720"/>
      <point x="896" y="1720" type="curve" smooth="yes"/>
      <point x="1156" y="1720"/>
      <point x="1262" y="1593"/>
      <point x="1262" y="1424" type="curve" smooth="yes"/>
      <point x="1262" y="1074"/>
      <point x="996" y="914"/>
      <point x="318" y="713" type="curve"/>
    </contour>
    <contour>
      <point x="1057" y="792" type="line"/>
      <point x="1214" y="766"/>
      <point x="1288" y="690"/>
      <point x="1288" y="473" type="curve" smooth="yes"/>
      <point x="1288" y="60"/>
      <point x="943" y="-172"/>
      <point x="318" y="-294" type="curve"/>
      <point x="318" y="-600" type="line"/>
      <point x="1102" y="-475"/>
      <point x="1675" y="-162"/>
      <point x="1675" y="466" type="curve" smooth="yes"/>
      <point x="1675" y="784"/>
      <point x="1476" y="976"/>
      <point x="1162" y="1012" type="curve"/>
    </contour>
  </outline>
</glyph>
<glyph name="uni021D" format="2">
  <advance width="1589"/>
  <unicode hex="021D"/>
  <outline>
    <contour>
      <point x="326" y="238" type="line"/>
      <point x="968" y="395"/>
      <point x="1388" y="664"/>
      <point x="1389" y="1080" type="curve" smooth="yes"/>
      <point x="1388" y="1364"/>
      <point x="1150" y="1516"/>
      <point x="777" y="1516" type="curve" smooth="yes"/>
      <point x="446" y="1516"/>
      <point x="174" y="1344"/>
      <point x="174" y="1062" type="curve"/>
      <point x="546" y="1062" type="line"/>
      <point x="545" y="1167"/>
      <point x="650" y="1234"/>
      <point x="793" y="1234" type="curve" smooth="yes"/>
      <point x="962" y="1234"/>
      <point x="1016" y="1143"/>
      <point x="1017" y="1040" type="curve" smooth="yes"/>
      <point x="1016" y="770"/>
      <point x="717" y="623"/>
      <point x="326" y="508" type="curve"/>
    </contour>
    <contour>
      <point x="856" y="573" type="line"/>
      <point x="962" y="550"/>
      <point x="1042" y="445"/>
      <point x="1043" y="278" type="curve" smooth="yes"/>
      <point x="1042" y="-43"/>
      <point x="792" y="-182"/>
      <point x="326" y="-322" type="curve"/>
      <point x="326" y="-600" type="line"/>
      <point x="1005" y="-482"/>
      <point x="1416" y="-217"/>
      <point x="1417" y="258" type="curve" smooth="yes"/>
      <point x="1416" y="534"/>
      <point x="1246" y="698"/>
      <point x="965" y="735" type="curve"/>
    </contour>
  </outline>
</glyph>
<glyph name="uni0220" format="2">
  <advance width="1853"/>
  <unicode hex="0220"/>
  <outline>
    <contour>
      <point x="1675" y="-572" type="line"/>
      <point x="1675" y="1394" type="line" smooth="yes"/>
      <point x="1675" y="1808"/>
      <point x="1352" y="2032"/>
      <point x="968" y="2032" type="curve" smooth="yes"/>
      <point x="703" y="2032"/>
      <point x="490" y="1911"/>
      <point x="352" y="1781" type="curve"/>
      <point x="352" y="1452" type="line"/>
      <point x="518" y="1636"/>
      <point x="711" y="1732"/>
      <point x="936" y="1732" type="curve" smooth="yes"/>
      <point x="1177" y="1732"/>
      <point x="1300" y="1617"/>
      <point x="1300" y="1394" type="curve" smooth="yes"/>
      <point x="1300" y="-572" type="line"/>
    </contour>
    <contour>
      <point x="553" y="2004" type="line"/>
      <point x="182" y="2004" type="line"/>
      <point x="182" y="0" type="line"/>
      <point x="553" y="0" type="line"/>
    </contour>
  </outline>
</glyph>
<glyph name="uni0221" format="2">
  <advance width="2022"/>
  <unicode hex="0221"/>
  <outline>
    <contour>
      <point x="1210" y="341" type="line"/>
      <point x="1210" y="-93" type="line"/>
      <point x="1210" y="-350"/>
      <point x="1344" y="-576"/>
      <point x="1726" y="-576" type="curve" smooth="yes"/>
      <point x="2031" y="-576"/>
      <point x="2198" y="-434"/>
      <point x="2198" y="-217" type="curve" smooth="yes"/>
      <point x="2198" y="10"/>
      <point x="2016" y="163"/>
      <point x="1724" y="163" type="curve" smooth="yes"/>
      <point x="1544" y="163"/>
      <point x="1378" y="102"/>
      <point x="1232" y="-13" type="curve"/>
      <point x="869" y="-330" type="line"/>
      <point x="1043" y="-551" type="line"/>
      <point x="1443" y="-203" type="line" smooth="yes"/>
      <point x="1545" y="-122"/>
      <point x="1640" y="-69"/>
      <point x="1728" y="-77" type="curve" smooth="yes"/>
      <point x="1824" y="-82"/>
      <point x="1872" y="-138"/>
      <point x="1872" y="-210" type="curve" smooth="yes"/>
      <point x="1872" y="-285"/>
      <point x="1815" y="-338"/>
      <point x="1733" y="-338" type="curve" smooth="yes"/>
      <point x="1648" y="-338"/>
      <point x="1574" y="-282"/>
      <point x="1574" y="-166" type="curve"/>
      <point x="1574" y="341" type="line"/>
    </contour>
    <component base="d" xOffset="3"/>
  </outline>
</glyph>
<glyph name="uni0222" format="2">
  <advance width="1851"/>
  <unicode hex="0222"/>
  <outline>
    <contour>
      <point x="912" y="1252" type="line"/>
      <point x="469" y="1252"/>
      <point x="134" y="1047"/>
      <point x="134" y="623" type="curve" smooth="yes"/>
      <point x="134" y="197"/>
      <point x="468" y="-28"/>
      <point x="912" y="-28" type="curve" smooth="yes"/>
      <point x="942" y="-28" type="line" smooth="yes"/>
      <point x="1384" y="-28"/>
      <point x="1716" y="197"/>
      <point x="1717" y="627" type="curve" smooth="yes"/>
      <point x="1716" y="1047"/>
      <point x="1383" y="1252"/>
      <point x="942" y="1252" type="curve" smooth="yes"/>
    </contour>
    <contour>
      <point x="942" y="974" type="line"/>
      <point x="1184" y="974"/>
      <point x="1327" y="847"/>
      <point x="1327" y="627" type="curve" smooth="yes"/>
      <point x="1327" y="401"/>
      <point x="1184" y="282"/>
      <point x="942" y="282" type="curve" smooth="yes"/>
      <point x="912" y="282" type="line" smooth="yes"/>
      <point x="672" y="282"/>
      <point x="524" y="401"/>
      <point x="524" y="623" type="curve" smooth="yes"/>
      <point x="524" y="850"/>
      <point x="673" y="974"/>
      <point x="912" y="974" type="curve" smooth="yes"/>
    </contour>
    <contour>
      <point x="903" y="1288" type="line"/>
      <point x="672" y="1288"/>
      <point x="524" y="1346"/>
      <point x="524" y="1527" type="curve" smooth="yes"/>
      <point x="524" y="1656"/>
      <point x="589" y="1705"/>
      <point x="720" y="1736" type="curve"/>
      <point x="720" y="2032" type="line"/>
      <point x="383" y="2026"/>
      <point x="134" y="1869"/>
      <point x="134" y="1527" type="curve" smooth="yes"/>
      <point x="134" y="1153"/>
      <point x="478" y="1011"/>
      <point x="903" y="1011" type="curve" smooth="yes"/>
      <point x="948" y="1011" type="line" smooth="yes"/>
      <point x="1371" y="1011"/>
      <point x="1720" y="1153"/>
      <point x="1720" y="1527" type="curve" smooth="yes"/>
      <point x="1720" y="1869"/>
      <point x="1470" y="2026"/>
      <point x="1133" y="2032" type="curve"/>
      <point x="1133" y="1736" type="line"/>
      <point x="1261" y="1705"/>
      <point x="1330" y="1656"/>
      <point x="1330" y="1527" type="curve" smooth="yes"/>
      <point x="1330" y="1342"/>
      <point x="1172" y="1288"/>
      <point x="948" y="1288" type="curve" smooth="yes"/>
    </contour>
  </outline>
</glyph>
<glyph name="uni0223" format="2">
  <advance width="1850"/>
  <unicode hex="0223"/>
  <outline>
    <contour>
      <point x="910" y="1235" type="line"/>
      <point x="468" y="1235"/>
      <point x="142" y="1042"/>
      <point x="142" y="618" type="curve" smooth="yes"/>
      <point x="142" y="192"/>
      <point x="468" y="-28"/>
      <point x="910" y="-28" type="curve" smooth="yes"/>
      <point x="941" y="-28" type="line" smooth="yes"/>
      <point x="1382" y="-28"/>
      <point x="1708" y="192"/>
      <point x="1708" y="621" type="curve" smooth="yes"/>
      <point x="1708" y="1042"/>
      <point x="1380" y="1235"/>
      <point x="941" y="1235" type="curve" smooth="yes"/>
    </contour>
    <contour>
      <point x="941" y="966" type="line"/>
      <point x="1185" y="966"/>
      <point x="1334" y="841"/>
      <point x="1334" y="621" type="curve" smooth="yes"/>
      <point x="1334" y="396"/>
      <point x="1185" y="270"/>
      <point x="941" y="270" type="curve" smooth="yes"/>
      <point x="910" y="270" type="line" smooth="yes"/>
      <point x="667" y="270"/>
      <point x="515" y="396"/>
      <point x="515" y="618" type="curve" smooth="yes"/>
      <point x="515" y="841"/>
      <point x="667" y="966"/>
      <point x="910" y="966" type="curve" smooth="yes"/>
    </contour>
    <contour>
      <point x="946" y="1263" type="curve" smooth="yes"/>
      <point x="903" y="1263" type="line" smooth="yes"/>
      <point x="676" y="1263"/>
      <point x="515" y="1335"/>
      <point x="515" y="1567" type="curve" smooth="yes"/>
      <point x="515" y="1732"/>
      <point x="593" y="1812"/>
      <point x="718" y="1858" type="curve"/>
      <point x="718" y="2140" type="line"/>
      <point x="385" y="2134"/>
      <point x="142" y="1938"/>
      <point x="142" y="1572" type="curve" smooth="yes"/>
      <point x="142" y="1149"/>
      <point x="480" y="998"/>
      <point x="903" y="998" type="curve" smooth="yes"/>
      <point x="946" y="998" type="line" smooth="yes"/>
      <point x="1371" y="998"/>
      <point x="1708" y="1149"/>
      <point x="1708" y="1572" type="curve" smooth="yes"/>
      <point x="1708" y="1941"/>
      <point x="1463" y="2134"/>
      <point x="1131" y="2140" type="curve"/>
      <point x="1131" y="1858" type="line"/>
      <point x="1257" y="1812"/>
      <point x="1338" y="1732"/>
      <point x="1338" y="1567" type="curve" smooth="yes"/>
      <point x="1338" y="1337"/>
      <point x="1178" y="1263"/>
    </contour>
  </outline>
</glyph>
<glyph name="uni0224" format="2">
  <advance width="1838"/>
  <unicode hex="0224"/>
  <note>
!post:RemoveOverlap
</note>
  <outline>
    <contour>
      <point x="1058" y="311" type="line"/>
      <point x="1058" y="0" type="line"/>
      <point x="1195" y="0" type="line" smooth="yes"/>
      <point x="1355" y="0"/>
      <point x="1394" y="-115"/>
      <point x="1394" y="-241" type="curve"/>
      <point x="1394" y="-336" type="line"/>
      <point x="1706" y="-336" type="line"/>
      <point x="1706" y="-174" type="line"/>
      <point x="1706" y="123"/>
      <point x="1520" y="311"/>
      <point x="1195" y="311" type="curve" smooth="yes"/>
    </contour>
    <contour>
      <point x="1058" y="311" type="line"/>
      <point x="618" y="311" type="line"/>
      <point x="1674" y="1817" type="line"/>
      <point x="1674" y="2048" type="line"/>
      <point x="158" y="2048" type="line"/>
      <point x="158" y="1737" type="line"/>
      <point x="1220" y="1737" type="line"/>
      <point x="164" y="231" type="line"/>
      <point x="164" y="0" type="line"/>
      <point x="1058" y="0" type="line"/>
    </contour>
  </outline>
</glyph>
<glyph name="zhook" format="2">
  <advance width="1573"/>
  <unicode hex="0225"/>
  <outline>
    <contour>
      <point x="1165" y="-355" type="line"/>
      <point x="1471" y="-355" type="line"/>
      <point x="1471" y="-189" type="line"/>
      <point x="1471" y="105"/>
      <point x="1288" y="298"/>
      <point x="961" y="298" type="curve" smooth="yes"/>
      <point x="623" y="298" type="line"/>
      <point x="1398" y="1308" type="line"/>
      <point x="1398" y="1536" type="line"/>
      <point x="176" y="1536" type="line"/>
      <point x="176" y="1238" type="line"/>
      <point x="946" y="1238" type="line"/>
      <point x="168" y="234" type="line"/>
      <point x="168" y="0" type="line"/>
      <point x="961" y="0" type="line" smooth="yes"/>
      <point x="1132" y="0"/>
      <point x="1165" y="-135"/>
      <point x="1165" y="-262" type="curve" smooth="yes"/>
    </contour>
  </outline>
</glyph>
